P2
110 110
255
62 65 63 66 65 67 64 65 63 67 64 67 65 67 61 66 68 68 63 64 66 70 68 68 68 69 69 68 68 69 68 69 69 69 69 70 70 69 72 69 70 68 72 73 72 76 78 76 66 80 72 66 64 88 70 85 71 66 64 67 79 61 61 70 53 93 75 99 84 113 42 3 10 0 2 0 0 0 0 0 25 0 56 78 70 96 115 42 0 0 0 0 0 90 46 124 54 73 58 84 80 117 25 4 66 54 56 50 32 77 
60 64 62 64 62 64 65 65 64 66 65 66 64 65 66 66 62 65 65 72 68 66 64 67 71 72 70 68 67 67 70 70 69 68 68 70 71 72 71 75 71 74 73 64 69 73 74 80 59 92 68 44 74 67 75 79 56 99 34 75 69 57 75 54 58 83 98 91 86 5 0 0 0 0 0 0 2 0 0 0 0 23 74 81 91 103 104 105 0 0 0 0 0 0 101 85 68 80 98 68 88 71 104 20 67 77 33 21 60 59 
62 65 63 65 63 63 65 64 66 64 66 64 65 64 67 67 63 66 66 71 68 66 67 67 66 66 68 68 68 66 69 69 68 67 68 70 71 71 74 67 79 71 73 76 62 80 64 85 59 89 59 45 105 61 72 90 61 111 44 46 66 57 94 39 79 68 110 75 119 70 0 0 0 0 0 0 0 0 0 0 0 0 103 86 98 88 73 104 0 0 0 0 0 17 113 56 104 40 91 74 84 70 54 51 11 36 96 13 55 98 
62 66 64 66 64 65 64 63 66 63 66 64 67 65 62 67 70 70 64 65 67 71 66 67 68 67 67 68 69 69 68 69 70 69 70 71 71 71 73 69 69 72 76 79 66 77 74 77 72 90 65 29 52 74 75 73 87 63 47 63 30 51 0 54 88 60 119 88 36 0 0 0 0 0 0 0 2 4 1 0 0 0 0 104 68 80 49 120 0 0 0 0 0 70 57 103 71 60 69 47 84 57 63 104 17 8 102 15 101 78 
62 65 64 66 64 65 64 65 65 64 65 66 67 66 66 65 67 67 69 68 68 68 64 68 71 71 69 68 69 70 68 70 70 71 71 72 72 72 77 72 73 74 75 82 56 68 83 80 67 85 89 49 24 67 61 61 85 86 48 79 0 0 0 0 101 88 93 64 0 0 0 1 0 0 0 22 15 64 0 34 0 0 12 66 70 85 51 123 0 0 0 0 0 83 106 46 87 75 76 44 40 65 48 82 32 49 55 18 113 84 
62 65 63 65 64 65 65 67 65 66 63 67 66 66 66 63 68 67 71 66 68 69 69 68 66 66 69 72 71 68 68 69 69 69 69 71 72 72 69 76 71 81 79 81 60 66 74 77 77 93 83 43 15 65 32 69 72 109 49 41 0 0 0 0 0 50 0 2 18 0 0 4 14 1 12 8 10 0 32 3 106 0 0 33 86 35 78 151 0 0 0 0 0 107 86 84 29 55 38 34 38 61 59 94 48 13 135 9 88 74 
65 65 64 65 66 68 66 65 69 65 68 65 68 65 69 69 68 67 66 68 68 67 67 67 69 70 69 68 69 70 69 68 69 69 67 76 69 72 76 65 77 73 77 87 67 60 94 73 82 78 84 41 10 65 33 93 57 89 65 56 0 0 0 0 0 0 0 7 0 0 10 11 3 21 11 24 3 16 0 0 61 13 2 0 70 47 74 132 0 0 0 0 0 123 99 108 99 53 43 81 85 38 63 82 65 0 73 9 71 81 
64 64 64 65 66 66 67 67 69 64 68 67 69 66 66 66 67 67 68 69 70 68 67 66 66 68 69 68 69 69 71 68 71 72 71 75 69 73 68 66 66 78 87 87 66 58 86 52 79 71 77 94 0 30 60 61 56 93 101 44 0 0 0 0 0 15 0 5 0 2 15 3 12 7 12 27 14 13 2 2 0 12 4 15 12 96 84 121 0 0 0 0 0 124 107 75 98 112 0 77 93 86 19 46 83 0 90 1 93 40 
65 65 66 67 67 67 67 67 68 66 68 68 68 67 65 66 67 67 67 69 69 68 68 67 66 67 69 69 69 70 72 69 71 72 73 71 70 73 72 85 54 82 82 70 85 47 76 42 80 91 45 84 22 27 35 62 58 56 76 86 0 0 0 10 4 0 8 0 4 5 5 5 5 10 26 0 35 10 10 0 0 0 11 20 3 0 68 134 0 0 0 0 0 107 105 91 72 95 82 4 107 75 68 47 64 11 21 48 23 92 
66 66 66 67 67 67 67 68 69 68 68 67 68 68 66 67 67 67 68 69 68 67 68 67 67 69 70 70 70 70 72 71 70 72 71 70 72 73 81 78 55 82 89 55 74 54 37 36 54 95 28 48 82 9 57 55 75 80 55 40 0 0 0 0 0 0 0 0 0 11 0 12 1 19 17 14 15 0 0 1 5 0 0 0 12 21 0 79 0 0 6 0 0 104 95 104 78 75 78 7 61 62 64 90 40 36 0 54 64 77 
66 66 64 63 64 65 65 68 70 70 67 67 66 67 66 66 67 66 68 69 71 70 67 67 69 70 70 69 69 71 70 74 71 74 71 70 74 74 74 80 67 68 96 51 71 85 18 73 52 53 39 55 44 41 64 49 41 90 0 0 0 4 0 0 0 0 0 0 0 0 39 5 2 28 3 33 5 9 10 0 0 0 0 0 13 5 46 0 0 0 0 0 0 97 34 99 96 70 82 0 86 6 48 127 47 57 0 111 74 89 
66 66 65 64 65 67 65 69 69 70 67 68 66 67 68 68 67 66 68 69 70 69 66 67 69 70 70 69 69 71 68 73 72 75 73 66 75 74 84 81 61 46 92 66 84 86 59 17 62 25 41 70 40 24 98 10 91 0 0 0 2 0 0 0 0 0 0 0 0 0 0 68 0 10 2 27 0 0 0 0 0 0 9 0 7 17 38 0 0 0 0 0 0 85 136 81 62 55 117 97 0 77 0 86 106 46 0 129 73 95 
66 67 67 67 68 69 67 69 68 70 67 70 67 67 71 69 68 67 69 70 69 68 68 68 68 69 70 69 71 72 71 71 72 73 78 59 76 77 82 66 70 53 78 58 65 86 61 32 1 27 1 74 44 45 112 45 8 0 0 0 0 1 0 0 0 0 0 0 0 0 0 0 0 0 8 17 0 4 0 0 0 0 0 0 0 0 65 0 0 0 5 18 0 99 105 105 112 105 51 30 71 121 24 55 41 105 0 52 117 48 
67 67 67 66 66 66 69 69 66 68 67 72 69 68 70 69 68 68 70 71 70 68 70 69 69 70 71 72 72 73 77 71 74 71 81 53 78 82 86 80 60 52 77 60 68 83 91 81 21 27 46 36 40 84 100 23 0 0 3 0 13 3 0 0 0 0 0 0 0 0 0 0 31 17 10 0 5 4 0 0 0 0 0 0 1 0 82 0 0 0 0 0 0 17 103 114 90 97 106 71 59 0 67 13 78 91 0 102 63 72 
70 67 67 66 60 74 68 70 59 70 69 78 62 70 69 71 66 69 73 73 70 72 68 72 68 73 76 69 75 66 76 67 78 76 78 62 78 81 80 87 62 53 53 72 44 79 51 103 19 20 35 22 34 37 53 0 0 2 1 0 0 0 0 0 0 0 3 0 0 0 0 0 0 21 9 0 4 0 0 0 0 0 0 0 0 0 0 0 0 0 0 0 0 0 78 38 74 45 67 45 118 78 13 99 43 76 0 107 79 108 
63 65 67 73 63 65 73 69 46 71 72 71 59 73 69 76 74 71 70 72 72 68 72 73 70 74 75 74 70 61 74 68 75 78 83 64 83 78 88 90 84 44 91 48 38 59 18 52 75 18 16 58 69 26 0 0 0 8 0 0 5 0 0 0 2 0 5 0 0 0 0 0 0 0 7 0 10 0 9 0 0 0 0 3 0 94 81 0 0 0 0 0 0 0 0 83 117 96 73 57 53 67 0 141 39 81 0 110 95 115 
62 74 72 69 67 44 59 71 49 69 75 76 61 75 78 76 76 71 70 68 73 73 71 72 71 71 71 76 67 66 71 59 68 81 82 60 77 88 73 92 63 32 84 42 19 88 69 60 26 40 18 41 45 23 0 0 0 0 4 0 0 0 0 0 0 34 19 0 0 27 34 0 0 2 2 0 23 0 16 0 0 0 0 1 0 0 0 0 0 0 0 0 0 0 0 81 101 69 66 83 54 79 61 49 79 68 0 68 91 87 
69 70 64 67 76 65 49 70 37 87 65 60 73 77 80 66 79 68 74 69 72 74 73 73 74 71 76 80 62 67 60 80 51 76 73 49 88 78 87 82 88 90 45 49 48 28 20 69 88 25 68 65 67 0 0 0 0 1 26 0 0 0 0 0 0 18 5 0 0 10 0 0 0 4 3 13 31 0 0 0 0 0 8 7 0 0 0 0 0 0 0 0 0 0 77 119 64 71 70 58 27 67 70 0 92 93 0 39 76 101 
70 73 64 55 61 64 59 39 61 83 54 55 83 67 71 57 81 62 78 77 74 69 73 73 74 71 81 79 54 55 67 91 43 71 71 52 84 70 93 64 83 95 76 35 50 22 86 82 57 18 38 74 16 0 0 0 4 10 4 6 0 0 0 1 1 12 0 0 0 0 4 0 9 33 23 45 42 0 15 0 0 0 0 13 6 8 0 0 4 0 0 0 0 0 16 96 69 97 85 83 67 49 74 43 38 91 0 21 112 111 
69 73 69 66 56 72 62 52 57 67 46 74 76 71 65 52 72 60 79 78 77 74 76 81 80 78 77 81 67 64 68 75 58 64 74 57 66 80 96 57 77 93 111 57 41 95 78 75 55 52 75 44 0 0 0 1 6 0 22 0 5 0 0 0 0 39 0 0 0 14 0 4 11 135 80 52 51 27 9 20 13 0 0 15 32 9 1 0 28 0 0 0 0 4 0 93 88 57 93 85 102 34 123 97 18 92 0 23 87 65 
78 74 70 71 47 44 87 32 51 43 45 74 78 80 54 48 55 63 79 76 79 81 72 77 71 79 59 78 75 56 53 75 81 51 76 52 65 74 100 53 76 82 86 99 37 45 95 97 51 84 68 55 0 0 5 2 0 16 3 0 14 0 6 0 10 4 0 0 0 29 0 85 124 127 194 135 67 86 11 10 0 0 0 12 38 46 0 0 2 0 0 0 2 0 0 22 98 100 72 62 106 43 77 53 17 119 25 53 0 107 
68 82 76 56 90 33 70 42 46 14 71 68 69 70 32 47 46 64 77 78 83 75 81 80 68 85 56 87 80 37 60 71 102 40 79 47 49 64 98 54 85 71 66 80 68 61 91 63 59 109 35 16 0 3 5 63 0 98 56 10 0 1 0 0 22 0 0 0 0 0 0 15 60 3 56 0 0 0 0 0 0 0 0 0 67 55 67 6 35 0 0 0 0 0 12 0 85 80 79 134 41 22 87 85 73 60 20 103 13 160 
60 81 85 43 68 42 49 42 21 34 65 69 82 48 42 32 37 73 70 84 77 81 84 86 82 67 56 82 93 45 41 84 69 45 78 40 55 64 75 76 64 73 102 49 102 60 90 88 37 118 95 0 0 4 1 77 45 100 57 41 0 0 0 0 0 0 0 0 0 0 0 0 0 0 0 0 0 0 0 0 0 0 0 0 0 0 207 30 0 0 0 0 0 0 1 0 25 133 84 62 30 35 29 45 102 0 6 66 103 25 
57 78 81 61 48 52 44 30 26 29 71 78 55 37 30 0 48 61 87 79 84 87 84 91 76 88 67 69 96 52 29 94 58 79 41 48 80 39 79 75 54 101 60 72 67 75 67 59 52 77 78 0 0 0 70 57 94 173 0 14 0 12 0 0 0 0 0 0 0 0 0 0 0 0 0 0 0 0 0 0 0 0 0 0 0 0 0 0 0 0 0 0 0 0 0 0 0 116 83 108 79 20 65 70 28 51 0 101 121 0 
65 69 83 78 55 79 14 23 39 18 82 55 62 26 32 10 26 76 88 75 85 103 79 83 87 86 73 59 93 84 17 68 73 48 81 27 73 61 73 28 54 98 62 66 53 88 102 68 42 114 47 13 0 66 116 3 29 0 0 0 0 0 0 0 0 0 0 0 0 0 0 0 0 0 0 0 0 0 0 0 0 0 0 0 0 0 0 0 0 0 0 0 0 4 0 0 0 65 81 73 112 45 39 39 103 62 0 60 78 0 
59 59 81 99 69 42 15 77 27 32 74 41 35 48 26 53 51 92 61 91 78 8 0 0 0 72 83 72 75 78 44 69 77 55 86 35 78 17 94 31 34 108 68 88 42 61 112 93 31 2 0 0 2 0 0 0 0 0 0 0 0 0 0 0 0 0 0 0 0 0 0 0 0 0 0 0 0 0 0 0 0 1 0 0 0 0 0 0 0 0 0 0 0 0 32 0 0 41 60 64 71 70 89 61 28 36 0 92 0 64 
69 30 40 77 74 74 27 27 72 31 62 63 33 29 30 48 61 55 95 37 0 0 0 0 0 45 67 91 57 89 62 27 45 60 96 43 64 42 74 63 55 45 88 79 63 26 7 0 0 0 0 0 0 0 0 0 0 0 0 0 0 0 0 0 0 0 0 0 0 0 0 0 0 2 3 8 30 1 3 0 18 0 1 0 0 0 0 0 0 0 0 0 0 0 72 69 0 0 154 34 101 109 67 32 43 73 11 0 0 111 
70 78 13 48 73 51 11 10 99 53 46 64 77 28 23 53 59 110 61 0 0 0 0 0 29 71 64 79 76 70 54 72 84 43 90 61 74 45 21 78 85 47 59 69 65 82 28 6 0 0 0 0 0 0 0 0 0 0 0 0 0 0 0 0 0 8 27 0 0 3 0 5 2 9 10 23 12 0 0 16 12 35 0 3 0 0 0 0 0 0 0 0 0 0 7 111 4 0 152 121 59 110 22 55 49 78 0 0 58 55 
59 44 85 16 16 58 11 36 57 61 73 58 66 21 51 41 25 0 12 0 0 0 0 66 88 108 50 60 64 100 40 83 90 39 72 114 22 57 73 36 98 85 28 70 45 67 90 58 45 0 0 0 0 0 0 0 0 0 0 0 3 3 0 0 0 0 10 22 3 0 0 0 4 16 9 8 0 16 5 15 27 9 0 23 2 3 0 0 0 0 0 0 0 0 0 27 20 0 29 124 113 42 54 16 66 96 24 0 70 101 
49 69 39 59 12 38 29 24 41 64 71 29 105 24 29 0 24 68 107 114 113 96 104 107 81 96 87 75 54 46 41 93 50 33 86 68 25 44 0 65 22 38 60 15 61 27 60 59 21 0 0 0 0 0 0 0 14 16 0 28 8 0 0 0 0 19 9 16 0 0 0 0 13 12 11 5 0 0 13 33 50 12 6 0 5 27 3 1 0 0 0 0 0 0 0 0 0 0 0 39 113 81 11 44 61 138 0 31 72 62 
65 59 72 93 54 59 18 7 17 62 59 64 60 18 0 59 98 105 99 102 75 89 83 83 63 84 30 21 22 0 6 75 60 40 12 50 16 21 56 17 47 116 104 72 59 32 67 82 0 0 0 0 1 5 0 0 0 32 0 20 5 14 0 0 0 4 0 0 1 0 5 7 10 2 6 16 0 0 6 25 18 54 5 0 0 12 13 0 25 10 0 0 0 0 0 0 0 0 12 68 44 90 10 30 131 134 0 44 95 77 
55 61 24 94 82 23 68 27 47 32 90 45 55 0 31 103 100 100 105 79 85 46 60 71 64 27 57 55 49 43 27 19 41 35 49 41 7 48 103 70 126 55 98 109 43 7 9 40 0 0 0 3 0 9 30 0 20 0 0 6 0 0 3 0 0 0 0 20 0 0 17 16 19 17 0 13 0 24 6 26 68 17 13 12 1 6 3 12 0 25 14 0 0 0 0 0 0 0 0 7 110 33 0 110 117 35 0 82 67 95 
17 41 61 22 77 44 88 42 87 9 62 116 0 7 82 103 102 101 94 98 66 77 31 74 49 50 23 47 30 13 39 16 59 52 0 3 54 61 100 97 6 93 25 86 88 0 44 104 0 19 0 0 0 14 17 0 16 21 0 0 0 0 8 0 0 15 11 14 0 5 5 23 17 0 0 0 0 0 2 48 36 36 21 23 0 0 14 0 2 3 0 15 0 0 0 0 0 0 0 0 0 8 0 93 156 1 0 131 56 62 
97 48 65 63 36 35 66 59 75 55 15 38 0 13 96 92 95 103 101 82 95 72 54 36 54 48 30 0 24 0 0 24 63 45 5 2 77 82 47 90 94 51 54 39 48 17 53 60 67 32 0 0 0 1 14 5 0 13 0 0 3 0 2 0 0 14 7 19 0 14 16 4 0 19 1 0 14 2 0 19 45 43 16 7 0 0 0 2 0 0 0 0 0 0 0 0 0 0 0 0 0 0 0 0 45 0 24 92 79 97 
45 37 48 22 25 40 22 79 47 56 12 0 36 20 97 95 91 85 102 48 83 75 114 29 0 0 0 0 0 0 0 0 94 1 69 67 96 121 47 48 69 60 42 63 121 66 10 23 35 9 0 0 0 0 0 15 0 8 0 12 0 22 25 0 0 19 5 5 0 10 21 11 26 25 0 10 16 18 0 5 32 33 12 0 15 0 4 0 0 0 0 0 0 0 0 0 0 0 0 0 0 0 0 0 0 0 49 104 97 133 
79 62 55 32 0 0 54 0 62 75 34 16 0 81 92 98 96 53 78 36 33 0 55 0 0 0 0 29 9 15 0 0 8 0 96 48 117 89 28 80 52 95 59 79 27 41 7 58 27 21 0 11 13 0 0 0 4 0 3 22 8 31 41 0 0 1 37 0 11 23 25 18 11 0 0 19 5 1 0 28 20 0 0 12 0 0 2 5 0 0 0 0 0 0 0 0 0 0 0 0 0 0 0 0 0 0 0 17 117 91 
19 35 87 89 64 0 49 23 62 46 0 27 13 81 88 99 90 71 79 67 56 37 3 45 42 35 66 40 4 11 0 0 0 126 0 79 9 67 111 20 63 87 39 31 116 52 9 18 1 6 0 0 2 0 0 0 3 9 1 0 16 36 63 0 25 0 14 0 16 20 8 29 6 0 18 31 8 2 0 0 23 33 0 13 0 0 13 7 0 0 0 0 0 0 24 0 0 0 0 0 0 0 0 0 0 0 0 0 0 78 
0 52 15 60 53 0 22 108 49 32 0 65 0 105 112 90 92 88 75 33 105 18 0 42 1 51 76 50 17 49 0 0 0 101 107 58 33 43 92 29 40 52 50 38 105 39 4 24 0 0 0 0 7 0 0 0 3 14 3 0 18 21 27 0 27 0 19 0 12 28 21 21 20 0 29 0 0 18 6 41 47 0 0 0 0 0 5 0 0 1 0 0 0 0 0 75 7 0 0 0 0 13 0 24 0 0 0 0 0 0 
26 4 74 41 54 13 13 76 67 45 4 93 0 103 109 102 112 66 36 100 55 18 82 38 31 36 21 79 54 1 0 0 0 3 87 71 39 63 125 5 80 28 27 0 51 100 0 4 0 1 0 0 0 0 0 0 0 0 0 0 0 22 58 0 16 48 0 11 0 12 3 0 0 7 0 2 20 23 9 34 28 39 15 5 0 0 7 0 0 0 0 0 0 0 0 0 14 0 0 0 0 0 0 0 0 0 1 6 0 0 
30 0 53 104 50 59 0 81 56 0 14 113 0 91 85 86 85 87 80 41 0 25 41 14 83 1 0 49 1 0 0 0 0 0 80 81 16 0 75 41 41 60 66 19 3 68 0 0 3 13 0 20 12 0 1 22 5 0 0 0 8 3 13 0 27 50 0 25 0 4 15 19 0 0 15 23 21 15 5 23 32 22 0 12 0 3 0 0 0 0 0 0 0 0 0 0 0 0 0 0 0 0 0 0 0 0 0 0 0 0 
57 25 0 33 19 49 9 44 76 0 123 63 52 29 122 115 107 37 64 20 82 16 26 21 48 48 8 28 44 1 0 9 0 0 0 74 123 54 0 0 29 75 85 105 0 0 0 0 8 0 9 0 1 0 2 6 0 0 0 0 8 16 2 0 7 0 23 0 0 63 22 0 0 29 15 16 15 12 21 11 16 0 8 14 0 0 11 0 0 0 0 0 0 0 0 0 0 0 0 0 0 0 0 0 0 0 0 5 0 0 
63 31 101 0 60 71 15 8 70 0 109 13 27 62 121 97 59 120 21 66 23 82 51 80 10 4 0 6 49 0 0 15 0 4 0 47 73 56 2 0 32 0 10 71 66 29 0 0 8 0 11 0 0 1 0 0 0 0 0 0 0 0 0 0 19 0 0 0 0 29 32 0 7 35 17 37 31 12 0 10 11 10 0 0 0 3 0 0 0 0 0 0 0 0 0 7 0 0 0 0 0 0 0 0 4 0 2 0 0 0 
56 25 84 135 8 76 51 10 8 0 99 85 3 72 98 63 125 19 27 0 0 0 54 46 4 0 0 85 49 0 14 2 2 7 0 0 117 48 50 0 40 55 5 35 0 62 0 0 0 0 0 0 0 4 3 1 16 21 0 0 0 0 0 0 0 7 11 0 0 5 14 0 14 17 20 9 36 19 10 0 11 15 10 0 0 0 0 0 0 0 0 0 0 0 40 0 0 0 0 0 0 0 0 0 0 0 0 0 0 0 
3 15 0 9 9 109 96 21 33 0 78 68 34 119 42 85 21 17 63 0 0 0 0 12 55 0 41 67 35 0 2 8 5 8 0 0 77 94 104 55 0 13 44 73 33 5 0 0 1 0 0 0 0 0 0 0 0 0 0 0 0 12 0 0 0 27 17 17 0 0 0 0 0 0 1 0 0 0 10 0 4 13 4 7 2 0 0 0 0 0 0 0 0 30 0 0 0 0 0 0 0 0 0 0 0 0 0 0 0 1 
18 0 0 44 67 0 88 0 6 40 62 119 41 93 64 11 15 69 31 1 26 0 12 44 0 18 42 12 10 2 5 0 17 4 0 0 0 132 62 132 33 32 96 31 130 0 0 0 0 0 0 0 6 0 0 0 0 0 0 0 1 16 0 1 24 0 21 6 0 0 0 12 0 5 0 0 0 0 3 0 8 0 0 0 5 8 3 0 0 0 0 0 0 26 0 1 0 0 0 0 0 0 0 0 0 0 0 34 1 0 
34 54 39 0 98 106 34 27 0 33 66 77 31 123 28 16 39 10 6 0 0 0 67 0 0 15 5 21 0 4 0 4 12 0 3 9 0 42 77 171 30 47 61 0 98 0 0 24 51 7 25 15 0 0 0 0 0 0 0 33 30 0 0 17 29 26 0 28 0 12 0 27 14 1 13 6 0 0 7 0 0 0 1 0 0 0 0 8 12 5 45 0 0 5 23 0 50 16 8 45 72 70 0 0 0 0 26 0 17 28 
19 20 51 21 17 105 8 13 0 0 84 48 43 115 4 32 28 22 71 0 0 0 34 7 38 65 28 50 0 13 0 0 0 0 11 0 0 0 161 28 35 36 28 95 22 0 0 9 0 0 0 0 0 0 0 0 0 1 0 0 46 0 19 21 17 6 5 0 0 0 0 1 0 3 0 0 2 0 0 0 0 0 0 0 0 0 0 31 70 25 135 0 0 0 0 0 8 75 65 39 4 25 0 0 0 0 29 19 35 4 
125 52 24 61 0 59 46 0 0 3 127 102 16 45 18 44 25 37 43 2 14 14 15 0 135 15 34 4 0 7 22 0 0 10 20 4 0 0 5 49 0 51 3 74 44 0 0 0 0 0 0 0 7 0 0 8 0 0 0 0 0 0 0 0 0 0 0 0 0 0 0 0 0 5 0 3 3 10 3 0 0 0 0 0 0 0 0 0 0 0 10 2 0 0 0 0 0 0 0 0 0 0 0 0 0 0 0 0 0 0 
85 83 94 122 149 11 89 0 0 42 95 18 16 25 53 46 73 7 10 105 37 103 48 171 183 121 49 7 0 12 80 0 0 0 0 0 0 7 0 29 50 38 50 0 16 2 0 0 5 3 22 23 0 0 0 2 0 0 58 0 0 0 0 0 3 0 0 6 0 0 13 0 0 0 0 11 12 0 16 8 11 3 0 0 0 0 0 0 0 0 0 0 0 0 0 0 0 0 0 0 0 0 0 0 0 0 0 0 0 0 
38 67 47 43 68 93 0 0 0 20 68 0 92 148 0 131 105 66 95 96 30 115 184 201 141 149 90 0 31 89 180 22 0 0 12 0 27 0 0 29 51 119 113 26 0 8 0 4 0 0 0 1 0 0 0 4 0 0 0 0 0 0 0 0 12 10 9 13 0 0 0 0 0 2 0 8 13 9 7 17 12 11 6 0 0 0 0 0 0 0 0 0 0 0 0 0 0 0 0 0 0 0 0 0 0 0 0 0 0 0 
117 127 109 66 112 74 106 0 0 133 0 29 125 200 122 149 35 147 142 154 28 63 32 54 19 0 0 2 13 67 207 131 3 0 0 20 0 21 13 0 17 0 16 10 0 0 0 10 0 15 3 0 2 2 0 23 17 0 0 19 0 20 0 12 19 10 27 15 0 0 11 0 0 0 0 0 10 5 26 30 32 28 0 0 2 0 0 0 0 0 0 0 0 0 0 0 0 0 0 0 0 0 0 0 0 0 0 0 0 0 
59 53 50 38 76 90 70 77 0 71 31 53 0 63 44 74 10 20 0 0 0 0 15 22 21 15 17 16 0 0 0 0 0 28 30 0 31 37 22 5 0 75 14 0 0 23 10 6 14 21 16 0 34 26 9 21 42 8 0 40 0 0 0 0 15 0 4 5 0 0 7 22 0 0 22 9 0 15 15 22 41 7 0 0 0 0 0 0 0 0 0 0 0 0 0 0 0 0 0 0 0 0 0 0 0 0 0 0 0 0 
23 35 111 132 83 117 72 90 0 0 0 0 0 0 0 0 10 11 28 1 0 6 20 47 26 10 21 21 0 0 0 0 0 0 0 72 43 52 174 45 75 109 39 78 16 73 0 29 28 18 21 17 16 16 35 0 15 29 0 0 0 0 0 0 6 0 0 0 0 0 9 24 0 0 0 0 0 3 25 20 0 16 0 3 0 3 0 0 0 0 0 0 0 0 0 0 3 6 7 0 47 0 0 0 0 2 0 18 7 28 
75 41 34 49 50 75 123 91 0 0 0 0 15 24 0 3 28 33 27 0 0 25 21 27 48 35 13 4 0 0 0 0 0 0 0 0 30 76 167 115 38 0 0 0 0 0 0 24 29 0 14 20 0 16 23 18 0 0 0 37 39 2 21 0 0 0 4 0 0 21 8 0 3 0 0 0 0 0 19 0 0 6 8 6 6 4 0 0 0 0 0 0 0 7 0 6 10 13 24 20 0 0 0 0 0 5 14 2 10 0 
64 93 100 76 122 0 86 79 0 0 0 0 12 8 0 26 11 34 30 0 28 63 36 97 73 55 52 36 54 0 9 0 11 19 63 39 8 8 0 0 0 0 0 0 0 0 0 18 50 5 23 32 0 24 50 14 0 0 0 0 0 35 0 0 13 0 15 0 0 7 0 0 0 23 0 0 10 0 33 13 1 29 2 0 1 2 0 0 0 0 0 0 0 0 8 0 13 9 17 18 0 0 0 0 0 7 20 0 2 54 
91 48 66 86 9 77 69 13 0 0 3 0 46 24 74 120 108 98 87 0 76 43 8 1 0 0 0 0 0 0 0 0 0 0 0 0 0 0 0 0 0 0 0 0 0 0 0 6 0 0 0 0 0 2 4 0 27 0 0 31 0 6 0 0 0 0 0 0 5 0 0 0 0 6 1 0 0 0 2 13 2 12 0 8 0 5 0 0 0 0 0 0 14 1 25 0 0 12 8 8 0 0 0 0 0 13 0 48 16 0 
122 121 66 44 0 83 32 0 0 0 28 0 4 10 0 1 4 0 0 0 0 0 0 0 0 0 0 0 28 12 0 0 0 0 0 0 0 0 0 0 0 0 0 0 0 0 0 10 17 9 58 14 0 1 0 0 0 0 0 0 0 83 0 0 0 0 0 0 8 0 0 0 0 13 0 0 0 1 0 21 19 8 3 0 0 0 0 0 0 0 0 0 24 0 0 31 0 20 14 0 0 0 0 0 0 0 0 37 0 0 
0 0 59 47 66 10 0 0 0 0 0 0 0 0 0 0 0 0 0 0 0 0 0 2 15 14 0 0 0 0 0 0 0 0 0 0 0 0 0 0 0 0 0 0 0 0 0 30 0 124 77 96 4 0 0 0 7 7 0 0 0 0 0 0 0 0 0 0 0 0 0 2 0 7 0 0 0 2 0 33 0 10 4 0 0 1 26 0 0 0 10 27 0 0 0 37 6 0 10 0 0 0 0 0 0 6 6 12 26 18 
89 139 76 38 14 50 0 0 0 0 0 0 0 0 8 0 0 0 0 11 5 7 0 35 35 26 1 0 0 0 0 0 0 0 0 0 0 0 0 0 0 0 0 29 20 8 0 33 39 1 112 103 21 0 0 0 35 31 19 0 0 13 0 2 0 0 0 0 10 0 0 3 0 29 9 10 0 0 68 0 15 0 0 0 0 11 2 0 0 0 10 18 3 0 0 18 38 0 31 0 0 0 0 0 0 17 58 8 0 0 
110 116 64 28 120 86 21 0 0 0 0 0 0 0 16 17 15 0 13 29 28 28 28 7 9 37 0 0 0 0 0 0 0 0 0 0 5 5 6 1 0 14 0 44 21 8 7 0 9 54 0 29 0 0 0 25 0 14 8 0 0 2 0 0 0 0 0 0 25 2 0 0 0 15 8 0 0 0 20 0 0 14 0 6 0 8 7 0 0 0 5 18 0 0 0 0 21 0 3 0 0 0 2 1 0 11 31 34 4 1 
101 114 62 67 108 80 115 0 0 13 0 0 40 23 16 8 28 0 9 7 8 0 6 2 9 0 0 41 0 0 0 20 4 0 8 0 3 1 0 9 5 0 0 26 1 0 19 0 32 56 40 0 14 6 0 8 0 0 25 9 0 0 0 0 0 12 1 19 20 0 0 0 0 15 0 0 1 0 0 18 4 35 9 0 0 20 20 0 0 0 28 24 0 0 0 0 14 21 0 31 0 0 7 0 0 10 49 35 0 10 
90 64 117 38 56 124 87 0 0 0 0 3 92 0 0 10 17 0 0 6 11 0 4 0 0 20 30 0 0 0 0 3 0 2 9 1 0 2 17 0 0 6 2 33 0 0 31 42 0 72 10 17 0 0 8 0 10 30 0 12 0 0 0 0 0 0 0 0 0 0 0 0 47 16 0 0 0 22 0 0 7 63 0 22 0 16 15 0 0 0 9 29 0 0 0 6 0 1 0 0 0 0 15 0 0 23 0 34 0 13 
18 66 86 4 108 73 83 0 0 0 0 0 24 2 3 13 0 0 0 4 14 0 0 0 0 35 0 0 0 0 0 0 0 16 0 16 0 2 0 0 1 10 0 68 22 0 20 48 0 0 14 0 0 0 25 6 0 0 0 7 0 0 0 0 0 0 0 0 5 0 0 8 0 0 0 14 11 17 51 0 0 0 103 0 0 26 5 0 0 0 11 12 0 0 0 24 20 0 0 0 0 16 16 0 0 22 0 23 20 48 
0 0 0 0 50 66 11 0 0 0 0 0 6 0 0 35 0 33 0 20 0 0 0 3 16 0 0 0 0 0 0 0 0 10 3 0 0 0 0 0 0 0 10 0 0 0 0 0 17 0 10 3 0 17 0 0 10 22 0 20 0 1 22 0 0 33 0 0 17 0 0 0 0 0 0 0 0 25 45 17 0 0 0 7 0 2 0 0 0 0 7 7 0 0 8 0 12 5 0 0 0 49 11 0 0 13 8 21 0 9 
0 0 0 0 11 31 106 0 0 0 0 15 0 0 32 0 0 3 17 0 0 0 17 0 0 0 5 0 0 4 0 0 0 0 3 7 40 0 0 0 11 0 0 0 0 0 0 0 0 0 0 28 0 9 36 18 24 36 23 0 0 0 0 0 90 13 0 0 28 17 0 4 23 0 0 0 0 0 42 71 0 0 0 0 12 11 12 0 0 0 20 20 0 0 0 40 21 0 0 0 0 31 6 0 0 0 40 23 0 3 
0 0 0 34 32 121 63 0 0 6 0 0 0 0 9 0 0 0 21 0 9 0 0 0 0 47 0 0 0 0 0 0 0 0 0 1 0 0 0 0 0 0 0 29 16 6 39 93 67 71 37 0 6 72 0 0 0 0 2 3 0 0 0 0 0 0 2 23 0 0 0 0 4 15 29 0 0 0 10 23 24 0 0 9 0 35 3 0 0 0 14 28 0 0 0 23 3 2 0 0 0 53 13 0 0 5 37 22 0 0 
0 0 0 28 39 85 98 0 5 0 9 0 40 0 20 0 0 0 26 0 0 0 0 0 0 15 0 0 0 5 2 0 0 0 1 0 2 0 0 0 0 0 0 19 63 32 41 12 15 0 1 51 6 0 0 0 13 5 0 0 0 0 0 0 0 0 0 0 0 0 0 0 0 0 0 0 0 0 0 8 18 0 0 11 0 0 0 0 0 0 9 2 0 0 10 0 7 11 0 0 0 42 15 0 0 0 56 16 47 0 
0 0 0 0 41 57 31 0 0 0 0 0 0 0 8 0 0 0 16 0 21 0 1 0 8 25 0 0 0 16 12 0 0 0 0 0 0 7 0 0 0 0 0 0 8 27 0 0 0 59 42 0 0 0 0 0 24 0 10 0 0 0 0 0 0 0 0 9 18 0 0 0 0 0 0 0 0 0 0 7 18 9 0 0 0 0 32 0 0 0 18 16 9 39 6 44 14 0 0 0 2 68 13 0 0 0 49 6 6 0 
0 0 0 6 28 40 47 0 0 0 0 0 0 0 0 0 0 0 13 0 30 0 0 0 0 0 0 0 0 11 1 0 0 0 0 0 28 0 0 15 0 0 0 0 0 0 0 14 8 0 0 3 0 0 12 0 9 0 30 31 34 0 0 32 0 0 22 13 9 0 0 0 0 0 0 0 0 0 0 4 10 0 0 0 0 0 0 19 0 0 0 3 19 0 0 10 0 3 0 0 0 51 19 0 0 0 6 0 0 0 
0 0 0 3 81 82 35 0 0 0 0 0 0 34 4 0 14 14 5 0 19 0 0 0 0 24 0 0 0 18 0 0 3 0 0 3 10 0 0 0 0 0 0 0 37 51 21 0 0 0 0 0 0 0 5 3 9 13 6 0 0 0 18 0 1 4 14 32 11 0 12 0 0 0 0 0 0 0 0 8 0 5 3 0 0 0 0 25 0 20 22 0 0 0 0 0 0 3 0 0 7 67 14 0 0 0 58 14 0 0 
0 0 0 22 93 69 0 0 9 0 3 15 0 0 0 0 0 0 1 0 0 0 0 0 0 11 0 0 1 24 7 0 20 0 0 0 31 15 0 0 0 2 50 17 0 0 0 9 9 8 12 9 10 0 0 9 3 8 17 0 36 0 0 0 0 0 0 0 0 0 0 31 37 0 0 0 0 0 1 0 5 9 0 0 0 0 0 3 0 0 0 0 0 0 5 3 7 0 0 0 0 15 0 0 0 0 39 0 0 24 
0 0 0 0 106 50 8 0 0 0 0 37 0 0 0 0 4 22 22 0 0 0 0 8 48 0 0 0 0 7 0 0 9 0 37 30 0 0 0 54 54 22 0 0 0 15 18 0 0 0 0 17 0 0 0 0 0 0 0 0 0 0 0 0 0 0 0 0 0 0 0 0 0 0 14 0 0 0 0 17 11 0 0 0 3 0 0 0 0 0 0 0 5 1 0 49 5 2 0 0 0 0 14 0 0 0 37 0 6 21 
0 0 0 26 31 0 0 0 0 0 0 9 0 0 0 0 0 60 66 0 0 0 0 0 0 22 0 0 7 4 0 4 63 16 0 0 11 3 84 23 0 0 0 0 0 0 0 0 0 0 0 0 10 3 0 0 0 0 0 7 0 0 0 0 0 0 0 16 50 0 0 0 0 0 0 0 0 0 0 0 0 0 0 0 6 0 0 0 7 0 12 6 0 25 0 46 19 0 0 0 5 48 0 0 17 0 0 0 0 0 
0 0 0 23 62 37 0 0 9 5 0 36 0 0 0 0 27 0 0 0 23 8 6 0 0 18 0 0 10 18 0 0 7 0 33 23 40 16 0 0 6 14 0 3 0 3 8 25 0 0 0 1 0 0 0 14 0 0 0 0 2 0 0 0 0 0 0 0 0 0 0 0 0 0 0 0 0 0 0 23 5 0 2 2 0 0 0 0 0 0 0 0 0 0 0 29 15 0 0 0 0 0 0 0 0 1 0 0 0 6 
0 0 0 83 44 23 0 0 0 0 7 3 0 0 0 0 0 4 0 0 5 18 15 9 6 11 0 0 0 0 0 39 0 0 0 0 0 0 0 0 0 0 0 0 0 0 0 0 0 0 0 2 0 0 0 0 0 0 0 3 9 0 0 0 0 0 0 7 0 0 0 0 0 0 0 0 0 0 0 4 29 13 0 2 14 1 0 0 0 14 0 0 0 0 0 32 0 0 0 0 0 75 20 0 0 7 0 6 38 27 
0 0 0 86 97 47 0 0 0 3 0 5 0 0 25 63 0 0 13 29 20 19 25 10 72 3 0 0 1 0 72 0 0 0 0 0 0 0 4 0 0 0 0 11 7 44 22 0 0 0 0 0 0 0 0 0 0 20 0 0 10 0 0 0 0 1 0 0 0 0 0 0 0 0 1 0 0 16 0 32 0 0 0 0 0 1 0 0 0 71 0 26 28 11 17 0 13 0 0 0 3 70 2 0 0 0 0 4 1 0 
0 0 0 141 93 32 0 0 0 0 2 1 7 16 176 104 0 0 26 23 30 39 32 36 30 6 0 0 0 49 4 13 0 0 0 0 24 0 19 39 15 21 19 0 0 33 21 10 3 0 11 12 0 0 0 0 0 0 32 0 5 0 25 29 2 0 0 0 7 0 0 0 3 0 0 0 0 14 19 0 5 1 0 0 0 5 0 0 0 24 53 0 0 0 0 54 0 0 0 0 0 58 5 0 0 0 2 2 0 0 
0 0 0 98 119 20 0 0 29 16 24 21 6 0 0 0 5 2 0 46 31 33 36 25 21 7 0 0 62 0 0 0 0 0 0 0 0 0 0 0 0 0 26 13 0 0 3 8 6 0 0 12 0 0 0 0 0 0 0 0 0 0 0 0 0 0 0 0 0 0 0 0 0 0 0 0 0 0 21 23 9 0 13 0 0 25 0 0 0 0 91 18 0 0 0 77 5 0 0 0 58 46 7 0 0 0 26 0 0 0 
0 0 2 102 89 3 0 0 1 11 8 19 0 0 0 0 13 0 0 0 8 4 12 2 27 0 0 67 26 16 30 1 0 0 0 8 0 3 0 2 0 0 11 0 0 24 34 1 0 13 0 0 7 0 0 9 0 0 0 0 71 0 0 0 0 0 0 0 0 0 0 0 0 0 3 0 0 25 22 17 12 0 3 0 0 33 0 0 0 0 0 33 0 0 0 32 6 0 0 0 23 34 3 0 0 0 1 0 0 10 
0 0 5 101 93 39 0 0 0 0 1 3 9 0 0 0 26 1 0 12 0 8 14 1 1 108 67 0 0 0 0 0 0 0 0 0 23 0 0 42 0 0 32 11 0 32 17 0 2 0 0 0 0 0 0 0 0 0 0 0 18 0 0 1 0 0 0 0 0 0 0 0 0 6 0 0 7 25 20 10 15 3 0 0 0 6 0 0 0 0 0 8 37 0 0 46 0 0 0 0 0 0 0 0 0 0 18 5 0 13 
22 15 0 36 19 0 0 0 0 0 0 19 5 0 0 12 14 16 0 23 3 0 0 42 50 0 0 0 0 0 0 0 0 0 24 0 0 0 0 0 8 0 14 2 0 35 30 13 0 0 0 0 0 0 1 0 0 0 0 0 0 0 0 0 4 0 0 0 0 0 0 0 0 14 4 0 1 12 36 13 24 0 16 0 1 24 0 0 0 0 0 0 71 0 0 21 0 0 0 0 41 43 0 0 0 0 21 0 0 5 
0 0 5 0 45 33 0 0 0 0 6 5 0 7 20 0 0 0 0 7 1 0 57 19 0 0 0 0 0 0 0 0 0 12 0 0 14 0 0 0 18 0 7 4 33 11 16 0 0 0 0 9 0 0 0 0 0 0 0 1 0 0 0 0 0 0 0 0 1 0 0 2 6 1 0 0 0 28 31 23 19 1 4 0 7 0 0 0 0 5 12 0 0 35 0 30 0 0 0 0 59 45 6 0 0 1 50 3 0 1 
0 0 20 43 0 11 0 0 0 1 23 5 0 0 0 0 0 22 0 9 0 69 0 0 0 0 0 0 0 12 0 0 0 38 9 0 0 0 0 0 27 0 16 0 30 29 21 5 0 0 0 20 8 0 0 0 67 37 0 0 0 0 0 0 0 0 0 0 3 0 0 0 0 4 0 0 5 33 40 26 28 0 12 0 11 6 0 0 0 0 5 6 0 2 32 26 0 0 0 13 42 44 0 0 0 7 22 7 21 21 
0 0 3 52 1 17 0 75 100 6 24 10 0 0 0 0 10 24 0 0 35 0 0 0 3 0 0 0 0 5 0 0 0 32 15 0 0 0 0 0 0 0 0 0 1 6 14 7 0 0 2 0 0 7 12 0 161 113 0 0 0 0 0 0 0 0 0 0 0 0 0 0 2 0 6 0 0 1 16 21 24 0 13 0 9 26 0 0 0 4 20 0 0 0 49 54 0 0 0 0 35 38 0 0 0 3 55 14 0 56 
0 0 0 0 0 0 0 0 32 49 24 10 0 0 0 0 7 28 0 0 0 0 0 18 60 0 0 0 0 9 212 0 2 28 0 22 17 0 0 0 0 0 23 0 13 17 16 0 0 0 2 0 0 0 0 46 2 0 45 0 0 0 0 0 0 0 0 0 0 0 0 0 0 3 0 0 3 21 16 8 0 0 0 0 0 0 0 0 0 0 20 3 0 0 0 41 0 0 0 55 30 22 0 0 0 0 76 0 0 58 
0 0 71 120 124 31 0 39 15 0 45 29 0 0 0 0 6 18 17 0 0 0 16 28 45 0 0 0 0 15 0 0 0 0 1 16 0 0 0 0 0 0 33 0 8 26 23 2 0 3 12 0 0 0 53 213 0 92 166 4 0 0 0 0 0 0 0 0 0 0 0 0 0 9 4 0 3 18 23 21 0 0 0 0 10 4 0 0 0 0 23 2 0 0 0 6 0 0 0 0 13 0 0 0 0 3 70 1 0 54 
0 0 71 99 28 0 0 16 42 13 57 0 0 0 0 0 15 79 0 0 0 11 17 2 42 0 0 0 125 198 25 212 29 0 4 11 17 0 35 28 10 0 24 0 3 52 18 5 0 4 8 0 0 0 0 0 0 0 0 0 0 0 0 0 0 0 0 0 0 0 0 0 0 9 4 0 5 8 24 0 2 0 7 0 24 5 0 0 0 9 28 0 0 4 0 0 0 0 0 15 23 0 0 0 0 6 43 6 0 0 
0 0 0 0 0 0 0 25 25 0 0 0 0 0 27 114 118 1 0 0 25 0 0 0 57 0 0 0 71 110 0 35 0 0 0 19 9 0 5 0 0 0 4 0 15 31 32 0 0 0 0 0 0 0 0 0 0 0 0 1 0 0 0 0 0 0 0 0 0 0 0 0 0 18 8 0 2 15 24 0 13 0 13 12 38 18 0 0 0 0 3 0 0 23 0 0 0 0 12 14 44 0 0 0 0 0 46 19 0 87 
0 0 75 35 22 0 0 3 13 0 15 15 0 0 0 12 0 0 0 44 12 0 0 20 40 0 0 0 12 0 0 0 0 3 0 0 0 0 6 0 15 11 0 4 0 3 0 0 0 0 5 35 0 0 0 0 0 0 8 35 0 0 0 0 26 0 0 9 87 13 0 0 0 0 0 0 1 24 0 24 15 0 0 0 0 3 0 0 0 13 5 19 18 19 0 0 0 0 11 8 0 0 0 0 0 0 27 0 1 0 
0 0 83 110 109 6 0 0 5 0 0 0 0 0 0 0 0 14 0 37 10 7 9 2 34 0 0 0 11 18 0 31 38 30 25 24 31 13 0 30 39 19 17 0 0 8 0 0 0 28 18 33 0 3 0 0 0 0 27 10 0 0 0 45 31 0 0 0 5 26 15 0 0 3 28 28 27 21 23 16 41 33 2 0 0 0 0 0 0 0 0 0 0 0 0 0 0 0 14 4 0 0 0 0 1 0 0 1 2 6 
45 13 0 12 30 0 0 0 6 8 0 6 0 0 0 0 37 19 0 32 7 6 18 38 23 0 0 0 19 0 12 20 17 7 9 12 14 50 30 0 0 0 13 0 0 0 0 0 0 0 0 0 0 0 19 0 0 0 0 0 0 0 17 0 0 0 0 67 58 26 0 0 0 0 17 0 13 0 25 14 0 2 0 3 3 0 0 0 10 7 0 10 0 11 0 0 0 10 26 0 0 0 0 30 0 0 29 27 22 28 
0 0 30 0 0 0 0 3 4 6 6 60 0 0 0 0 46 25 38 17 3 6 6 9 14 2 0 3 12 0 0 0 0 0 0 0 62 0 0 0 0 15 11 0 0 0 13 0 18 54 78 0 0 0 0 6 11 19 118 90 0 0 0 40 0 99 85 0 40 69 45 25 27 28 4 9 0 17 0 4 25 2 2 0 1 12 10 0 12 13 33 27 33 64 0 0 0 13 0 0 0 0 0 0 0 0 45 38 34 33 
54 0 0 44 27 0 0 0 0 0 3 0 0 0 0 0 0 0 0 0 9 2 8 30 8 3 28 0 0 0 0 0 1 0 18 32 0 0 0 42 89 86 83 144 39 11 0 126 93 46 0 0 0 0 53 70 0 73 58 46 0 0 0 0 120 87 0 8 0 0 0 10 17 29 14 0 0 10 0 0 0 0 0 0 0 0 0 0 0 0 0 0 0 0 0 0 0 0 10 0 0 0 0 0 0 0 57 0 0 0 
0 2 27 0 0 0 0 35 21 19 20 5 0 0 0 0 33 23 20 22 28 34 31 42 40 28 7 16 19 0 0 12 14 65 3 0 0 0 85 109 53 112 95 75 72 108 63 0 0 36 0 0 0 84 129 65 100 86 150 63 0 1 11 74 54 31 0 4 9 11 25 37 20 0 0 13 8 10 0 0 0 0 0 0 0 0 0 0 0 0 0 0 0 0 0 0 0 0 0 0 0 0 0 0 0 0 53 0 0 8 
0 0 0 33 0 0 0 0 47 13 10 20 0 0 0 0 39 31 28 32 8 10 5 13 0 5 0 7 58 51 78 96 32 0 0 0 8 105 84 84 75 66 47 87 99 86 90 25 0 0 0 53 135 103 50 0 0 0 0 74 0 0 0 0 21 1 0 12 0 0 0 0 0 0 4 0 0 10 0 0 0 0 0 0 0 0 0 0 0 0 2 0 0 0 0 0 0 0 0 0 0 0 0 0 0 0 0 16 0 44 
0 0 0 0 24 0 0 0 0 43 21 0 0 0 0 0 31 0 0 1 0 0 0 0 42 48 2 0 0 0 0 0 0 0 0 49 102 62 78 102 46 83 83 91 58 28 0 0 0 9 47 0 105 101 44 0 0 0 78 36 0 0 0 18 5 3 0 0 1 0 2 0 0 0 0 0 5 0 0 20 7 5 40 135 146 0 0 0 0 0 4 0 0 2 0 0 0 0 0 0 0 0 0 0 0 0 59 0 0 42 
0 0 0 0 0 0 0 9 27 0 11 44 0 0 0 0 3 0 0 5 0 0 15 112 65 0 2 0 0 3 9 0 0 28 90 47 42 85 42 75 59 77 89 31 20 0 0 0 9 101 92 84 0 71 86 4 1 3 0 80 0 0 0 18 7 0 0 0 1 1 46 71 0 0 0 2 0 0 0 0 0 12 2 93 121 0 0 0 0 0 5 0 0 10 0 0 0 0 9 0 0 0 0 0 0 0 64 0 0 38 
0 0 0 9 0 0 0 20 37 0 0 0 10 0 0 14 19 8 25 4 15 102 86 0 0 0 0 0 0 5 8 0 53 76 75 85 67 93 55 69 58 66 31 0 0 0 0 59 101 66 91 90 127 0 0 52 31 7 87 56 0 0 0 0 0 8 0 0 0 6 64 34 0 0 4 0 0 0 0 0 0 0 29 55 55 0 0 0 0 0 9 0 0 1 0 0 0 0 83 0 0 0 0 0 0 0 53 0 0 28 
74 54 86 126 136 0 0 0 14 0 0 0 0 0 0 0 30 0 0 100 100 0 0 0 0 0 0 0 36 46 41 48 73 71 76 81 56 79 68 59 28 2 0 0 0 9 85 57 81 87 84 85 78 104 47 0 0 19 30 20 0 0 0 0 13 12 0 0 8 0 69 76 0 0 0 0 0 0 0 0 0 0 0 0 1 0 0 0 0 0 21 0 0 0 45 0 0 0 0 0 0 0 0 0 0 0 48 0 0 32 
120 127 136 122 23 0 9 0 0 4 0 0 0 0 0 0 0 68 113 0 0 0 0 1 11 0 42 104 103 98 102 98 93 91 93 88 92 84 92 52 90 105 110 99 110 106 97 101 88 85 88 90 90 85 66 59 53 0 36 110 2 0 0 3 0 0 0 0 8 0 45 70 0 28 0 0 0 0 0 0 0 0 0 0 4 0 0 0 0 0 0 0 0 0 0 0 0 0 0 0 0 0 0 0 0 0 47 0 0 47 
125 110 33 0 92 0 30 0 0 0 0 0 0 0 0 38 129 35 0 0 0 9 3 15 54 106 92 91 89 87 87 85 90 81 88 86 75 83 85 91 90 85 80 91 91 86 90 90 91 93 87 88 93 97 106 99 109 132 4 0 0 0 0 100 131 78 10 10 32 28 5 0 0 0 0 0 0 0 0 0 0 0 0 0 13 0 0 5 0 21 33 81 53 66 0 0 0 0 0 0 0 0 0 0 0 0 47 50 54 65 
24 26 69 36 30 0 0 0 0 0 37 0 0 0 0 61 0 0 0 0 28 0 40 96 93 87 94 87 82 85 82 88 80 85 83 87 85 81 85 85 80 91 90 85 82 85 87 82 82 87 85 81 86 89 91 92 95 100 128 12 0 0 0 49 118 96 26 50 64 87 53 87 48 72 107 120 116 101 75 59 32 17 1 0 0 0 25 0 0 0 0 27 0 0 0 0 0 0 0 0 0 0 0 0 0 0 42 59 3 0 
60 88 17 21 45 0 0 9 0 0 0 0 0 0 0 0 0 0 28 77 62 90 92 90 88 86 84 84 83 82 84 83 79 84 80 81 80 84 82 80 82 85 84 83 84 82 84 81 83 81 81 79 76 88 91 89 95 95 102 93 0 0 0 46 54 48 39 26 6 70 2 49 38 1 28 81 102 110 112 116 119 123 130 135 143 126 125 131 142 132 110 119 123 111 0 0 0 0 0 0 0 0 0 0 0 38 0 0 0 0 
1 41 20 7 0 0 0 0 0 0 0 41 73 0 0 0 31 69 88 83 91 87 89 87 86 84 82 82 81 80 80 76 79 75 81 74 79 79 76 84 81 79 83 91 81 85 83 81 77 83 85 85 89 79 88 84 93 93 99 106 0 0 0 63 98 37 29 55 22 48 83 84 64 75 81 87 100 99 106 97 103 107 107 112 102 113 114 111 109 118 123 130 139 132 0 0 0 0 0 0 0 0 7 0 16 3 0 65 21 30 
53 9 0 0 0 0 0 0 1 0 0 0 29 59 0 74 83 87 88 93 84 91 84 83 82 81 80 79 79 79 78 77 77 79 78 78 78 80 83 84 90 88 97 86 81 89 77 83 83 86 83 80 84 82 87 87 83 96 96 80 0 0 0 78 109 84 62 57 62 44 91 96 101 91 98 96 97 96 96 89 90 87 99 105 101 82 94 102 120 109 87 52 9 10 0 0 0 0 0 0 0 0 0 0 67 1 92 121 116 116 
0 0 0 0 0 0 0 0 6 0 0 0 13 0 19 95 90 85 92 82 90 83 81 81 81 79 78 78 78 79 75 77 75 81 76 79 76 80 77 89 26 0 6 53 74 78 85 57 54 66 73 80 83 83 84 81 89 87 94 78 0 0 0 93 97 96 101 100 92 30 6 87 90 85 95 90 83 96 93 74 45 18 31 16 49 79 80 83 51 54 14 0 41 0 0 0 0 0 0 0 0 0 0 0 0 3 71 95 96 93 
0 0 0 0 0 0 0 0 0 0 0 0 0 0 0 100 89 93 85 86 82 86 81 81 80 79 78 77 78 78 75 75 80 77 80 75 79 80 87 32 34 53 40 48 23 47 48 29 4 22 64 78 78 83 80 80 89 88 98 68 0 0 0 81 101 106 99 96 96 43 108 99 84 81 97 91 102 78 57 45 13 30 20 25 53 0 61 63 62 56 53 27 0 0 0 0 0 0 0 0 0 0 0 0 0 0 0 59 79 81 
0 0 0 4 0 0 0 27 37 0 0 0 0 0 38 99 87 88 86 82 82 79 81 80 80 78 77 76 76 76 75 76 79 78 79 77 79 81 70 62 89 76 47 54 78 72 9 0 26 77 76 87 82 80 80 87 80 97 101 46 0 0 0 93 102 95 104 92 99 46 102 87 91 96 87 89 76 44 28 20 32 3 31 27 11 50 37 43 53 20 0 0 0 0 0 0 0 0 0 0 0 0 0 0 0 0 0 55 76 70 
34 35 8 0 26 52 39 124 129 153 0 0 0 0 72 92 93 89 88 80 83 79 78 77 76 76 76 76 75 75 74 76 73 78 73 79 76 78 82 84 80 88 89 86 81 86 83 91 87 86 85 81 83 84 86 85 86 89 102 48 0 0 0 87 106 97 97 97 99 44 102 88 88 87 89 78 69 3 1 17 0 0 0 0 0 0 27 3 0 0 0 17 58 51 0 0 0 0 82 79 69 89 93 90 75 95 93 79 76 81 
25 33 9 0 24 39 32 129 116 136 0 0 0 0 93 85 82 84 78 78 75 79 74 73 73 73 75 76 76 75 78 76 77 74 79 78 80 79 81 79 81 87 84 85 91 82 85 83 87 83 82 84 79 82 87 89 88 96 105 17 0 0 0 90 99 96 88 92 93 39 99 86 90 88 89 76 68 61 19 0 5 16 31 37 93 95 50 34 69 64 90 92 112 53 0 0 0 0 105 111 102 98 93 89 93 86 80 78 83 75 
