P2
110 110
255
91 81 72 75 76 74 75 71 71 71 68 70 73 72 71 69 72 70 73 69 71 70 75 72 72 75 75 72 71 74 74 74 74 74 74 74 75 76 71 73 76 78 68 72 74 75 73 74 74 73 72 73 74 73 74 72 72 73 71 70 73 73 72 73 69 67 69 69 68 71 68 70 72 72 68 68 70 73 71 68 71 68 74 69 72 70 73 69 71 73 70 69 70 68 69 71 71 70 69 69 71 72 69 70 70 69 69 69 69 68 
77 71 91 81 95 93 51 0 64 71 61 41 64 4 48 21 15 100 84 83 96 79 54 105 59 36 2 29 98 62 51 74 96 31 73 57 55 29 63 53 68 14 68 52 31 89 47 70 78 76 79 52 73 62 63 41 76 77 56 28 33 46 74 64 82 92 61 75 75 70 78 72 70 73 71 73 66 74 71 73 72 75 72 74 72 74 72 75 71 73 71 74 72 75 71 76 74 69 77 72 70 75 72 73 74 74 74 73 72 72 
63 66 63 65 65 68 65 64 63 65 65 65 65 66 66 64 64 65 68 67 66 65 72 68 65 66 67 68 69 69 67 68 69 68 68 69 69 68 73 75 69 70 71 73 75 71 76 80 62 80 72 55 65 88 72 72 72 58 77 69 87 77 39 86 62 89 80 105 70 68 65 11 0 64 62 48 22 0 38 58 26 2 57 84 99 107 69 77 40 0 0 0 0 84 127 53 75 79 94 35 50 35 54 29 99 53 46 55 21 58 
71 69 71 70 69 72 71 66 67 72 72 69 70 71 70 71 71 71 71 71 71 71 71 68 70 72 69 70 73 70 70 69 71 70 70 68 67 68 71 68 72 69 71 68 71 69 69 68 68 69 69 67 67 69 60 60 61 61 60 61 61 60 62 62 62 65 63 66 65 67 64 65 63 67 64 67 65 67 61 66 68 68 63 64 66 70 68 68 68 69 69 68 68 69 68 69 69 69 69 70 70 69 72 69 70 68 72 73 72 76 
72 44 81 81 61 72 69 79 73 71 75 69 72 72 72 71 73 70 74 71 73 72 72 73 75 71 75 71 72 72 74 71 74 72 72 71 75 73 73 73 74 75 75 74 74 73 72 74 74 74 71 73 73 74 71 73 73 73 74 72 71 72 69 74 70 67 73 71 68 74 70 68 72 69 71 69 72 69 70 71 72 73 72 71 71 71 69 73 70 68 73 71 69 73 71 68 73 70 69 70 65 68 70 67 70 69 71 68 70 66 
58 83 98 91 86 5 0 0 0 0 0 0 2 0 0 0 0 23 74 81 91 103 104 105 0 0 0 0 0 0 101 85 68 80 98 68 88 71 104 20 67 77 33 21 60 59 82 71 71 32 84 53 84 15 47 70 103 21 66 92 40 64 67 55 59 49 89 89 47 65 80 79 76 73 75 68 73 74 73 71 71 70 73 71 73 71 71 74 71 74 72 74 71 74 73 70 73 71 72 70 74 72 72 73 73 73 73 73 72 72 
62 65 63 65 63 63 65 64 66 64 66 64 65 64 67 67 63 66 66 71 68 66 67 67 66 66 68 68 68 66 69 69 68 67 68 70 71 71 74 67 79 71 73 76 62 80 64 85 59 89 59 45 105 61 72 90 61 111 44 46 66 57 94 39 79 68 110 75 119 70 0 0 0 0 0 0 0 0 0 0 0 0 103 86 98 88 73 104 0 0 0 0 0 17 113 56 104 40 91 74 84 70 54 51 11 36 96 13 55 98 
72 73 71 70 71 71 73 70 69 74 71 70 69 71 71 71 70 70 71 71 71 71 68 73 69 67 72 70 67 71 69 71 68 70 70 69 72 71 71 71 69 72 67 71 70 70 71 71 69 67 69 71 68 64 59 60 60 62 62 62 63 62 65 65 62 66 64 66 64 65 64 63 66 63 66 64 67 65 62 67 70 70 64 65 67 71 66 67 68 67 67 68 69 69 68 69 70 69 70 71 71 71 73 69 69 72 76 79 66 77 
37 85 74 57 65 76 81 71 78 75 73 74 72 72 72 73 70 73 70 73 71 72 73 73 74 70 74 70 72 73 72 73 74 72 77 73 72 73 71 71 72 73 73 74 75 75 73 71 72 71 74 72 73 73 74 73 70 71 73 72 70 72 72 68 70 73 70 70 72 72 71 70 69 73 68 71 69 70 71 71 71 71 72 71 70 68 71 67 70 72 68 70 73 70 68 72 68 72 72 70 73 69 73 69 72 69 71 69 72 70 
101 88 93 64 0 0 0 1 0 0 0 22 15 64 0 34 0 0 12 66 70 85 51 123 0 0 0 0 0 83 106 46 87 75 76 44 40 65 48 82 32 49 55 18 113 84 86 48 50 97 72 47 47 40 40 69 35 70 63 40 59 73 81 44 93 93 50 74 66 61 76 76 75 78 76 71 69 76 72 73 73 73 72 72 72 72 72 73 74 71 75 71 72 72 72 70 73 72 73 72 74 71 72 72 72 72 73 74 75 75 
62 65 63 65 64 65 65 67 65 66 63 67 66 66 66 63 68 67 71 66 68 69 69 68 66 66 69 72 71 68 68 69 69 69 69 71 72 72 69 76 71 81 79 81 60 66 74 77 77 93 83 43 15 65 32 69 72 109 49 41 0 0 0 0 0 50 0 2 18 0 0 4 14 1 12 8 10 0 32 3 106 0 0 33 86 35 78 151 0 0 0 0 0 107 86 84 29 55 38 34 38 61 59 94 48 13 135 9 88 74 
71 72 77 71 66 71 71 68 73 72 72 68 72 73 72 72 72 71 70 70 72 73 71 70 70 71 70 70 71 70 75 72 75 70 69 73 68 69 72 70 68 72 69 72 68 66 70 67 65 66 68 69 69 68 61 57 59 61 60 65 67 64 62 64 65 65 64 65 66 68 66 65 69 65 68 65 68 65 69 69 68 67 66 68 68 67 67 67 69 70 69 68 69 70 69 68 69 69 67 76 69 72 76 65 77 73 77 87 67 60 
66 33 79 62 72 51 75 84 82 77 77 75 71 83 72 72 77 77 77 82 72 74 74 75 75 73 72 71 71 71 68 71 73 75 73 72 71 72 75 72 74 71 71 74 71 73 72 73 71 71 75 75 72 73 74 74 73 71 71 72 72 70 71 73 73 72 72 71 71 73 69 68 71 69 73 71 72 70 72 69 70 68 74 72 73 69 70 69 69 72 74 73 72 72 73 71 70 71 72 71 71 74 72 68 67 71 71 68 67 70 
0 15 0 5 0 2 15 3 12 7 12 27 14 13 2 2 0 12 4 15 12 96 84 121 0 0 0 0 0 124 107 75 98 112 0 77 93 86 19 46 83 0 90 1 93 40 79 97 117 30 61 77 0 56 102 66 72 61 55 32 32 48 58 86 57 79 66 80 64 65 74 89 76 79 75 78 77 75 72 80 70 77 76 75 78 49 76 75 75 74 74 73 73 73 72 72 72 72 71 71 72 72 74 73 74 72 72 73 72 73 
65 65 66 67 67 67 67 67 68 66 68 68 68 67 65 66 67 67 67 69 69 68 68 67 66 67 69 69 69 70 72 69 71 72 73 71 70 73 72 85 54 82 82 70 85 47 76 42 80 91 45 84 22 27 35 62 58 56 76 86 0 0 0 10 4 0 8 0 4 5 5 5 5 10 26 0 35 10 10 0 0 0 11 20 3 0 68 134 0 0 0 0 0 107 105 91 72 95 82 4 107 75 68 47 64 11 21 48 23 92 
69 69 71 71 70 71 72 73 72 73 71 71 70 70 69 73 72 74 69 71 70 73 73 71 70 71 72 72 71 71 71 72 72 71 71 72 71 71 72 71 70 70 70 69 68 69 67 68 68 68 68 69 68 66 60 61 61 62 63 63 63 63 64 65 66 66 66 67 67 67 67 68 69 68 68 67 68 68 66 67 67 67 68 69 68 67 68 67 67 69 70 70 70 70 72 71 70 72 71 70 72 73 81 78 55 82 89 55 74 54 
92 48 26 41 90 53 78 79 82 78 87 66 91 73 86 86 83 80 80 83 83 62 82 78 76 74 74 74 73 71 74 74 73 72 72 72 72 71 71 73 69 71 71 69 73 70 71 70 73 74 70 70 72 70 71 72 72 71 71 71 72 72 69 71 71 70 71 71 70 72 67 71 71 75 71 73 70 71 71 70 71 69 74 71 73 71 71 71 71 72 72 72 72 72 70 72 72 71 71 72 72 70 70 70 70 69 69 70 70 69 
0 0 0 0 0 0 39 5 2 28 3 33 5 9 10 0 0 0 0 0 13 5 46 0 0 0 0 0 0 97 34 99 96 70 82 0 86 6 48 127 47 57 0 111 74 89 104 115 106 52 129 8 91 104 63 69 77 35 59 37 41 33 70 114 37 24 45 90 54 36 71 76 87 88 82 64 85 86 90 91 86 86 90 91 85 71 85 81 77 76 75 75 74 72 74 74 73 73 72 72 71 72 71 74 70 72 72 70 73 71 
66 66 65 64 65 67 65 69 69 70 67 68 66 67 68 68 67 66 68 69 70 69 66 67 69 70 70 69 69 71 68 73 72 75 73 66 75 74 84 81 61 46 92 66 84 86 59 17 62 25 41 70 40 24 98 10 91 0 0 0 2 0 0 0 0 0 0 0 0 0 0 68 0 10 2 27 0 0 0 0 0 0 9 0 7 17 38 0 0 0 0 0 0 85 136 81 62 55 117 97 0 77 0 86 106 46 0 129 73 95 
70 70 72 72 70 71 71 72 71 72 71 72 71 72 70 72 70 73 69 72 70 72 69 72 74 73 71 70 71 71 71 72 71 70 70 70 71 70 70 71 70 69 68 68 68 68 67 67 67 67 68 69 67 66 60 63 62 63 65 64 62 64 62 64 66 67 67 67 68 69 67 69 68 70 67 70 67 67 71 69 68 67 69 70 69 68 68 68 68 69 70 69 71 72 71 71 72 73 78 59 76 77 82 66 70 53 78 58 65 86 
0 12 27 29 44 62 87 85 89 86 89 58 65 72 43 47 28 8 32 56 26 52 88 84 78 77 75 74 74 73 72 71 72 72 72 72 72 71 71 71 72 71 72 73 71 72 68 71 73 72 71 69 70 73 70 70 71 70 71 73 73 73 67 71 72 71 70 68 69 73 71 70 71 70 72 71 72 72 69 72 71 73 69 71 70 72 70 72 72 71 71 71 72 72 71 71 71 71 71 70 69 70 70 70 70 70 69 67 67 68 
0 0 0 0 0 0 0 0 31 17 10 0 5 4 0 0 0 0 0 0 1 0 82 0 0 0 0 0 0 17 103 114 90 97 106 71 59 0 67 13 78 91 0 102 63 72 122 37 98 0 106 0 46 80 56 52 0 62 90 36 63 45 57 57 59 62 38 43 78 68 69 91 88 91 90 73 57 43 34 56 62 68 56 59 52 65 91 85 80 78 77 74 73 74 70 70 72 74 75 74 72 70 73 71 74 72 72 75 71 73 
70 67 67 66 60 74 68 70 59 70 69 78 62 70 69 71 66 69 73 73 70 72 68 72 68 73 76 69 75 66 76 67 78 76 78 62 78 81 80 87 62 53 53 72 44 79 51 103 19 20 35 22 34 37 53 0 0 2 1 0 0 0 0 0 0 0 3 0 0 0 0 0 0 21 9 0 4 0 0 0 0 0 0 0 0 0 0 0 0 0 0 0 0 0 78 38 74 45 67 45 118 78 13 99 43 76 0 107 79 108 
74 71 74 71 73 70 75 73 71 72 72 71 71 72 68 70 72 73 73 73 72 71 70 72 73 72 72 72 71 69 73 72 70 69 70 70 71 71 70 70 68 72 69 70 67 69 66 67 66 65 66 67 66 65 60 63 64 64 66 65 63 65 66 67 63 65 67 73 63 65 73 69 46 71 72 71 59 73 69 76 74 71 70 72 72 68 72 73 70 74 75 74 70 61 74 68 75 78 83 64 83 78 88 90 84 44 91 48 38 59 
84 65 65 84 78 103 97 91 92 95 99 78 66 61 66 91 64 61 17 24 28 0 108 87 83 81 82 73 73 78 72 74 73 72 74 73 70 72 71 72 72 72 72 72 72 73 72 74 72 72 69 73 71 70 71 71 72 72 73 73 73 73 73 73 74 71 71 71 71 70 71 72 73 72 71 72 72 70 71 72 73 72 72 73 73 73 71 72 73 72 72 72 72 70 71 71 72 73 73 71 69 67 69 72 70 70 66 71 69 67 
0 34 19 0 0 27 34 0 0 2 2 0 23 0 16 0 0 0 0 1 0 0 0 0 0 0 0 0 0 0 0 81 101 69 66 83 54 79 61 49 79 68 0 68 91 87 83 75 0 16 99 58 44 8 56 52 58 48 60 35 55 97 66 70 95 45 61 82 97 92 86 89 94 96 107 59 14 16 0 0 0 0 0 0 11 0 77 95 87 80 82 83 78 74 70 73 73 72 73 72 70 70 71 71 72 72 72 72 72 73 
69 70 64 67 76 65 49 70 37 87 65 60 73 77 80 66 79 68 74 69 72 74 73 73 74 71 76 80 62 67 60 80 51 76 73 49 88 78 87 82 88 90 45 49 48 28 20 69 88 25 68 65 67 0 0 0 0 1 26 0 0 0 0 0 0 18 5 0 0 10 0 0 0 4 3 13 31 0 0 0 0 0 8 7 0 0 0 0 0 0 0 0 0 0 77 119 64 71 70 58 27 67 70 0 92 93 0 39 76 101 
70 72 69 73 72 74 70 73 73 70 69 71 73 72 69 71 72 72 71 72 72 71 72 72 72 72 72 72 73 72 70 70 71 72 72 72 71 70 72 70 68 70 69 68 68 70 66 67 67 68 68 68 69 70 64 63 63 65 65 66 67 67 66 71 70 73 64 55 61 64 59 39 61 83 54 55 83 67 71 57 81 62 78 77 74 69 73 73 74 71 81 79 54 55 67 91 43 71 71 52 84 70 93 64 83 95 76 35 50 22 
56 66 47 62 84 107 89 90 87 94 90 0 0 21 11 0 0 3 56 94 95 65 0 115 90 90 88 80 79 79 74 73 72 72 72 72 74 74 71 71 72 72 72 73 73 73 75 74 71 75 71 71 69 72 73 72 71 70 70 71 72 73 75 75 71 73 69 72 70 72 72 73 73 72 71 71 72 74 72 73 73 72 71 70 70 69 73 72 72 72 72 72 72 73 70 71 71 71 71 71 71 71 72 69 69 70 70 68 69 71 
0 39 0 0 0 14 0 4 11 135 80 52 51 27 9 20 13 0 0 15 32 9 1 0 28 0 0 0 0 4 0 93 88 57 93 85 102 34 123 97 18 92 0 23 87 65 50 0 55 20 27 64 31 93 73 89 0 29 82 76 112 116 71 95 64 63 72 57 94 95 87 73 82 125 0 76 64 88 9 52 43 5 80 64 86 57 8 45 98 96 89 78 82 71 79 74 73 73 70 71 74 73 72 72 72 72 72 73 72 72 
78 74 70 71 47 44 87 32 51 43 45 74 78 80 54 48 55 63 79 76 79 81 72 77 71 79 59 78 75 56 53 75 81 51 76 52 65 74 100 53 76 82 86 99 37 45 95 97 51 84 68 55 0 0 5 2 0 16 3 0 14 0 6 0 10 4 0 0 0 29 0 85 124 127 194 135 67 86 11 10 0 0 0 12 38 46 0 0 2 0 0 0 2 0 0 22 98 100 72 62 106 43 77 53 17 119 25 53 0 107 
72 72 73 71 72 72 70 70 71 71 71 72 72 71 73 73 73 71 71 72 74 75 73 72 72 73 72 71 71 72 70 72 73 73 72 71 69 69 70 70 73 69 71 69 70 67 69 67 66 67 69 68 68 68 68 65 68 72 71 71 72 68 75 66 68 82 76 56 90 33 70 42 46 14 71 68 69 70 32 47 46 64 77 78 83 75 81 80 68 85 56 87 80 37 60 71 102 40 79 47 49 64 98 54 85 71 66 80 68 61 
72 97 69 79 76 30 89 83 69 4 50 0 32 25 7 97 0 67 101 74 88 80 0 7 59 102 93 86 80 80 77 74 77 77 73 72 74 73 73 72 72 72 72 72 72 71 71 72 69 71 69 73 71 71 69 70 72 73 74 74 74 73 75 72 74 71 74 69 71 71 72 74 73 71 72 75 76 74 74 75 74 72 71 71 71 70 73 72 72 73 72 71 70 71 71 72 72 71 71 70 71 71 72 68 71 71 74 66 67 67 
0 0 0 0 0 0 0 0 0 0 0 0 0 0 0 0 0 0 0 0 0 0 207 30 0 0 0 0 0 0 1 0 25 133 84 62 30 35 29 45 102 0 6 66 103 25 0 1 113 93 101 109 123 64 1 40 27 17 52 21 40 92 100 64 73 64 80 65 33 57 87 88 0 38 20 2 88 0 48 47 13 72 68 68 86 65 33 10 0 122 90 87 84 80 79 77 75 73 73 71 71 72 74 70 74 70 75 71 76 72 
57 78 81 61 48 52 44 30 26 29 71 78 55 37 30 0 48 61 87 79 84 87 84 91 76 88 67 69 96 52 29 94 58 79 41 48 80 39 79 75 54 101 60 72 67 75 67 59 52 77 78 0 0 0 70 57 94 173 0 14 0 12 0 0 0 0 0 0 0 0 0 0 0 0 0 0 0 0 0 0 0 0 0 0 0 0 0 0 0 0 0 0 0 0 0 0 0 116 83 108 79 20 65 70 28 51 0 101 121 0 
73 72 72 73 72 70 70 70 73 74 71 70 72 74 70 71 72 71 70 71 71 71 71 72 72 72 72 72 72 72 72 71 70 70 70 70 69 70 70 73 69 71 70 69 71 68 69 69 69 68 68 68 68 68 71 76 63 71 78 70 72 66 55 49 65 69 83 78 55 79 14 23 39 18 82 55 62 26 32 10 26 76 88 75 85 103 79 83 87 86 73 59 93 84 17 68 73 48 81 27 73 61 73 28 54 98 62 66 53 88 
31 63 43 79 42 118 73 22 0 58 0 36 53 0 75 0 2 75 0 41 8 7 0 18 3 0 122 96 89 85 80 78 77 76 74 72 72 73 71 69 74 71 73 69 74 72 75 70 74 74 70 72 73 70 73 71 71 75 73 70 73 72 73 73 71 71 71 72 72 71 75 70 71 75 73 71 72 72 74 74 74 73 73 73 73 72 71 72 72 72 72 72 72 72 72 71 71 71 70 69 70 71 69 72 68 73 69 71 70 68 
0 0 0 0 0 0 0 0 0 0 0 0 0 0 0 0 0 1 0 0 0 0 0 0 0 0 0 0 0 0 32 0 0 41 60 64 71 70 89 61 28 36 0 92 0 64 99 99 81 103 71 56 16 49 38 68 50 41 42 69 55 81 78 61 115 64 80 62 70 76 0 23 0 75 4 4 0 0 41 82 11 28 7 40 8 9 10 3 17 0 89 92 92 84 82 79 77 77 74 72 72 73 72 70 74 72 74 71 74 72 
69 30 40 77 74 74 27 27 72 31 62 63 33 29 30 48 61 55 95 37 0 0 0 0 0 45 67 91 57 89 62 27 45 60 96 43 64 42 74 63 55 45 88 79 63 26 7 0 0 0 0 0 0 0 0 0 0 0 0 0 0 0 0 0 0 0 0 0 0 0 0 0 0 2 3 8 30 1 3 0 18 0 1 0 0 0 0 0 0 0 0 0 0 0 72 69 0 0 154 34 101 109 67 32 43 73 11 0 0 111 
73 73 73 72 71 70 69 71 74 73 70 72 75 74 71 73 73 72 71 71 71 71 72 72 73 73 72 72 71 71 72 72 72 72 71 70 71 72 71 70 71 69 70 69 70 70 68 69 69 69 70 69 69 69 74 57 38 69 38 36 23 32 69 73 70 78 13 48 73 51 11 10 99 53 46 64 77 28 23 53 59 110 61 0 0 0 0 0 29 71 64 79 76 70 54 72 84 43 90 61 74 45 21 78 85 47 59 69 65 82 
33 94 83 131 102 0 23 0 41 11 0 0 25 0 6 0 54 8 8 74 0 75 0 8 12 3 0 102 93 90 87 83 79 78 76 76 75 74 73 71 72 72 72 72 72 70 73 77 71 71 75 73 72 75 70 73 73 74 72 74 77 73 73 72 72 73 73 72 71 71 70 72 74 72 71 74 76 72 73 74 75 74 73 73 74 74 71 71 72 72 73 73 72 72 72 72 71 72 71 70 71 72 71 68 72 67 71 69 70 72 
0 0 10 22 3 0 0 0 4 16 9 8 0 16 5 15 27 9 0 23 2 3 0 0 0 0 0 0 0 0 0 27 20 0 29 124 113 42 54 16 66 96 24 0 70 101 64 92 86 106 46 26 113 105 70 66 79 52 64 79 92 74 87 89 79 113 74 96 0 57 3 0 64 0 23 15 27 21 0 28 97 0 55 38 17 102 3 11 21 7 5 32 117 93 88 85 81 79 78 76 74 74 72 71 72 73 71 72 73 72 
49 69 39 59 12 38 29 24 41 64 71 29 105 24 29 0 24 68 107 114 113 96 104 107 81 96 87 75 54 46 41 93 50 33 86 68 25 44 0 65 22 38 60 15 61 27 60 59 21 0 0 0 0 0 0 0 14 16 0 28 8 0 0 0 0 19 9 16 0 0 0 0 13 12 11 5 0 0 13 33 50 12 6 0 5 27 3 1 0 0 0 0 0 0 0 0 0 0 0 39 113 81 11 44 61 138 0 31 72 62 
71 72 72 72 71 72 71 70 73 74 72 72 74 74 74 74 73 72 73 74 73 71 72 72 73 73 73 72 72 71 72 70 69 70 70 70 70 70 70 68 70 72 69 72 67 71 70 70 69 69 69 70 71 71 60 52 36 46 36 47 53 71 49 48 65 59 72 93 54 59 18 7 17 62 59 64 60 18 0 59 98 105 99 102 75 89 83 83 63 84 30 21 22 0 6 75 60 40 12 50 16 21 56 17 47 116 104 72 59 32 
28 36 13 27 1 36 4 46 52 3 38 0 0 0 0 23 3 5 80 11 57 53 0 131 3 21 11 1 33 112 93 89 87 81 81 79 70 76 71 74 76 73 70 71 73 75 74 76 72 74 74 72 75 73 73 74 74 74 73 73 73 74 74 71 76 72 70 75 73 69 71 72 72 72 71 71 72 72 73 73 74 70 72 71 74 73 74 70 71 74 71 71 72 69 70 71 72 71 70 69 69 70 68 69 71 69 70 66 73 72 
0 0 0 20 0 0 17 16 19 17 0 13 0 24 6 26 68 17 13 12 1 6 3 12 0 25 14 0 0 0 0 0 0 0 0 7 110 33 0 110 117 35 0 82 67 95 78 100 121 9 110 97 0 47 55 27 72 71 57 28 38 81 23 127 79 47 15 32 5 12 0 53 2 0 24 0 0 0 0 22 6 29 64 25 69 9 9 133 8 22 16 7 0 114 94 91 80 85 80 75 78 76 73 75 75 73 72 73 74 74 
17 41 61 22 77 44 88 42 87 9 62 116 0 7 82 103 102 101 94 98 66 77 31 74 49 50 23 47 30 13 39 16 59 52 0 3 54 61 100 97 6 93 25 86 88 0 44 104 0 19 0 0 0 14 17 0 16 21 0 0 0 0 8 0 0 15 11 14 0 5 5 23 17 0 0 0 0 0 2 48 36 36 21 23 0 0 14 0 2 3 0 15 0 0 0 0 0 0 0 0 0 8 0 93 156 1 0 131 56 62 
72 74 75 73 72 73 72 72 72 71 71 71 72 72 68 71 75 73 73 70 73 73 74 71 71 73 72 72 72 70 71 70 70 70 70 70 70 69 70 67 70 72 69 68 74 68 71 70 68 69 69 69 69 69 66 66 94 86 75 80 59 51 64 68 97 48 65 63 36 35 66 59 75 55 15 38 0 13 96 92 95 103 101 82 95 72 54 36 54 48 30 0 24 0 0 24 63 45 5 2 77 82 47 90 94 51 54 39 48 17 
80 2 66 24 99 21 22 38 12 81 20 1 69 0 74 83 52 88 176 142 170 46 53 35 31 3 44 36 4 0 117 96 88 86 88 75 79 75 76 74 73 73 73 74 74 73 74 74 73 74 74 74 75 74 75 75 74 74 75 75 75 74 73 77 71 73 76 73 74 73 73 72 72 71 71 72 72 72 73 71 72 70 73 71 72 70 73 71 71 73 74 72 70 68 72 71 70 70 70 69 69 68 68 73 68 66 72 69 69 72 
0 19 5 5 0 10 21 11 26 25 0 10 16 18 0 5 32 33 12 0 15 0 4 0 0 0 0 0 0 0 0 0 0 0 0 0 0 0 0 0 0 0 49 104 97 133 89 118 12 50 83 142 14 36 87 27 57 70 60 85 50 38 86 60 0 46 45 62 133 0 145 81 73 129 27 44 69 28 99 139 141 211 65 202 210 128 144 117 81 4 23 87 8 1 52 105 96 88 78 83 81 75 75 74 73 72 73 73 73 73 
79 62 55 32 0 0 54 0 62 75 34 16 0 81 92 98 96 53 78 36 33 0 55 0 0 0 0 29 9 15 0 0 8 0 96 48 117 89 28 80 52 95 59 79 27 41 7 58 27 21 0 11 13 0 0 0 4 0 3 22 8 31 41 0 0 1 37 0 11 23 25 18 11 0 0 19 5 1 0 28 20 0 0 12 0 0 2 5 0 0 0 0 0 0 0 0 0 0 0 0 0 0 0 0 0 0 0 17 117 91 
72 70 72 75 75 72 74 73 71 71 72 73 72 71 69 70 74 71 71 68 71 74 70 71 70 70 72 71 70 72 70 70 71 70 69 69 71 72 66 73 68 70 72 71 68 72 68 68 68 68 69 69 68 67 64 83 74 46 14 74 59 43 43 10 19 35 87 89 64 0 49 23 62 46 0 27 13 81 88 99 90 71 79 67 56 37 3 45 42 35 66 40 4 11 0 0 0 126 0 79 9 67 111 20 63 87 39 31 116 52 
108 106 16 203 0 180 170 45 69 52 48 45 10 1 0 0 0 0 3 0 7 2 7 6 7 8 19 4 40 0 6 59 101 98 87 81 82 78 77 75 74 74 74 73 73 74 74 73 76 75 75 77 73 75 75 75 75 75 74 74 74 75 74 72 73 71 71 74 74 72 74 73 71 72 73 73 72 71 72 68 69 69 74 72 72 70 68 72 72 73 74 71 68 70 71 71 70 70 70 70 71 71 69 69 68 74 69 71 73 69 
27 0 19 0 12 28 21 21 20 0 29 0 0 18 6 41 47 0 0 0 0 0 5 0 0 1 0 0 0 0 0 75 7 0 0 0 0 13 0 24 0 0 0 0 0 0 0 56 118 67 39 111 120 75 94 119 116 90 23 73 113 54 0 17 18 0 48 38 14 0 0 1 0 7 5 7 16 15 18 10 15 1 18 19 27 17 14 23 25 4 29 13 0 40 15 0 127 94 91 83 88 78 78 76 74 75 76 76 75 75 
26 4 74 41 54 13 13 76 67 45 4 93 0 103 109 102 112 66 36 100 55 18 82 38 31 36 21 79 54 1 0 0 0 3 87 71 39 63 125 5 80 28 27 0 51 100 0 4 0 1 0 0 0 0 0 0 0 0 0 0 0 22 58 0 16 48 0 11 0 12 3 0 0 7 0 2 20 23 9 34 28 39 15 5 0 0 7 0 0 0 0 0 0 0 0 0 14 0 0 0 0 0 0 0 0 0 1 6 0 0 
73 75 75 74 73 74 71 75 74 72 74 72 71 76 71 70 73 71 73 70 70 69 71 67 70 73 70 70 72 71 70 70 70 72 72 72 72 74 69 70 72 68 69 69 72 69 70 67 70 69 71 66 67 68 69 73 27 34 33 19 45 74 47 51 30 0 53 104 50 59 0 81 56 0 14 113 0 91 85 86 85 87 80 41 0 25 41 14 83 1 0 49 1 0 0 0 0 0 80 81 16 0 75 41 41 60 66 19 3 68 
8 26 25 38 36 42 31 44 32 24 13 7 16 5 24 30 28 16 31 35 31 31 35 56 46 48 49 40 34 28 0 22 2 127 93 92 85 87 80 78 75 75 76 75 74 74 77 79 78 75 74 75 76 77 73 79 73 75 76 72 73 70 73 73 75 76 76 74 74 74 72 76 75 73 74 72 70 73 71 71 71 72 71 71 70 69 73 70 72 74 72 72 73 72 72 71 71 72 72 71 71 72 74 71 75 67 72 66 70 65 
7 0 23 0 0 63 22 0 0 29 15 16 15 12 21 11 16 0 8 14 0 0 11 0 0 0 0 0 0 0 0 0 0 0 0 0 0 0 0 0 0 0 0 5 0 0 0 0 0 0 0 6 67 113 61 59 58 103 46 100 50 0 19 0 29 24 36 18 37 45 27 47 38 37 52 28 13 28 27 23 24 15 40 43 57 67 78 64 66 56 41 39 12 49 25 0 0 15 106 94 83 85 82 79 76 74 75 74 73 72 
63 31 101 0 60 71 15 8 70 0 109 13 27 62 121 97 59 120 21 66 23 82 51 80 10 4 0 6 49 0 0 15 0 4 0 47 73 56 2 0 32 0 10 71 66 29 0 0 8 0 11 0 0 1 0 0 0 0 0 0 0 0 0 0 19 0 0 0 0 29 32 0 7 35 17 37 31 12 0 10 11 10 0 0 0 3 0 0 0 0 0 0 0 0 0 7 0 0 0 0 0 0 0 0 4 0 2 0 0 0 
74 74 74 73 73 74 71 72 73 73 73 73 73 73 72 72 70 71 70 72 70 71 71 70 70 70 70 71 72 72 73 71 70 70 71 70 70 69 74 69 73 68 75 66 70 69 70 69 66 71 69 70 68 70 77 59 47 76 46 64 59 58 89 20 56 25 84 135 8 76 51 10 8 0 99 85 3 72 98 63 125 19 27 0 0 0 54 46 4 0 0 85 49 0 14 2 2 7 0 0 117 48 50 0 40 55 5 35 0 62 
110 114 139 116 92 87 106 80 75 44 17 2 0 0 6 9 3 9 8 10 5 9 14 0 0 0 0 0 0 14 0 44 26 0 33 90 95 84 86 81 77 77 76 75 76 76 75 73 78 78 83 77 81 80 82 78 79 76 75 79 74 75 74 73 74 74 75 74 73 73 74 73 73 72 71 71 72 72 72 71 72 69 71 70 72 71 73 73 72 71 72 72 73 73 72 72 71 71 71 72 71 71 72 73 68 75 68 71 66 70 
0 27 17 17 0 0 0 0 0 0 1 0 0 0 10 0 4 13 4 7 2 0 0 0 0 0 0 0 0 30 0 0 0 0 0 0 0 0 0 0 0 0 0 0 0 1 0 0 0 3 0 0 5 0 0 0 26 0 109 126 87 12 25 18 4 5 0 0 0 0 8 6 4 8 3 6 2 2 0 0 0 0 0 0 0 0 0 0 0 0 0 0 0 0 16 0 54 12 0 0 110 98 85 82 79 77 76 75 76 77 
18 0 0 44 67 0 88 0 6 40 62 119 41 93 64 11 15 69 31 1 26 0 12 44 0 18 42 12 10 2 5 0 17 4 0 0 0 132 62 132 33 32 96 31 130 0 0 0 0 0 0 0 6 0 0 0 0 0 0 0 1 16 0 1 24 0 21 6 0 0 0 12 0 5 0 0 0 0 3 0 8 0 0 0 5 8 3 0 0 0 0 0 0 26 0 1 0 0 0 0 0 0 0 0 0 0 0 34 1 0 
73 74 73 73 72 74 73 70 71 72 71 72 74 72 69 71 73 72 70 69 70 71 70 73 71 69 72 71 70 71 68 70 71 70 69 70 71 71 73 75 70 74 67 72 66 66 68 69 70 67 69 69 69 66 69 69 44 0 12 0 0 1 13 52 34 54 39 0 98 106 34 27 0 33 66 77 31 123 28 16 39 10 6 0 0 0 67 0 0 15 5 21 0 4 0 4 12 0 3 9 0 42 77 171 30 47 61 0 98 0 
0 0 0 0 0 0 0 0 2 1 14 5 12 4 19 9 0 0 0 0 7 16 1 21 14 7 12 0 0 0 0 0 14 0 0 103 100 97 88 86 85 83 79 76 77 77 79 81 81 87 86 102 16 0 104 88 86 83 78 77 76 81 75 74 74 75 75 73 74 75 74 70 72 73 71 72 73 70 68 72 72 74 69 70 69 71 69 73 72 70 74 74 73 74 70 72 73 72 70 71 72 73 70 71 69 70 69 73 71 69 
17 6 5 0 0 0 0 1 0 3 0 0 2 0 0 0 0 0 0 0 0 0 0 31 70 25 135 0 0 0 0 0 8 75 65 39 4 25 0 0 0 0 29 19 35 4 0 0 0 0 0 0 0 0 0 15 0 0 0 0 0 1 10 0 1 0 0 3 2 0 2 5 3 11 2 1 0 0 0 7 11 10 27 26 28 30 14 19 22 20 18 7 19 0 0 0 0 14 0 117 110 96 89 90 86 83 79 76 81 79 
125 52 24 61 0 59 46 0 0 3 127 102 16 45 18 44 25 37 43 2 14 14 15 0 135 15 34 4 0 7 22 0 0 10 20 4 0 0 5 49 0 51 3 74 44 0 0 0 0 0 0 0 7 0 0 8 0 0 0 0 0 0 0 0 0 0 0 0 0 0 0 0 0 5 0 3 3 10 3 0 0 0 0 0 0 0 0 0 0 0 10 2 0 0 0 0 0 0 0 0 0 0 0 0 0 0 0 0 0 0 
72 77 72 77 74 75 75 74 74 73 72 70 71 72 72 72 69 71 72 70 72 71 70 70 71 71 72 73 73 72 71 72 72 71 71 72 72 71 69 72 73 71 70 70 70 71 70 72 69 67 69 68 68 71 62 37 68 97 106 112 59 89 90 109 85 83 94 122 149 11 89 0 0 42 95 18 16 25 53 46 73 7 10 105 37 103 48 171 183 121 49 7 0 12 80 0 0 0 0 0 0 7 0 29 50 38 50 0 16 2 
22 0 0 0 7 2 0 0 0 0 9 0 2 5 0 1 12 5 9 0 18 6 15 25 32 51 54 25 6 11 27 13 0 0 0 0 0 113 107 91 93 87 82 87 85 80 87 97 91 89 121 4 5 0 9 73 92 92 91 81 86 79 80 75 76 72 78 74 76 74 75 73 72 71 72 73 72 70 72 72 69 71 72 70 72 71 72 71 70 70 71 73 72 70 71 72 72 71 71 71 71 71 69 72 73 72 71 70 70 70 
12 10 9 13 0 0 0 0 0 2 0 8 13 9 7 17 12 11 6 0 0 0 0 0 0 0 0 0 0 0 0 0 0 0 0 0 0 0 0 0 0 0 0 0 0 0 0 0 0 0 0 0 0 0 0 0 0 0 0 0 0 14 2 13 0 2 7 0 14 2 0 0 0 0 0 0 1 0 2 0 10 4 1 1 12 21 11 10 15 28 49 24 5 10 7 22 13 0 0 0 2 0 68 102 87 91 86 88 85 78 
117 127 109 66 112 74 106 0 0 133 0 29 125 200 122 149 35 147 142 154 28 63 32 54 19 0 0 2 13 67 207 131 3 0 0 20 0 21 13 0 17 0 16 10 0 0 0 10 0 15 3 0 2 2 0 23 17 0 0 19 0 20 0 12 19 10 27 15 0 0 11 0 0 0 0 0 10 5 26 30 32 28 0 0 2 0 0 0 0 0 0 0 0 0 0 0 0 0 0 0 0 0 0 0 0 0 0 0 0 0 
73 75 72 75 72 73 72 74 75 72 71 71 71 70 72 70 70 70 71 71 70 71 70 71 70 70 70 72 73 72 71 71 71 72 71 71 70 70 70 70 70 70 70 70 70 70 70 70 69 68 69 69 70 68 81 15 28 44 2 10 32 64 58 78 59 53 50 38 76 90 70 77 0 71 31 53 0 63 44 74 10 20 0 0 0 0 15 22 21 15 17 16 0 0 0 0 0 28 30 0 31 37 22 5 0 75 14 0 0 23 
4 2 0 5 6 17 31 7 13 10 26 53 5 31 17 10 56 26 23 8 12 20 13 3 28 52 41 23 18 11 12 23 5 21 26 0 0 0 110 106 95 93 90 93 88 89 97 96 110 0 0 5 9 18 41 0 0 0 116 91 88 83 78 74 77 71 77 71 76 75 72 73 73 72 72 72 71 70 73 70 71 71 71 72 70 72 70 71 71 70 70 71 72 72 71 71 71 72 72 70 70 70 69 69 68 69 69 69 70 71 
6 0 0 0 0 0 9 24 0 0 0 0 0 3 25 20 0 16 0 3 0 3 0 0 0 0 0 0 0 0 0 0 3 6 7 0 47 0 0 0 0 2 0 18 7 28 14 0 0 6 0 5 0 0 23 15 0 0 6 0 0 11 10 19 16 42 47 15 0 20 16 11 18 30 7 0 15 22 45 20 0 8 53 12 19 16 8 20 18 19 68 32 9 19 28 27 13 13 27 12 0 0 15 141 106 100 94 92 100 96 
75 41 34 49 50 75 123 91 0 0 0 0 15 24 0 3 28 33 27 0 0 25 21 27 48 35 13 4 0 0 0 0 0 0 0 0 30 76 167 115 38 0 0 0 0 0 0 24 29 0 14 20 0 16 23 18 0 0 0 37 39 2 21 0 0 0 4 0 0 21 8 0 3 0 0 0 0 0 19 0 0 6 8 6 6 4 0 0 0 0 0 0 0 7 0 6 10 13 24 20 0 0 0 0 0 5 14 2 10 0 
77 74 76 73 73 71 71 71 72 73 72 70 70 72 73 69 71 70 70 72 69 72 70 70 69 69 71 72 72 70 71 70 71 72 72 70 69 70 69 69 70 71 70 68 68 70 71 70 71 70 65 68 71 68 32 24 19 10 4 28 43 48 72 98 64 93 100 76 122 0 86 79 0 0 0 0 12 8 0 26 11 34 30 0 28 63 36 97 73 55 52 36 54 0 9 0 11 19 63 39 8 8 0 0 0 0 0 0 0 0 
1 23 6 11 36 3 13 33 24 24 30 59 27 7 6 14 17 16 30 6 15 12 9 13 15 34 66 23 16 17 0 40 19 17 17 16 0 0 0 0 0 93 113 103 101 99 101 130 0 19 18 12 0 0 7 11 18 10 0 94 92 89 80 79 79 75 71 73 75 74 73 73 73 72 72 72 73 73 73 73 72 71 71 71 70 71 69 69 70 70 70 70 71 71 72 70 68 75 72 72 70 75 70 72 70 71 67 70 68 70 
0 0 0 0 5 0 0 0 0 6 1 0 0 0 2 13 2 12 0 8 0 5 0 0 0 0 0 0 14 1 25 0 0 12 8 8 0 0 0 0 0 13 0 48 16 0 0 58 36 14 14 0 46 0 0 14 0 13 0 0 0 40 8 0 5 0 1 8 27 10 0 0 34 17 0 19 0 0 19 13 0 0 70 4 15 11 15 10 19 39 53 27 10 10 15 27 0 19 15 17 0 0 0 0 0 0 103 108 109 104 
122 121 66 44 0 83 32 0 0 0 28 0 4 10 0 1 4 0 0 0 0 0 0 0 0 0 0 0 28 12 0 0 0 0 0 0 0 0 0 0 0 0 0 0 0 0 0 10 17 9 58 14 0 1 0 0 0 0 0 0 0 83 0 0 0 0 0 0 8 0 0 0 0 13 0 0 0 1 0 21 19 8 3 0 0 0 0 0 0 0 0 0 24 0 0 31 0 20 14 0 0 0 0 0 0 0 0 37 0 0 
77 75 73 73 73 73 72 72 72 72 72 72 73 74 72 72 72 72 72 70 70 70 71 71 71 71 71 71 72 72 70 71 70 72 70 72 71 72 72 70 70 68 70 68 68 67 69 69 74 47 77 51 54 76 65 36 45 31 0 0 0 0 69 63 0 0 59 47 66 10 0 0 0 0 0 0 0 0 0 0 0 0 0 0 0 0 0 2 15 14 0 0 0 0 0 0 0 0 0 0 0 0 0 0 0 0 0 0 0 0 
7 0 15 11 24 15 0 1 15 15 0 31 0 5 57 2 0 0 45 6 15 17 14 8 2 7 40 36 13 11 5 20 6 20 13 25 16 0 0 0 0 0 0 0 125 118 101 136 0 21 0 10 20 0 10 43 0 9 0 113 92 88 86 80 77 77 74 72 73 73 74 73 73 73 73 72 72 73 71 71 72 72 72 71 70 70 70 70 71 71 71 72 72 72 72 71 70 72 71 70 69 70 70 68 71 68 72 70 73 71 
0 0 0 0 10 0 0 3 0 29 9 10 0 0 68 0 15 0 0 0 0 11 2 0 0 0 10 18 3 0 0 18 38 0 31 0 0 0 0 0 0 17 58 8 0 0 5 1 48 0 18 27 0 0 0 22 0 19 8 0 0 10 30 4 7 13 7 7 51 0 0 0 37 27 0 17 0 10 42 19 29 42 54 16 10 19 16 16 24 73 62 20 15 19 9 20 5 19 17 39 15 20 0 0 0 0 0 0 0 124 
110 116 64 28 120 86 21 0 0 0 0 0 0 0 16 17 15 0 13 29 28 28 28 7 9 37 0 0 0 0 0 0 0 0 0 0 5 5 6 1 0 14 0 44 21 8 7 0 9 54 0 29 0 0 0 25 0 14 8 0 0 2 0 0 0 0 0 0 25 2 0 0 0 15 8 0 0 0 20 0 0 14 0 6 0 8 7 0 0 0 5 18 0 0 0 0 21 0 3 0 0 0 2 1 0 11 31 34 4 1 
80 77 73 72 73 72 72 71 71 73 72 72 72 73 70 71 72 73 73 71 70 69 70 70 70 70 71 71 72 73 71 72 72 69 70 70 71 69 69 69 69 67 66 63 64 64 65 65 74 64 43 68 57 73 0 6 35 88 5 13 24 51 48 65 101 114 62 67 108 80 115 0 0 13 0 0 40 23 16 8 28 0 9 7 8 0 6 2 9 0 0 41 0 0 0 20 4 0 8 0 3 1 0 9 5 0 0 26 1 0 
22 14 21 5 7 9 0 0 43 15 0 52 0 50 40 42 0 27 70 14 15 17 12 26 22 38 44 29 19 8 28 12 9 31 15 37 10 33 14 26 7 0 0 0 0 0 70 153 0 25 23 37 28 25 24 15 18 27 0 117 98 92 87 82 80 76 73 73 73 71 72 71 71 73 73 71 71 74 69 70 72 72 72 71 70 70 70 70 69 69 69 69 70 70 75 70 70 70 71 62 62 64 63 64 63 65 65 67 67 68 
0 0 0 0 0 0 0 0 47 16 0 0 0 22 0 0 7 63 0 22 0 16 15 0 0 0 9 29 0 0 0 6 0 1 0 0 0 0 15 0 0 23 0 34 0 13 22 0 22 5 0 29 39 0 0 17 60 40 3 0 14 32 10 14 14 13 8 13 42 21 0 4 11 11 0 48 0 48 46 34 0 38 46 11 11 7 20 6 31 47 45 9 9 18 14 20 18 23 9 39 24 0 28 19 13 2 0 3 0 61 
18 66 86 4 108 73 83 0 0 0 0 0 24 2 3 13 0 0 0 4 14 0 0 0 0 35 0 0 0 0 0 0 0 16 0 16 0 2 0 0 1 10 0 68 22 0 20 48 0 0 14 0 0 0 25 6 0 0 0 7 0 0 0 0 0 0 0 0 5 0 0 8 0 0 0 14 11 17 51 0 0 0 103 0 0 26 5 0 0 0 11 12 0 0 0 24 20 0 0 0 0 16 16 0 0 22 0 23 20 48 
81 78 75 74 73 74 73 74 74 71 71 73 73 73 71 71 68 68 67 65 66 63 63 63 64 65 66 66 67 68 65 65 68 64 69 69 73 70 70 67 67 66 70 70 71 70 72 82 52 52 71 69 45 53 0 0 0 0 0 0 0 0 0 0 0 0 0 0 50 66 11 0 0 0 0 0 6 0 0 35 0 33 0 20 0 0 0 3 16 0 0 0 0 0 0 0 0 10 3 0 0 0 0 0 0 0 10 0 0 0 
7 8 18 14 16 26 9 62 25 15 0 54 58 39 35 53 113 69 40 19 15 12 16 16 14 66 46 30 9 10 20 10 26 20 9 47 6 12 21 22 14 4 19 20 19 30 29 44 55 62 46 33 20 12 17 24 6 16 0 83 112 91 91 87 83 80 79 76 76 75 78 76 72 68 67 66 67 66 64 65 63 65 67 68 70 68 70 68 68 70 70 70 70 70 69 69 70 67 69 70 71 68 70 71 66 72 67 74 70 73 
90 13 0 0 28 17 0 4 23 0 0 0 0 0 42 71 0 0 0 0 12 11 12 0 0 0 20 20 0 0 0 40 21 0 0 0 0 31 6 0 0 0 40 23 0 3 0 0 0 30 0 0 27 0 9 68 0 0 0 0 12 0 0 9 16 19 0 23 21 26 33 29 7 6 30 25 8 8 0 9 0 0 14 7 17 15 13 10 21 23 47 23 16 7 39 18 18 27 15 24 13 14 16 16 1 17 7 23 25 4 
0 0 0 34 32 121 63 0 0 6 0 0 0 0 9 0 0 0 21 0 9 0 0 0 0 47 0 0 0 0 0 0 0 0 0 1 0 0 0 0 0 0 0 29 16 6 39 93 67 71 37 0 6 72 0 0 0 0 2 3 0 0 0 0 0 0 2 23 0 0 0 0 4 15 29 0 0 0 10 23 24 0 0 9 0 35 3 0 0 0 14 28 0 0 0 23 3 2 0 0 0 53 13 0 0 5 37 22 0 0 
76 76 75 76 74 73 72 73 76 77 79 79 77 76 75 75 72 73 73 73 74 72 72 71 71 71 70 69 70 71 70 72 70 72 69 73 70 70 68 69 69 72 70 73 73 74 73 72 40 83 57 69 60 46 0 0 0 0 0 0 0 0 0 0 0 0 0 28 39 85 98 0 5 0 9 0 40 0 20 0 0 0 26 0 0 0 0 0 0 15 0 0 0 5 2 0 0 0 1 0 2 0 0 0 0 0 0 19 63 32 
6 14 7 10 2 3 11 14 1 7 4 9 0 7 10 6 14 20 15 17 24 5 10 12 16 62 79 21 2 18 0 12 30 23 5 41 11 21 21 8 12 7 0 13 27 30 35 106 198 208 181 65 40 29 22 19 10 8 4 0 63 108 97 93 88 84 80 77 75 76 77 76 75 75 74 73 74 74 73 74 71 73 74 74 76 74 74 74 74 74 73 72 73 74 71 71 68 70 67 70 68 69 64 65 64 67 65 69 67 68 
0 0 0 9 18 0 0 0 0 0 0 0 0 0 0 7 18 9 0 0 0 0 32 0 0 0 18 16 9 39 6 44 14 0 0 0 2 68 13 0 0 0 49 6 6 0 0 0 0 0 5 0 0 0 13 30 0 0 0 0 21 42 26 0 3 6 0 6 9 15 12 11 3 9 19 13 17 8 15 29 19 19 17 10 22 15 30 35 16 13 2 8 18 14 18 0 0 38 5 43 10 28 20 10 0 7 14 24 37 28 
0 0 0 6 28 40 47 0 0 0 0 0 0 0 0 0 0 0 13 0 30 0 0 0 0 0 0 0 0 11 1 0 0 0 0 0 28 0 0 15 0 0 0 0 0 0 0 14 8 0 0 3 0 0 12 0 9 0 30 31 34 0 0 32 0 0 22 13 9 0 0 0 0 0 0 0 0 0 0 4 10 0 0 0 0 0 0 19 0 0 0 3 19 0 0 10 0 3 0 0 0 51 19 0 0 0 6 0 0 0 
87 84 80 77 75 75 72 72 71 72 71 69 69 69 72 72 69 70 71 69 70 68 74 73 73 73 73 72 71 72 71 70 72 70 72 72 73 72 69 72 68 75 69 74 73 76 80 66 49 86 43 67 76 33 0 0 0 0 0 0 0 0 0 0 0 0 0 3 81 82 35 0 0 0 0 0 0 34 4 0 14 14 5 0 19 0 0 0 0 24 0 0 0 18 0 0 3 0 0 3 10 0 0 0 0 0 0 0 37 51 
15 14 13 31 24 37 35 26 30 18 7 8 23 17 1 16 13 8 5 9 0 3 5 5 10 42 39 5 16 30 11 6 10 8 15 33 13 20 1 14 2 20 10 23 39 39 38 26 37 46 39 35 26 19 6 11 2 2 0 0 103 112 94 90 85 84 83 82 79 79 78 76 73 72 73 73 75 77 74 74 71 73 75 73 75 73 72 70 69 71 73 73 71 71 72 70 73 71 73 69 71 69 71 72 75 73 76 74 79 81 
0 0 0 0 0 0 0 31 37 0 0 0 0 0 1 0 5 9 0 0 0 0 0 3 0 0 0 0 0 0 5 3 7 0 0 0 0 15 0 0 0 0 39 0 0 24 19 17 37 20 0 0 0 0 3 17 9 11 12 0 12 22 25 15 11 1 7 0 4 0 0 4 3 0 13 3 0 12 15 7 8 8 4 0 13 4 11 16 7 31 61 29 3 0 30 24 16 3 5 43 14 11 24 13 13 21 18 23 18 9 
0 0 0 0 106 50 8 0 0 0 0 37 0 0 0 0 4 22 22 0 0 0 0 8 48 0 0 0 0 7 0 0 9 0 37 30 0 0 0 54 54 22 0 0 0 15 18 0 0 0 0 17 0 0 0 0 0 0 0 0 0 0 0 0 0 0 0 0 0 0 0 0 0 0 14 0 0 0 0 17 11 0 0 0 3 0 0 0 0 0 0 0 5 1 0 49 5 2 0 0 0 0 14 0 0 0 37 0 6 21 
95 88 86 80 78 80 76 75 74 73 74 76 76 75 71 73 73 73 73 74 73 73 72 70 70 71 71 71 71 73 73 73 70 69 66 68 67 69 66 71 76 71 77 81 75 79 61 58 64 89 84 79 23 6 0 0 0 0 0 0 0 0 0 0 0 0 0 26 31 0 0 0 0 0 0 9 0 0 0 0 0 60 66 0 0 0 0 0 0 22 0 0 7 4 0 4 63 16 0 0 11 3 84 23 0 0 0 0 0 0 
14 12 9 16 8 3 11 6 2 11 28 33 15 6 0 0 27 15 8 0 0 4 7 14 18 55 32 12 6 10 12 7 1 25 22 20 6 0 32 2 23 14 16 6 30 21 15 4 26 11 22 10 4 13 11 0 0 0 2 5 0 88 47 36 94 87 87 77 86 79 78 73 79 82 73 74 75 66 72 73 73 73 72 73 72 70 75 73 72 71 69 66 67 69 69 68 65 68 68 74 74 75 74 74 71 78 76 77 83 85 
0 0 0 0 0 0 0 0 0 0 0 0 0 0 0 23 5 0 2 2 0 0 0 0 0 0 0 0 0 0 0 29 15 0 0 0 0 0 0 0 0 1 0 0 0 6 22 2 15 0 2 0 2 0 8 0 11 0 0 0 10 31 31 17 18 16 12 16 18 18 0 9 0 18 0 0 0 0 4 0 0 0 26 0 16 15 11 5 5 2 25 22 5 0 20 11 11 0 7 18 16 0 0 8 29 19 14 17 10 7 
0 0 0 83 44 23 0 0 0 0 7 3 0 0 0 0 0 4 0 0 5 18 15 9 6 11 0 0 0 0 0 39 0 0 0 0 0 0 0 0 0 0 0 0 0 0 0 0 0 0 0 2 0 0 0 0 0 0 0 3 9 0 0 0 0 0 0 7 0 0 0 0 0 0 0 0 0 0 0 4 29 13 0 2 14 1 0 0 0 14 0 0 0 0 0 32 0 0 0 0 0 75 20 0 0 7 0 6 38 27 
91 89 90 85 84 88 85 77 71 76 80 73 71 77 71 71 69 70 71 71 71 70 79 76 74 74 74 71 70 70 73 74 72 74 73 76 74 75 78 78 85 79 84 86 97 71 79 75 45 45 73 63 39 10 0 0 0 0 0 0 0 0 0 0 0 0 0 86 97 47 0 0 0 3 0 5 0 0 25 63 0 0 13 29 20 19 25 10 72 3 0 0 1 0 72 0 0 0 0 0 0 0 4 0 0 0 0 11 7 44 
4 17 10 4 13 0 0 0 51 21 4 19 28 43 56 6 12 23 37 13 0 73 80 52 58 20 34 8 4 19 0 0 0 26 0 25 20 0 5 13 4 12 5 14 16 18 0 1 6 0 0 7 0 16 0 0 0 1 1 0 20 101 73 103 100 91 98 78 24 0 46 82 86 68 71 74 70 77 79 77 77 77 77 77 77 78 79 76 75 77 77 76 76 76 72 73 72 74 72 76 78 80 79 87 80 89 90 99 101 104 
2 0 0 0 7 0 0 0 3 0 0 0 0 14 19 0 5 1 0 0 0 5 0 0 0 24 53 0 0 0 0 54 0 0 0 0 0 58 5 0 0 0 2 2 0 0 0 0 32 10 11 16 0 0 12 0 0 51 0 4 0 0 21 0 10 0 0 0 37 0 28 34 48 24 0 56 0 4 42 9 8 7 55 12 23 32 69 51 57 12 23 32 4 8 0 16 0 10 13 18 0 0 4 0 4 5 3 0 0 0 
0 0 0 98 119 20 0 0 29 16 24 21 6 0 0 0 5 2 0 46 31 33 36 25 21 7 0 0 62 0 0 0 0 0 0 0 0 0 0 0 0 0 26 13 0 0 3 8 6 0 0 12 0 0 0 0 0 0 0 0 0 0 0 0 0 0 0 0 0 0 0 0 0 0 0 0 0 0 21 23 9 0 13 0 0 25 0 0 0 0 91 18 0 0 0 77 5 0 0 0 58 46 7 0 0 0 26 0 0 0 
49 106 95 95 88 89 83 81 82 82 80 80 82 82 81 80 81 85 86 87 85 85 82 83 83 83 81 78 79 83 78 82 83 85 83 87 88 92 106 82 0 0 0 0 0 0 0 22 11 0 45 8 0 0 0 0 0 0 0 0 0 0 0 2 0 0 2 102 89 3 0 0 1 11 8 19 0 0 0 0 13 0 0 0 8 4 12 2 27 0 0 67 26 16 30 1 0 0 0 8 0 3 0 2 0 0 11 0 0 24 
30 21 15 1 38 9 2 0 39 12 0 35 0 12 60 3 0 0 37 13 7 21 52 14 60 5 50 37 1 0 4 15 9 32 1 30 1 0 8 0 12 9 13 7 10 0 20 17 9 2 0 0 0 1 0 21 5 4 8 0 19 108 86 75 87 98 97 92 89 87 91 80 89 89 81 87 84 79 82 88 88 89 90 87 99 102 106 101 103 89 87 85 89 82 85 80 89 85 87 92 97 115 29 0 0 0 0 0 0 60 
0 0 0 0 0 0 0 0 0 6 0 0 7 25 20 10 15 3 0 0 0 6 0 0 0 0 0 8 37 0 0 46 0 0 0 0 0 0 0 0 0 0 18 5 0 13 0 9 20 8 7 30 34 0 8 5 0 50 8 0 7 11 8 42 29 41 6 15 30 0 0 0 26 24 0 39 4 11 48 1 0 0 10 7 18 42 68 73 49 19 42 16 7 1 7 19 2 27 10 24 5 0 4 9 15 0 14 11 16 6 
