P2
70 70
255
32 32 32 32 32 30 33 37 31 31 35 33 32 35 30 33 33 34 32 34 37 33 33 32 32 33 33 32 31 31 30 32 34 32 31 34 36 32 33 34 35 34 33 33 34 34 31 31 32 32 33 33 32 32 32 32 31 32 31 30 31 32 31 28 32 27 31 29 30 32 
26 56 -16 -48 30 61 24 52 46 66 6 -14 73 65 30 26 39 12 24 39 52 34 47 49 39 73 34 56 -48 17 -37 -41 24 -40 -17 -25 -13 -19 -53 -12 57 -47 15 -2 -23 62 -37 -29 -19 -33 -35 -8 77 53 48 45 41 39 38 36 34 34 32 31 32 33 31 32 33 32 
-18 -2 20 -25 21 -13 20 19 -19 -53 -53 -60 -53 -49 -49 -41 -26 -24 -56 -12 -32 -40 -50 -49 -55 -21 -31 -24 -47 -50 -43 -40 -27 -28 -29 -35 -42 -45 -27 -7 10 -28 -34 -52 -35 -13 -37 -39 -53 -60 -59 -62 -54 -60 -64 -53 -40 -62 -47 -1 73 41 -29 4 21 98 -47 -9 32 22 
30 32 29 32 27 31 30 30 29 29 29 30 31 31 20 12 -4 6 -4 7 13 31 9 8 25 19 32 53 14 19 -22 -33 -23 22 19 24 20 -22 -68 19 58 65 59 62 35 49 43 43 23 44 -10 -19 -18 -51 -34 35 20 0 -28 10 -24 -19 16 -23 7 76 64 32 19 -8 
36 33 30 31 33 35 34 36 32 34 34 32 35 33 33 34 34 34 33 33 33 34 34 31 36 32 30 35 33 29 31 32 32 32 31 31 32 32 33 33 34 30 32 31 34 33 34 30 31 34 31 31 32 29 30 31 32 31 30 29 29 30 28 29 31 29 30 26 33 32 
77 -5 -76 42 27 55 38 60 81 -31 70 57 -51 7 15 -13 32 31 17 -12 -2 41 -17 87 39 7 -25 -8 -35 -28 -44 13 -38 -41 -16 -54 -58 -48 -58 -18 -34 -11 24 -15 29 -31 -31 93 -32 -18 -24 -33 -64 74 54 51 40 45 40 35 38 36 33 35 35 33 32 33 34 34 
-34 53 -15 46 48 -50 4 64 -41 -21 -44 -40 -55 -26 -23 -54 -24 -19 -48 -55 -52 -43 -32 -45 -51 -25 -29 -26 -53 -35 -35 -17 -23 -52 -40 -57 -57 -45 -38 8 -4 -4 -19 -17 -63 -45 -26 -41 -38 -37 -44 -25 -40 -57 -55 -50 -55 -62 -65 -49 -54 -32 -71 53 116 -39 -72 91 16 22 
30 32 29 28 34 28 31 30 28 29 29 29 29 29 26 26 54 46 35 40 19 11 24 28 57 8 25 23 -4 -5 26 19 35 15 -25 -2 -55 -27 56 52 55 63 61 42 55 32 14 -4 14 8 -10 -64 -16 -60 -73 -16 23 5 -35 -38 37 42 7 50 54 11 14 -1 8 -23 
33 33 33 34 34 33 34 34 33 34 34 34 35 34 35 35 34 34 35 35 35 34 33 37 31 33 36 33 34 33 33 32 32 31 31 32 32 32 33 31 32 30 33 31 32 30 33 31 31 33 34 32 30 28 32 31 30 30 30 29 29 28 28 33 28 26 32 29 29 32 
-69 -70 9 64 57 93 49 78 -28 10 43 102 -26 -4 47 -13 17 30 20 45 10 -2 46 20 -50 6 5 22 93 -41 105 41 33 89 -13 4 29 -12 59 99 101 171 25 162 170 88 104 77 41 -36 -17 47 -32 -39 12 65 56 48 38 43 41 35 35 34 33 32 33 33 33 33 
12 55 19 39 -13 1 -33 18 -13 -19 -52 -29 -27 -54 -62 -46 -36 -45 -37 -18 -32 -9 1 -40 -54 -39 -3 -67 -29 -17 -15 -22 -29 -41 -76 -21 -35 -39 -40 -12 -20 -45 -44 -28 -52 -44 -38 -35 -53 -49 -49 -55 -66 -61 -66 -65 -64 -54 -58 -57 -49 -54 -50 -47 -49 -67 -59 -23 77 51 
28 30 32 31 28 32 28 28 28 28 29 29 28 27 24 43 34 6 -26 34 19 3 3 -30 -21 -5 47 49 24 -45 9 -17 22 6 -56 -13 -27 41 48 59 50 31 39 27 16 -3 -37 5 2 -5 26 0 -36 -29 -57 -67 -53 86 -41 39 -31 27 71 -20 23 47 -1 -9 76 12 
34 34 34 33 33 34 34 33 36 35 35 37 33 35 35 35 35 35 34 34 34 35 34 32 33 31 31 34 34 32 34 33 31 32 33 33 32 31 32 28 29 29 34 32 32 30 28 32 32 33 34 31 28 30 31 31 30 30 30 30 31 31 29 29 28 34 29 31 33 29 
-67 -55 -46 -52 -52 -74 -68 16 78 27 -1 71 80 35 54 79 76 50 -17 33 73 14 -51 -23 -22 -52 8 -2 -26 -44 -51 -39 -57 -33 -35 -33 -24 -25 -22 -30 -25 -39 -22 -21 -13 -23 -26 -17 -15 -36 -11 -27 -45 0 -25 -49 87 54 51 43 48 38 38 36 34 35 36 36 35 35 
40 -12 -13 -41 11 60 -66 -36 -60 -39 -52 -53 -47 -60 -60 -62 -40 -42 -42 -57 -65 -18 18 -46 -24 8 -65 -29 -60 -28 -37 -44 -57 -33 -50 -38 -20 -17 -31 -6 -12 -1 -25 -35 -61 -58 -33 -52 -44 -57 -49 -50 -50 -53 -61 -66 -26 -51 -50 -52 -49 -52 -43 -77 -48 -55 -39 -34 -53 -56 
32 28 29 29 32 29 30 27 30 29 31 26 27 28 29 33 -13 -6 -7 -21 5 34 7 11 -10 -49 13 64 10 19 -62 41 16 -62 -26 73 -52 51 45 46 45 47 40 1 -40 -15 1 -26 43 -39 -45 9 -39 -72 -54 -45 -52 -65 40 41 -24 -51 35 1 1 20 26 -21 -37 28 
35 35 36 35 34 34 37 39 38 35 34 35 36 37 33 39 33 35 36 32 33 30 33 33 35 36 36 34 34 34 32 36 35 33 34 32 30 33 31 31 31 32 31 31 30 29 33 30 32 34 32 32 33 32 32 31 31 32 32 31 31 32 34 31 35 27 32 26 30 25 
-46 -66 -48 -35 -67 -50 -55 -49 -57 -56 -65 -34 27 73 21 19 18 63 6 60 10 -66 -21 -40 -11 -16 -4 -22 -3 5 -13 7 -2 -3 12 -12 -27 -12 -13 -17 -16 -25 0 3 17 27 38 24 26 16 1 -1 -28 9 -15 -45 -41 -25 66 54 43 45 42 39 36 34 35 34 33 32 
-8 -48 -30 31 26 -11 -62 -53 -32 -67 -29 -53 -51 -39 -64 -47 -53 -56 -51 -55 -42 -52 -49 -53 -21 -51 -49 -62 -54 -11 -8 -58 -33 -5 -23 -3 -9 -28 -44 -30 -29 -30 -44 -42 -46 -37 -52 -50 -59 -60 -60 -70 -69 -48 -47 -33 -50 -53 -51 -46 -48 -43 -60 -65 -36 -76 -38 -41 -65 -51 
33 28 35 26 30 29 30 29 26 31 29 30 28 30 37 19 7 36 6 24 19 18 49 -20 16 -15 44 95 -32 36 11 -30 -32 -61 59 45 -37 32 58 23 85 -21 -13 -69 -63 -58 14 6 -36 -43 -46 45 9 -49 -26 -38 -38 -33 -49 -55 77 8 10 -43 0 15 -35 -5 -47 22 
37 37 36 35 36 36 35 33 38 38 43 37 41 40 42 38 39 36 35 39 34 35 34 33 34 34 35 34 33 33 34 33 33 32 31 31 32 32 32 31 32 29 31 30 32 31 33 33 32 31 32 32 33 33 32 32 31 31 31 32 31 31 32 33 28 35 28 31 26 30 
-67 -43 -55 -59 -43 -39 -41 -48 -49 -37 -46 -40 -35 -54 -57 -68 -14 -41 69 86 47 -28 -15 -22 -36 -35 -42 -48 -50 -41 -32 -34 -36 -32 -37 -34 -38 -38 -51 -52 -57 -52 -53 -51 -50 -49 -45 -56 -42 -51 -54 -56 -64 -67 -24 -54 14 -28 -64 -42 70 58 45 42 39 37 36 35 36 37 
-7 -8 56 -9 90 -69 -72 -55 -51 -55 -41 -51 -34 -49 -47 -58 -47 -54 -63 -51 -39 -24 -48 -39 -16 -55 -19 -34 -56 -58 -56 -28 -43 -35 -48 -52 -49 -59 -37 -46 -32 -54 -50 -40 -35 -32 -37 -54 -64 -57 -65 -53 -61 -14 -51 -39 -58 -53 -57 -62 -59 -64 -56 -62 -68 -68 -58 -6 -39 -50 
30 34 27 32 26 26 28 29 30 27 29 29 29 26 29 29 4 -41 -28 -59 -47 -39 -27 12 -6 14 -1 -44 58 66 -6 -13 -59 -7 26 37 -9 83 -12 -24 -1 -30 -34 -60 -64 -74 27 -53 -48 -25 -35 -19 -49 -36 -56 -36 -28 -43 -37 -31 -60 2 37 131 -10 7 21 -49 58 -78 
45 43 39 36 37 37 39 41 41 47 46 62 -24 -52 64 48 46 43 38 37 36 41 35 34 34 35 35 33 34 35 34 30 32 33 31 32 33 30 28 32 32 34 29 30 29 31 29 33 32 30 34 34 33 34 30 32 33 32 30 31 32 33 30 31 29 30 29 33 31 29 
-57 -42 -11 -21 -5 -36 -61 -55 -71 -62 -65 -67 -63 -63 -64 -25 -69 -69 -62 -79 -58 -39 -30 -42 -39 -44 -42 -37 -38 -43 -38 -35 -37 -29 -38 -39 -42 -43 -42 -33 -29 -30 -13 -14 -12 -10 -26 -21 -18 -20 -22 -33 -21 -44 -48 -52 -66 -26 -58 77 70 56 49 50 46 43 39 36 41 39 
-75 11 -37 34 4 -51 -57 -46 -44 -58 -45 -60 -33 -58 -42 -32 -63 -41 -60 -71 -47 -62 -47 -49 -55 -50 -48 -52 -59 -57 -40 -59 -44 -35 -42 -37 -37 -30 -37 -62 -40 -53 -51 -52 -59 -58 -55 -59 -55 -49 -30 -38 -54 -55 -63 -59 -58 -67 -61 -71 -68 -72 -61 -72 -58 -67 -65 -72 -60 -62 
33 31 30 30 30 31 30 32 29 27 29 28 28 31 22 -3 28 57 66 72 19 49 50 69 45 43 54 82 109 -29 49 -62 -66 2 55 -22 -24 -15 13 6 33 -33 -30 65 -3 63 8 131 143 81 9 -33 -56 -28 40 -62 -70 -47 -41 -49 -47 -33 -67 -11 10 -2 10 -49 -24 -38 
53 47 42 47 45 40 47 57 51 49 81 -36 -35 -42 -31 33 52 52 51 41 46 39 40 35 36 32 38 34 36 34 35 33 32 31 32 33 32 30 32 32 29 31 32 30 32 31 32 31 30 30 31 33 32 30 31 32 32 31 31 31 31 31 29 32 33 32 31 30 30 30 
-79 -65 -54 -60 -46 -55 -54 -48 -62 -46 -61 -58 -45 -54 -50 -54 -55 -53 -50 -63 -53 -26 -38 -27 -46 -38 -33 -43 -26 -38 -43 -45 -46 -47 -44 -47 -39 -46 -38 -48 -30 -36 -39 -39 -28 -19 -29 -30 -25 -12 9 -16 -35 -30 -33 -18 -27 -59 -68 -64 -38 -52 28 62 47 51 46 48 45 38 
-23 -56 -24 -30 -60 -58 -66 -30 -47 -25 -37 -47 -38 -38 -57 -17 -23 -42 -79 -21 -68 -20 -43 -28 -21 -30 -13 -25 -69 -55 -29 -54 -68 -42 -43 -41 -30 -35 -14 -10 -8 -12 -49 -50 -38 -50 -51 -64 -62 -62 -58 -54 -63 -60 -64 -54 -58 -65 -54 -53 -63 -58 -70 -68 -66 -62 -54 -59 -56 -53 
30 30 30 30 30 30 30 30 29 28 29 29 30 28 41 -25 -12 4 -38 -30 -8 24 18 38 19 13 10 -2 36 50 30 37 -70 31 -9 13 -47 23 4 34 -30 -20 -47 -54 -54 -78 -25 -18 -19 -25 -23 -24 -69 -70 -60 -50 -57 -12 -10 -70 -9 -3 -18 -35 -53 35 -26 -48 -70 -17 
55 53 50 53 48 49 57 56 70 -73 -60 -35 -31 -22 1 -63 -65 -52 76 51 48 43 38 34 37 31 37 31 36 35 32 33 33 32 32 32 31 30 33 30 31 31 31 32 30 32 30 31 31 30 30 31 32 32 31 31 31 32 32 30 30 30 29 29 28 29 29 29 30 31 
-57 -38 -54 -22 -33 -12 -26 -58 -46 -34 -48 -35 -56 -51 -17 -25 -45 -43 -34 -60 -49 -29 -30 -21 -24 2 7 -25 -43 -20 -24 -29 -22 -10 -33 -50 -25 -18 5 -20 -62 -32 13 -28 -21 -24 -32 -20 -22 -21 28 -8 -31 -21 -12 -13 -27 -27 -13 -28 -79 -64 -25 101 66 60 54 52 60 56 
-2 -64 -69 -66 -73 -73 -60 -16 -11 -53 -26 -20 -59 -24 -17 -22 -53 -54 -78 -3 -1 -38 -19 -53 -45 -52 -36 -41 -61 -19 -32 -56 -37 -55 -67 -42 -56 -46 -21 -46 -49 -34 -32 -34 -34 -36 -45 -60 -57 -55 -44 -40 -45 -33 -61 -34 -30 -27 -16 -20 -53 -71 -72 -52 -51 -35 -26 -38 -30 -56 
30 31 30 28 28 30 31 30 31 30 25 28 31 28 -8 -16 -21 -30 -36 -12 3 8 32 58 24 53 60 36 82 -50 46 39 -70 -58 -56 -47 -28 -32 -55 -14 -29 -6 -10 -52 -12 23 -4 57 33 15 12 -4 14 -46 -31 -53 -29 -21 23 -1 -32 -32 -70 -79 -70 -71 -74 -72 -57 -67 
-72 53 73 63 61 59 61 90 -52 -21 -22 -28 -48 -62 -33 -29 -22 -30 -57 54 52 49 40 39 39 35 31 33 35 34 33 33 33 32 32 32 33 33 33 33 32 31 31 31 30 31 29 29 30 30 30 30 31 31 32 30 28 35 32 32 30 35 30 32 30 31 27 30 28 30 
-52 -27 -63 8 -24 -50 -48 18 -4 -26 -26 -71 6 -45 -45 -26 -54 -27 -44 -40 -46 0 -32 -40 -35 -44 -39 -32 -13 -30 -40 -57 -6 -23 -49 -21 -47 -45 -21 -27 -60 -57 30 -36 -25 -29 -25 -30 -21 -1 13 -13 -30 -30 -25 -13 -45 -21 -25 -23 -58 -55 -71 -67 -75 -77 63 68 69 64 
-67 -68 -64 -59 -67 -61 -58 -30 -23 -31 18 -26 -45 -39 -70 -56 -62 -70 -65 -76 -72 43 -49 -63 -55 -59 -62 -49 -32 -60 -57 -49 -55 -27 -49 -54 -58 -39 -61 -19 -21 -32 -37 -42 -58 -52 -42 -58 -50 -51 -55 -60 -16 -58 -60 -9 -62 -20 -26 -58 -64 -64 -55 -46 -66 -57 -50 -3 -57 -52 
30 28 30 28 28 27 29 29 34 7 37 11 14 36 25 -4 5 -9 -50 -40 -61 -40 29 23 -55 -68 19 7 26 -30 -48 -66 -58 -58 -67 -55 -55 -58 -48 -54 -52 -45 -66 -53 -50 -52 -44 -38 -25 -26 -55 -60 -56 -74 -63 -67 -69 -62 -71 -55 -63 -56 -63 -67 -69 -63 -78 -55 -60 -57 
-70 -69 -76 -63 85 78 61 96 -55 -19 -55 -30 -20 -47 -30 3 -45 -31 -63 73 52 48 46 40 37 37 34 32 33 33 34 33 33 33 33 32 32 33 31 31 32 32 32 31 30 30 30 30 31 31 31 32 32 32 32 31 30 32 31 30 29 30 30 28 31 28 32 30 33 31 
-41 -23 18 -32 -49 -42 -35 -39 8 -74 -22 -13 -56 -58 -49 -18 -54 -21 -32 -46 -40 -30 -10 -36 -33 -27 -33 -33 11 -42 -49 -60 -3 -13 -57 -23 -55 -30 2 -21 -11 2 14 -24 -30 -21 -24 -24 -16 33 22 -20 -25 -21 -31 -20 -35 -21 -23 -1 -25 -20 -47 -56 -53 -63 -72 -68 -66 84 
-43 -26 -48 4 -19 -32 -33 -55 -31 14 -42 -11 -46 -49 -57 -15 -70 -26 -32 -65 -72 -38 -62 -58 -61 -56 -57 -48 -15 -38 -62 -57 -56 -25 -32 -49 -58 -69 -20 -51 -54 -26 -44 -34 -57 -32 -33 -52 -55 -50 -35 -22 -42 -58 -48 -49 -19 -52 -37 -63 -51 -77 -38 -39 -54 -29 -9 -6 -36 -39 
29 27 26 23 24 24 25 25 34 24 3 28 17 33 -69 -34 -5 48 -35 -27 -16 11 8 25 61 74 22 27 68 40 75 -54 -48 -27 -57 -43 0 -17 -24 -32 -12 -63 -31 -33 -32 -47 -34 -38 -31 -45 -52 1 -57 -54 -50 -20 -36 -44 -32 -50 -37 -39 -53 -31 -35 -62 -50 -14 -39 -47 
-33 -43 -43 -55 -66 -51 30 113 -43 -15 -17 -3 -12 -15 -16 -25 -22 -13 -60 77 58 52 47 42 40 36 33 33 33 31 32 31 31 33 33 31 31 34 29 30 32 32 32 31 30 30 30 30 29 29 29 29 30 30 35 30 30 30 31 22 22 24 23 24 23 25 25 27 27 28 
-49 -17 -50 -6 -43 -27 -18 -64 -18 -35 -55 -11 -1 -51 -47 -23 20 0 -37 -47 -26 -8 -30 -26 -26 -27 -32 -27 2 -19 -41 -36 -29 -29 -56 8 -41 8 6 -6 -58 -2 6 -29 -29 -33 -20 -34 -9 7 5 -31 -31 -22 -26 -20 -22 -17 -31 -1 -16 -44 -12 -21 -27 -38 -42 -37 -49 21 
-39 -30 -43 28 -18 -48 -20 8 -57 -44 -26 -45 -68 -47 -15 -34 -60 -54 -52 -33 -55 -73 -71 -76 -46 -48 -46 -42 -35 -40 -51 -32 -56 -69 -58 -26 -29 -23 11 -75 -51 -62 63 -53 -52 -14 -35 -50 -49 -41 -29 -28 -42 -46 -41 -16 -20 -49 -60 -68 -75 -24 -24 -54 -44 -18 -63 -17 -20 8 
27 26 30 30 31 30 32 42 12 12 31 29 5 13 -65 -62 -65 -66 -73 -65 -66 -65 -69 -68 -67 -78 -77 -55 10 26 -29 -67 -43 -49 -56 -67 -34 -52 -48 -5 -63 -7 -40 -20 -49 -58 -47 -37 -24 -63 -58 -60 -55 -60 -52 -60 -64 -30 -37 -46 -45 -41 -63 -48 -59 -45 -30 -48 -68 -58 
-26 -36 -21 -20 -21 -10 -11 4 15 22 6 -7 -20 -28 -23 -16 -34 -24 -43 43 72 51 51 47 43 40 39 36 36 35 38 36 32 28 27 26 27 26 24 25 23 25 27 28 30 28 30 28 28 30 30 30 30 30 29 29 30 27 29 30 31 28 30 31 26 32 27 34 30 33 
-45 -43 0 -17 -41 -37 -76 -59 -76 -10 -40 -54 -13 -51 -31 28 -78 -45 -45 -53 -28 -42 -60 -31 -24 -21 -50 -17 -19 -14 -7 -11 -33 -34 -10 -15 -32 -32 -40 -31 -52 -52 -26 -33 -23 -25 -27 -30 -19 -17 7 -17 -24 -33 -1 -22 -22 -13 -25 -16 -27 -26 -24 -24 -39 -23 -33 -17 -15 -36 
-51 -55 -53 -11 -24 -34 -1 53 27 31 -3 -62 -34 32 -63 -56 -69 -59 -38 -37 -45 -65 -71 -62 -51 -53 -38 -17 -57 -69 -55 -51 -36 -25 -11 -45 -55 -45 -30 -17 -16 -70 -47 -31 -57 -5 -37 -49 -47 -41 -26 -12 -66 -49 -45 -17 -37 -38 -70 -74 -64 13 -27 -61 -58 -35 -3 -18 -45 -53 
29 32 30 33 33 34 33 32 0 43 17 29 20 6 -68 -69 -67 -41 -50 -62 -70 -63 -68 -60 -62 -69 -69 -12 -1 45 58 -74 -35 -44 -31 -70 0 -61 -20 -64 -54 -41 -14 -75 -55 -52 -45 -59 -42 -25 -51 -49 -65 -35 -38 -63 -61 -44 -39 -58 -38 -53 -64 -52 -54 -64 -61 -21 23 -8 
-28 -33 -44 -27 -13 -10 -5 66 158 168 141 25 0 -11 -18 -21 -30 -32 -36 -48 23 68 57 53 48 44 40 37 35 36 37 36 35 35 34 33 34 34 33 34 31 33 34 34 36 34 34 34 34 34 33 32 33 34 31 31 28 30 27 30 28 29 24 25 24 27 25 29 27 28 
-46 -51 9 -34 -34 -77 -78 -67 -40 -41 -35 -45 -43 -54 -27 -10 -45 -46 -41 -42 -19 2 -14 -42 -37 -34 -41 -34 -31 -25 -28 -29 -37 -31 -21 -27 -23 -32 -25 -11 -21 -21 -23 -30 -18 -25 -10 -5 -24 -27 -38 -32 -22 -26 -22 -43 -47 -2 -35 3 -30 -12 -20 -30 -47 -33 -26 -16 -3 -12 
-45 -41 -41 -54 -53 -52 -44 -26 -32 -77 -50 -37 -62 -56 -28 -47 -31 -43 -10 -9 -6 -61 -57 -8 -60 -64 -18 -27 -31 -43 -47 -55 -52 -58 -63 -59 -67 -42 -41 -36 -30 -41 -58 -72 -55 -62 -46 -21 -55 -52 -56 -37 -21 -41 -60 -30 -50 -37 -69 -72 -60 11 -21 -56 -49 -58 -34 -48 -52 -76 
28 35 29 34 33 36 40 26 9 46 3 27 36 -7 -62 -67 -70 -68 -66 -77 -68 -70 -70 -62 -72 -70 -79 -37 41 42 -5 -61 -46 -44 -44 -40 -72 -6 -36 -53 -26 -26 -35 -45 -21 -69 -54 -56 -46 -16 -55 -65 -53 -22 -42 -73 -37 -48 -58 -37 -30 -43 -64 -59 -57 -51 -59 -46 -3 11 
-38 -20 -30 -17 -1 -1 -2 -14 -3 6 -1 -5 -14 -21 -34 -29 -38 -38 -46 -44 63 72 54 50 45 44 43 42 39 39 38 36 33 32 33 33 35 37 34 34 31 33 35 33 35 33 32 30 29 31 33 33 31 31 32 30 33 31 33 29 31 29 31 32 35 33 36 34 39 41 
-57 -57 -1 -61 -79 -16 -21 -23 -3 -20 -56 -41 -41 -51 -37 -23 -31 -29 -28 -57 -28 -18 -15 -25 -29 -39 -33 -43 -36 -47 -42 -36 -37 -44 -27 -37 -40 -28 -25 -33 -32 -32 -36 -45 -27 -36 -29 -24 -33 -9 21 -11 -37 -44 -10 -16 -24 -37 -35 3 -26 -29 -16 -27 -27 -19 -22 -17 -22 -31 
14 -18 -79 -63 -40 -25 -22 -59 -53 -45 -42 -23 -57 -58 -75 -71 -77 -71 -61 -48 -60 -62 -63 -65 -59 -66 -62 -63 -50 -56 -60 -72 -64 -52 -26 -48 -60 -44 -45 -23 -29 -43 -40 -45 -37 -65 -56 -53 -57 -45 -41 -54 -35 -39 -45 9 -35 -38 -70 -60 -59 -40 -26 -61 -46 -56 -3 -80 -34 -19 
36 31 37 41 35 39 21 18 24 49 44 39 -17 -34 -66 -67 -60 -69 -62 -59 -69 -72 -74 -66 -71 -71 -74 -14 -9 -49 -40 -58 -48 -40 -42 -31 -66 -71 -60 -64 -58 20 26 -44 -63 -58 -59 -48 -40 -18 -51 -58 -33 -36 -45 -36 23 -24 -46 -70 -29 -37 44 -17 -75 -68 -55 -46 -64 -61 
-17 -26 -24 -34 -10 -19 -25 -36 -14 -29 -18 -30 -36 -27 -29 -48 -48 -45 -38 -35 -45 48 7 -4 54 47 47 37 46 39 38 33 39 42 33 34 35 26 32 33 33 33 32 33 32 30 35 33 32 31 29 26 27 29 29 28 25 28 28 34 34 35 34 34 31 38 36 37 43 45 
-51 -39 -67 -53 -50 -34 -18 -38 -25 -56 -38 -47 -38 -59 -32 -41 -29 -42 -52 -48 -30 -9 -9 -23 -22 -24 -28 -24 -22 -22 -40 -31 -42 -22 -46 -50 -48 -61 -36 -52 -52 -47 -14 -47 -24 -25 -29 -35 -35 -38 -15 -18 -35 -40 -20 -29 -29 -41 -33 -22 -24 -48 -41 -32 -11 -21 -26 -23 -30 -33 
-60 -59 -45 -60 -57 -43 -58 -40 -51 -53 -51 -38 -49 -47 -64 -74 -49 -65 -63 -37 -31 -63 -73 -64 -58 -61 -52 -33 -41 -55 -53 -51 -52 -54 -53 -46 -45 -43 -40 -36 -11 -27 -58 -38 -26 -39 -62 -72 -55 -26 -48 -48 -47 -45 -58 -8 -49 -66 -74 -72 -74 35 -20 -60 -50 -33 -72 -34 -2 -13 
45 39 44 46 57 31 39 35 5 5 33 23 -1 -30 -69 -77 -67 -60 -66 -60 -72 -75 -57 -54 -69 -78 -68 46 57 7 -52 -53 -45 -37 -41 -35 -47 -76 -15 23 -54 -62 -27 -11 -20 -21 -15 -30 32 -37 -53 -62 -39 -47 32 -74 -42 -42 -40 -55 -46 -47 -36 -48 -50 -57 -48 -29 -33 4 
-36 -28 -35 -26 -24 -22 -43 -39 -34 -42 -44 -33 -49 -24 -47 -45 -53 -39 -39 -43 -20 61 33 63 60 51 58 38 -16 -56 6 42 46 28 31 34 30 37 39 37 37 37 37 37 37 38 39 36 35 37 37 36 36 36 32 33 32 34 32 36 38 40 39 47 40 49 50 59 61 64 
-52 -75 -38 -38 -58 -55 -48 -42 -8 -30 -29 -24 -40 -47 -28 -41 -56 11 -50 -36 -45 -54 -19 -61 -30 -46 -46 -43 -3 -45 -12 -6 8 -16 -43 16 -55 -36 2 -31 -32 -33 15 -28 -17 -8 29 11 17 -28 -17 -8 -36 -32 -40 -24 -59 -30 -27 -22 -40 -51 -36 -41 -36 -35 -37 -41 -41 -48 
-40 -41 -14 -27 -47 -41 -37 -32 -34 -59 -52 -28 -70 -67 -50 -55 -52 -64 -43 -49 -49 -42 -76 -45 -48 -59 -55 -58 -46 -46 -54 -45 -50 -43 -41 -46 -56 -51 -19 -17 -31 -52 -27 -62 -52 -15 -47 -44 -57 -75 51 -22 -79 -71 -75 37 -35 -75 -69 -79 18 6 -33 -51 -60 -78 -14 -44 -40 -42 
-69 -71 -70 -69 -65 -72 -62 -18 -29 -45 5 -32 -57 -64 -63 -71 -55 -66 -54 -57 -70 -78 -55 -38 -60 -74 -38 62 49 -37 -63 -56 -39 -29 -32 -21 -41 -77 -76 -71 -27 -40 -50 -57 -32 -36 -28 -38 -13 -48 -48 27 -14 -24 -10 -39 -55 -57 -52 -32 -45 -37 -53 -38 -41 -44 -29 -40 -48 -16 
-28 -31 -27 -33 -30 -45 -20 -23 -31 -38 -47 -49 -45 -39 -50 -19 -35 -36 -32 -53 -21 68 46 35 47 58 57 52 49 47 51 40 49 49 41 47 44 39 42 48 48 49 50 47 59 62 66 61 63 49 47 45 49 42 45 40 49 45 47 52 57 75 -11 -79 -49 -53 -57 -54 -64 20 
-62 -62 -22 -35 -43 -27 -44 -31 -20 -32 -33 -10 -6 -49 -32 -35 -45 10 -32 -49 -33 -29 -32 2 -11 1 -34 -25 -10 -45 -48 -54 -14 -16 -43 -1 -36 -29 8 -39 -53 -41 -30 -33 -22 2 28 33 9 -21 2 -24 -33 -39 -33 -21 -38 -13 -30 -16 -35 -48 -36 -31 -25 -45 -26 -29 -24 -34 
