P2
110 110
255
32 35 33 36 35 37 34 35 33 37 34 37 35 37 31 36 38 38 33 34 36 40 38 38 38 39 39 38 38 39 38 39 39 39 39 40 40 39 42 39 40 38 42 43 42 46 48 46 36 50 42 36 34 58 40 55 41 36 34 37 49 31 31 40 23 63 45 69 54 83 12 0 0 0 0 0 0 0 0 0 0 0 26 48 40 66 85 12 0 0 0 0 0 60 16 94 24 43 28 54 50 87 0 0 36 24 26 20 2 47 
30 34 32 34 32 34 35 35 34 36 35 36 34 35 36 36 32 35 35 42 38 36 34 37 41 42 40 38 37 37 40 40 39 38 38 40 41 42 41 45 41 44 43 34 39 43 44 50 29 62 38 14 44 37 45 49 26 69 4 45 39 27 45 24 28 53 68 61 56 0 0 0 0 0 0 0 0 0 0 0 0 0 44 51 61 73 74 75 0 0 0 0 0 0 71 55 38 50 68 38 58 41 74 0 37 47 3 0 30 29 
32 35 33 35 33 33 35 34 36 34 36 34 35 34 37 37 33 36 36 41 38 36 37 37 36 36 38 38 38 36 39 39 38 37 38 40 41 41 44 37 49 41 43 46 32 50 34 55 29 59 29 15 75 31 42 60 31 81 14 16 36 27 64 9 49 38 80 45 89 40 0 0 0 0 0 0 0 0 0 0 0 0 73 56 68 58 43 74 0 0 0 0 0 0 83 26 74 10 61 44 54 40 24 21 0 6 66 0 25 68 
32 36 34 36 34 35 34 33 36 33 36 34 37 35 32 37 40 40 34 35 37 41 36 37 38 37 37 38 39 39 38 39 40 39 40 41 41 41 43 39 39 42 46 49 36 47 44 47 42 60 35 0 22 44 45 43 57 33 17 33 0 21 0 24 58 30 89 58 6 0 0 0 0 0 0 0 0 0 0 0 0 0 0 74 38 50 19 90 0 0 0 0 0 40 27 73 41 30 39 17 54 27 33 74 0 0 72 0 71 48 
32 35 34 36 34 35 34 35 35 34 35 36 37 36 36 35 37 37 39 38 38 38 34 38 41 41 39 38 39 40 38 40 40 41 41 42 42 42 47 42 43 44 45 52 26 38 53 50 37 55 59 19 0 37 31 31 55 56 18 49 0 0 0 0 71 58 63 34 0 0 0 0 0 0 0 0 0 34 0 4 0 0 0 36 40 55 21 93 0 0 0 0 0 53 76 16 57 45 46 14 10 35 18 52 2 19 25 0 83 54 
32 35 33 35 34 35 35 37 35 36 33 37 36 36 36 33 38 37 41 36 38 39 39 38 36 36 39 42 41 38 38 39 39 39 39 41 42 42 39 46 41 51 49 51 30 36 44 47 47 63 53 13 0 35 2 39 42 79 19 11 0 0 0 0 0 20 0 0 0 0 0 0 0 0 0 0 0 0 2 0 76 0 0 3 56 5 48 121 0 0 0 0 0 77 56 54 0 25 8 4 8 31 29 64 18 0 105 0 58 44 
35 35 34 35 36 38 36 35 39 35 38 35 38 35 39 39 38 37 36 38 38 37 37 37 39 40 39 38 39 40 39 38 39 39 37 46 39 42 46 35 47 43 47 57 37 30 64 43 52 48 54 11 0 35 3 63 27 59 35 26 0 0 0 0 0 0 0 0 0 0 0 0 0 0 0 0 0 0 0 0 31 0 0 0 40 17 44 102 0 0 0 0 0 93 69 78 69 23 13 51 55 8 33 52 35 0 43 0 41 51 
34 34 34 35 36 36 37 37 39 34 38 37 39 36 36 36 37 37 38 39 40 38 37 36 36 38 39 38 39 39 41 38 41 42 41 45 39 43 38 36 36 48 57 57 36 28 56 22 49 41 47 64 0 0 30 31 26 63 71 14 0 0 0 0 0 0 0 0 0 0 0 0 0 0 0 0 0 0 0 0 0 0 0 0 0 66 54 91 0 0 0 0 0 94 77 45 68 82 0 47 63 56 0 16 53 0 60 0 63 10 
35 35 36 37 37 37 37 37 38 36 38 38 38 37 35 36 37 37 37 39 39 38 38 37 36 37 39 39 39 40 42 39 41 42 43 41 40 43 42 55 24 52 52 40 55 17 46 12 50 61 15 54 0 0 5 32 28 26 46 56 0 0 0 0 0 0 0 0 0 0 0 0 0 0 0 0 5 0 0 0 0 0 0 0 0 0 38 104 0 0 0 0 0 77 75 61 42 65 52 0 77 45 38 17 34 0 0 18 0 62 
36 36 36 37 37 37 37 38 39 38 38 37 38 38 36 37 37 37 38 39 38 37 38 37 37 39 40 40 40 40 42 41 40 42 41 40 42 43 51 48 25 52 59 25 44 24 7 6 24 65 0 18 52 0 27 25 45 50 25 10 0 0 0 0 0 0 0 0 0 0 0 0 0 0 0 0 0 0 0 0 0 0 0 0 0 0 0 49 0 0 0 0 0 74 65 74 48 45 48 0 31 32 34 60 10 6 0 24 34 47 
36 36 34 33 34 35 35 38 40 40 37 37 36 37 36 36 37 36 38 39 41 40 37 37 39 40 40 39 39 41 40 44 41 44 41 40 44 44 44 50 37 38 66 21 41 55 0 43 22 23 9 25 14 11 34 19 11 60 0 0 0 0 0 0 0 0 0 0 0 0 9 0 0 0 0 3 0 0 0 0 0 0 0 0 0 0 16 0 0 0 0 0 0 67 4 69 66 40 52 0 56 0 18 97 17 27 0 81 44 59 
36 36 35 34 35 37 35 39 39 40 37 38 36 37 38 38 37 36 38 39 40 39 36 37 39 40 40 39 39 41 38 43 42 45 43 36 45 44 54 51 31 16 62 36 54 56 29 0 32 0 11 40 10 0 68 0 61 0 0 0 0 0 0 0 0 0 0 0 0 0 0 38 0 0 0 0 0 0 0 0 0 0 0 0 0 0 8 0 0 0 0 0 0 55 106 51 32 25 87 67 0 47 0 56 76 16 0 99 43 65 
36 37 37 37 38 39 37 39 38 40 37 40 37 37 41 39 38 37 39 40 39 38 38 38 38 39 40 39 41 42 41 41 42 43 48 29 46 47 52 36 40 23 48 28 35 56 31 2 0 0 0 44 14 15 82 15 0 0 0 0 0 0 0 0 0 0 0 0 0 0 0 0 0 0 0 0 0 0 0 0 0 0 0 0 0 0 35 0 0 0 0 0 0 69 75 75 82 75 21 0 41 91 0 25 11 75 0 22 87 18 
37 37 37 36 36 36 39 39 36 38 37 42 39 38 40 39 38 38 40 41 40 38 40 39 39 40 41 42 42 43 47 41 44 41 51 23 48 52 56 50 30 22 47 30 38 53 61 51 0 0 16 6 10 54 70 0 0 0 0 0 0 0 0 0 0 0 0 0 0 0 0 0 1 0 0 0 0 0 0 0 0 0 0 0 0 0 52 0 0 0 0 0 0 0 73 84 60 67 76 41 29 0 37 0 48 61 0 72 33 42 
40 37 37 36 30 44 38 40 29 40 39 48 32 40 39 41 36 39 43 43 40 42 38 42 38 43 46 39 45 36 46 37 48 46 48 32 48 51 50 57 32 23 23 42 14 49 21 73 0 0 5 0 4 7 23 0 0 0 0 0 0 0 0 0 0 0 0 0 0 0 0 0 0 0 0 0 0 0 0 0 0 0 0 0 0 0 0 0 0 0 0 0 0 0 48 8 44 15 37 15 88 48 0 69 13 46 0 77 49 78 
33 35 37 43 33 35 43 39 16 41 42 41 29 43 39 46 44 41 40 42 42 38 42 43 40 44 45 44 40 31 44 38 45 48 53 34 53 48 58 60 54 14 61 18 8 29 0 22 45 0 0 28 39 0 0 0 0 0 0 0 0 0 0 0 0 0 0 0 0 0 0 0 0 0 0 0 0 0 0 0 0 0 0 0 0 64 51 0 0 0 0 0 0 0 0 53 87 66 43 27 23 37 0 111 9 51 0 80 65 85 
32 44 42 39 37 14 29 41 19 39 45 46 31 45 48 46 46 41 40 38 43 43 41 42 41 41 41 46 37 36 41 29 38 51 52 30 47 58 43 62 33 2 54 12 0 58 39 30 0 10 0 11 15 0 0 0 0 0 0 0 0 0 0 0 0 4 0 0 0 0 4 0 0 0 0 0 0 0 0 0 0 0 0 0 0 0 0 0 0 0 0 0 0 0 0 51 71 39 36 53 24 49 31 19 49 38 0 38 61 57 
39 40 34 37 46 35 19 40 7 57 35 30 43 47 50 36 49 38 44 39 42 44 43 43 44 41 46 50 32 37 30 50 21 46 43 19 58 48 57 52 58 60 15 19 18 0 0 39 58 0 38 35 37 0 0 0 0 0 0 0 0 0 0 0 0 0 0 0 0 0 0 0 0 0 0 0 1 0 0 0 0 0 0 0 0 0 0 0 0 0 0 0 0 0 47 89 34 41 40 28 0 37 40 0 62 63 0 9 46 71 
40 43 34 25 31 34 29 9 31 53 24 25 53 37 41 27 51 32 48 47 44 39 43 43 44 41 51 49 24 25 37 61 13 41 41 22 54 40 63 34 53 65 46 5 20 0 56 52 27 0 8 44 0 0 0 0 0 0 0 0 0 0 0 0 0 0 0 0 0 0 0 0 0 3 0 15 12 0 0 0 0 0 0 0 0 0 0 0 0 0 0 0 0 0 0 66 39 67 55 53 37 19 44 13 8 61 0 0 82 81 
39 43 39 36 26 42 32 22 27 37 16 44 46 41 35 22 42 30 49 48 47 44 46 51 50 48 47 51 37 34 38 45 28 34 44 27 36 50 66 27 47 63 81 27 11 65 48 45 25 22 45 14 0 0 0 0 0 0 0 0 0 0 0 0 0 9 0 0 0 0 0 0 0 105 50 22 21 0 0 0 0 0 0 0 2 0 0 0 0 0 0 0 0 0 0 63 58 27 63 55 72 4 93 67 0 62 0 0 57 35 
48 44 40 41 17 14 57 2 21 13 15 44 48 50 24 18 25 33 49 46 49 51 42 47 41 49 29 48 45 26 23 45 51 21 46 22 35 44 70 23 46 52 56 69 7 15 65 67 21 54 38 25 0 0 0 0 0 0 0 0 0 0 0 0 0 0 0 0 0 0 0 55 94 97 164 105 37 56 0 0 0 0 0 0 8 16 0 0 0 0 0 0 0 0 0 0 68 70 42 32 76 13 47 23 0 89 0 23 0 77 
38 52 46 26 60 3 40 12 16 0 41 38 39 40 2 17 16 34 47 48 53 45 51 50 38 55 26 57 50 7 30 41 72 10 49 17 19 34 68 24 55 41 36 50 38 31 61 33 29 79 5 0 0 0 0 33 0 68 26 0 0 0 0 0 0 0 0 0 0 0 0 0 30 0 26 0 0 0 0 0 0 0 0 0 37 25 37 0 5 0 0 0 0 0 0 0 55 50 49 104 11 0 57 55 43 30 0 73 0 130 
30 51 55 13 38 12 19 12 0 4 35 39 52 18 12 2 7 43 40 54 47 51 54 56 52 37 26 52 63 15 11 54 39 15 48 10 25 34 45 46 34 43 72 19 72 30 60 58 7 88 65 0 0 0 0 47 15 70 27 11 0 0 0 0 0 0 0 0 0 0 0 0 0 0 0 0 0 0 0 0 0 0 0 0 0 0 177 0 0 0 0 0 0 0 0 0 0 103 54 32 0 5 0 15 72 0 0 36 73 0 
27 48 51 31 18 22 14 0 0 0 41 48 25 7 0 0 18 31 57 49 54 57 54 61 46 58 37 39 66 22 0 64 28 49 11 18 50 9 49 45 24 71 30 42 37 45 37 29 22 47 48 0 0 0 40 27 64 143 0 0 0 0 0 0 0 0 0 0 0 0 0 0 0 0 0 0 0 0 0 0 0 0 0 0 0 0 0 0 0 0 0 0 0 0 0 0 0 86 53 78 49 0 35 40 0 21 0 71 91 0 
35 39 53 48 25 49 0 0 9 0 52 25 32 0 2 0 0 46 58 45 55 73 49 53 57 56 43 29 63 54 0 38 43 18 51 0 43 31 43 0 24 68 32 36 23 58 72 38 12 84 17 0 0 36 86 0 0 0 0 0 0 0 0 0 0 0 0 0 0 0 0 0 0 0 0 0 0 0 0 0 0 0 0 0 0 0 0 0 0 0 0 0 0 0 0 0 0 35 51 43 82 15 9 9 73 32 0 30 48 0 
29 29 51 69 39 12 0 47 0 2 44 11 5 18 0 23 21 62 31 61 48 0 0 0 0 42 53 42 45 48 14 39 47 25 56 5 48 0 64 1 4 78 38 58 12 31 82 63 1 0 0 0 0 0 0 0 0 0 0 0 0 0 0 0 0 0 0 0 0 0 0 0 0 0 0 0 0 0 0 0 0 0 0 0 0 0 0 0 0 0 0 0 0 0 2 0 0 11 30 34 41 40 59 31 0 6 0 62 0 34 
39 0 10 47 44 44 0 0 42 1 32 33 3 0 0 18 31 25 65 7 0 0 0 0 0 15 37 61 27 59 32 0 15 30 66 13 34 12 44 33 25 15 58 49 33 0 0 0 0 0 0 0 0 0 0 0 0 0 0 0 0 0 0 0 0 0 0 0 0 0 0 0 0 0 0 0 0 0 0 0 0 0 0 0 0 0 0 0 0 0 0 0 0 0 42 39 0 0 124 4 71 79 37 2 13 43 0 0 0 81 
40 48 0 18 43 21 0 0 69 23 16 34 47 0 0 23 29 80 31 0 0 0 0 0 0 41 34 49 46 40 24 42 54 13 60 31 44 15 0 48 55 17 29 39 35 52 0 0 0 0 0 0 0 0 0 0 0 0 0 0 0 0 0 0 0 0 0 0 0 0 0 0 0 0 0 0 0 0 0 0 0 5 0 0 0 0 0 0 0 0 0 0 0 0 0 81 0 0 122 91 29 80 0 25 19 48 0 0 28 25 
29 14 55 0 0 28 0 6 27 31 43 28 36 0 21 11 0 0 0 0 0 0 0 36 58 78 20 30 34 70 10 53 60 9 42 84 0 27 43 6 68 55 0 40 15 37 60 28 15 0 0 0 0 0 0 0 0 0 0 0 0 0 0 0 0 0 0 0 0 0 0 0 0 0 0 0 0 0 0 0 0 0 0 0 0 0 0 0 0 0 0 0 0 0 0 0 0 0 0 94 83 12 24 0 36 66 0 0 40 71 
19 39 9 29 0 8 0 0 11 34 41 0 75 0 0 0 0 38 77 84 83 66 74 77 51 66 57 45 24 16 11 63 20 3 56 38 0 14 0 35 0 8 30 0 31 0 30 29 0 0 0 0 0 0 0 0 0 0 0 0 0 0 0 0 0 0 0 0 0 0 0 0 0 0 0 0 0 0 0 3 20 0 0 0 0 0 0 0 0 0 0 0 0 0 0 0 0 0 0 9 83 51 0 14 31 108 0 1 42 32 
35 29 42 63 24 29 0 0 0 32 29 34 30 0 0 29 68 75 69 72 45 59 53 53 33 54 0 0 0 0 0 45 30 10 0 20 0 0 26 0 17 86 74 42 29 2 37 52 0 0 0 0 0 0 0 0 0 2 0 0 0 0 0 0 0 0 0 0 0 0 0 0 0 0 0 0 0 0 0 0 0 24 0 0 0 0 0 0 0 0 0 0 0 0 0 0 0 0 0 38 14 60 0 0 101 104 0 14 65 47 
25 31 0 64 52 0 38 0 17 2 60 15 25 0 1 73 70 70 75 49 55 16 30 41 34 0 27 25 19 13 0 0 11 5 19 11 0 18 73 40 96 25 68 79 13 0 0 10 0 0 0 0 0 0 0 0 0 0 0 0 0 0 0 0 0 0 0 0 0 0 0 0 0 0 0 0 0 0 0 0 38 0 0 0 0 0 0 0 0 0 0 0 0 0 0 0 0 0 0 0 80 3 0 80 87 5 0 52 37 65 
0 11 31 0 47 14 58 12 57 0 32 86 0 0 52 73 72 71 64 68 36 47 1 44 19 20 0 17 0 0 9 0 29 22 0 0 24 31 70 67 0 63 0 56 58 0 14 74 0 0 0 0 0 0 0 0 0 0 0 0 0 0 0 0 0 0 0 0 0 0 0 0 0 0 0 0 0 0 0 18 6 6 0 0 0 0 0 0 0 0 0 0 0 0 0 0 0 0 0 0 0 0 0 63 126 0 0 101 26 32 
67 18 35 33 6 5 36 29 45 25 0 8 0 0 66 62 65 73 71 52 65 42 24 6 24 18 0 0 0 0 0 0 33 15 0 0 47 52 17 60 64 21 24 9 18 0 23 30 37 2 0 0 0 0 0 0 0 0 0 0 0 0 0 0 0 0 0 0 0 0 0 0 0 0 0 0 0 0 0 0 15 13 0 0 0 0 0 0 0 0 0 0 0 0 0 0 0 0 0 0 0 0 0 0 15 0 0 62 49 67 
15 7 18 0 0 10 0 49 17 26 0 0 6 0 67 65 61 55 72 18 53 45 84 0 0 0 0 0 0 0 0 0 64 0 39 37 66 91 17 18 39 30 12 33 91 36 0 0 5 0 0 0 0 0 0 0 0 0 0 0 0 0 0 0 0 0 0 0 0 0 0 0 0 0 0 0 0 0 0 0 2 3 0 0 0 0 0 0 0 0 0 0 0 0 0 0 0 0 0 0 0 0 0 0 0 0 19 74 67 103 
49 32 25 2 0 0 24 0 32 45 4 0 0 51 62 68 66 23 48 6 3 0 25 0 0 0 0 0 0 0 0 0 0 0 66 18 87 59 0 50 22 65 29 49 0 11 0 28 0 0 0 0 0 0 0 0 0 0 0 0 0 1 11 0 0 0 7 0 0 0 0 0 0 0 0 0 0 0 0 0 0 0 0 0 0 0 0 0 0 0 0 0 0 0 0 0 0 0 0 0 0 0 0 0 0 0 0 0 87 61 
0 5 57 59 34 0 19 0 32 16 0 0 0 51 58 69 60 41 49 37 26 7 0 15 12 5 36 10 0 0 0 0 0 96 0 49 0 37 81 0 33 57 9 1 86 22 0 0 0 0 0 0 0 0 0 0 0 0 0 0 0 6 33 0 0 0 0 0 0 0 0 0 0 0 0 1 0 0 0 0 0 3 0 0 0 0 0 0 0 0 0 0 0 0 0 0 0 0 0 0 0 0 0 0 0 0 0 0 0 48 
0 22 0 30 23 0 0 78 19 2 0 35 0 75 82 60 62 58 45 3 75 0 0 12 0 21 46 20 0 19 0 0 0 71 77 28 3 13 62 0 10 22 20 8 75 9 0 0 0 0 0 0 0 0 0 0 0 0 0 0 0 0 0 0 0 0 0 0 0 0 0 0 0 0 0 0 0 0 0 11 17 0 0 0 0 0 0 0 0 0 0 0 0 0 0 45 0 0 0 0 0 0 0 0 0 0 0 0 0 0 
0 0 44 11 24 0 0 46 37 15 0 63 0 73 79 72 82 36 6 70 25 0 52 8 1 6 0 49 24 0 0 0 0 0 57 41 9 33 95 0 50 0 0 0 21 70 0 0 0 0 0 0 0 0 0 0 0 0 0 0 0 0 28 0 0 18 0 0 0 0 0 0 0 0 0 0 0 0 0 4 0 9 0 0 0 0 0 0 0 0 0 0 0 0 0 0 0 0 0 0 0 0 0 0 0 0 0 0 0 0 
0 0 23 74 20 29 0 51 26 0 0 83 0 61 55 56 55 57 50 11 0 0 11 0 53 0 0 19 0 0 0 0 0 0 50 51 0 0 45 11 11 30 36 0 0 38 0 0 0 0 0 0 0 0 0 0 0 0 0 0 0 0 0 0 0 20 0 0 0 0 0 0 0 0 0 0 0 0 0 0 2 0 0 0 0 0 0 0 0 0 0 0 0 0 0 0 0 0 0 0 0 0 0 0 0 0 0 0 0 0 
27 0 0 3 0 19 0 14 46 0 93 33 22 0 92 85 77 7 34 0 52 0 0 0 18 18 0 0 14 0 0 0 0 0 0 44 93 24 0 0 0 45 55 75 0 0 0 0 0 0 0 0 0 0 0 0 0 0 0 0 0 0 0 0 0 0 0 0 0 33 0 0 0 0 0 0 0 0 0 0 0 0 0 0 0 0 0 0 0 0 0 0 0 0 0 0 0 0 0 0 0 0 0 0 0 0 0 0 0 0 
33 1 71 0 30 41 0 0 40 0 79 0 0 32 91 67 29 90 0 36 0 52 21 50 0 0 0 0 19 0 0 0 0 0 0 17 43 26 0 0 2 0 0 41 36 0 0 0 0 0 0 0 0 0 0 0 0 0 0 0 0 0 0 0 0 0 0 0 0 0 2 0 0 5 0 7 1 0 0 0 0 0 0 0 0 0 0 0 0 0 0 0 0 0 0 0 0 0 0 0 0 0 0 0 0 0 0 0 0 0 
26 0 54 105 0 46 21 0 0 0 69 55 0 42 68 33 95 0 0 0 0 0 24 16 0 0 0 55 19 0 0 0 0 0 0 0 87 18 20 0 10 25 0 5 0 32 0 0 0 0 0 0 0 0 0 0 0 0 0 0 0 0 0 0 0 0 0 0 0 0 0 0 0 0 0 0 6 0 0 0 0 0 0 0 0 0 0 0 0 0 0 0 0 0 10 0 0 0 0 0 0 0 0 0 0 0 0 0 0 0 
0 0 0 0 0 79 66 0 3 0 48 38 4 89 12 55 0 0 33 0 0 0 0 0 25 0 11 37 5 0 0 0 0 0 0 0 47 64 74 25 0 0 14 43 3 0 0 0 0 0 0 0 0 0 0 0 0 0 0 0 0 0 0 0 0 0 0 0 0 0 0 0 0 0 0 0 0 0 0 0 0 0 0 0 0 0 0 0 0 0 0 0 0 0 0 0 0 0 0 0 0 0 0 0 0 0 0 0 0 0 
0 0 0 14 37 0 58 0 0 10 32 89 11 63 34 0 0 39 1 0 0 0 0 14 0 0 12 0 0 0 0 0 0 0 0 0 0 102 32 102 3 2 66 1 100 0 0 0 0 0 0 0 0 0 0 0 0 0 0 0 0 0 0 0 0 0 0 0 0 0 0 0 0 0 0 0 0 0 0 0 0 0 0 0 0 0 0 0 0 0 0 0 0 0 0 0 0 0 0 0 0 0 0 0 0 0 0 4 0 0 
4 24 9 0 68 76 4 0 0 3 36 47 1 93 0 0 9 0 0 0 0 0 37 0 0 0 0 0 0 0 0 0 0 0 0 0 0 12 47 141 0 17 31 0 68 0 0 0 21 0 0 0 0 0 0 0 0 0 0 3 0 0 0 0 0 0 0 0 0 0 0 0 0 0 0 0 0 0 0 0 0 0 0 0 0 0 0 0 0 0 15 0 0 0 0 0 20 0 0 15 42 40 0 0 0 0 0 0 0 0 
0 0 21 0 0 75 0 0 0 0 54 18 13 85 0 2 0 0 41 0 0 0 4 0 8 35 0 20 0 0 0 0 0 0 0 0 0 0 131 0 5 6 0 65 0 0 0 0 0 0 0 0 0 0 0 0 0 0 0 0 16 0 0 0 0 0 0 0 0 0 0 0 0 0 0 0 0 0 0 0 0 0 0 0 0 0 0 1 40 0 105 0 0 0 0 0 0 45 35 9 0 0 0 0 0 0 0 0 5 0 
95 22 0 31 0 29 16 0 0 0 97 72 0 15 0 14 0 7 13 0 0 0 0 0 105 0 4 0 0 0 0 0 0 0 0 0 0 0 0 19 0 21 0 44 14 0 0 0 0 0 0 0 0 0 0 0 0 0 0 0 0 0 0 0 0 0 0 0 0 0 0 0 0 0 0 0 0 0 0 0 0 0 0 0 0 0 0 0 0 0 0 0 0 0 0 0 0 0 0 0 0 0 0 0 0 0 0 0 0 0 
55 53 64 92 119 0 59 0 0 12 65 0 0 0 23 16 43 0 0 75 7 73 18 141 153 91 19 0 0 0 50 0 0 0 0 0 0 0 0 0 20 8 20 0 0 0 0 0 0 0 0 0 0 0 0 0 0 0 28 0 0 0 0 0 0 0 0 0 0 0 0 0 0 0 0 0 0 0 0 0 0 0 0 0 0 0 0 0 0 0 0 0 0 0 0 0 0 0 0 0 0 0 0 0 0 0 0 0 0 0 
8 37 17 13 38 63 0 0 0 0 38 0 62 118 0 101 75 36 65 66 0 85 154 171 111 119 60 0 1 59 150 0 0 0 0 0 0 0 0 0 21 89 83 0 0 0 0 0 0 0 0 0 0 0 0 0 0 0 0 0 0 0 0 0 0 0 0 0 0 0 0 0 0 0 0 0 0 0 0 0 0 0 0 0 0 0 0 0 0 0 0 0 0 0 0 0 0 0 0 0 0 0 0 0 0 0 0 0 0 0 
87 97 79 36 82 44 76 0 0 103 0 0 95 170 92 119 5 117 112 124 0 33 2 24 0 0 0 0 0 37 177 101 0 0 0 0 0 0 0 0 0 0 0 0 0 0 0 0 0 0 0 0 0 0 0 0 0 0 0 0 0 0 0 0 0 0 0 0 0 0 0 0 0 0 0 0 0 0 0 0 2 0 0 0 0 0 0 0 0 0 0 0 0 0 0 0 0 0 0 0 0 0 0 0 0 0 0 0 0 0 
29 23 20 8 46 60 40 47 0 41 1 23 0 33 14 44 0 0 0 0 0 0 0 0 0 0 0 0 0 0 0 0 0 0 0 0 1 7 0 0 0 45 0 0 0 0 0 0 0 0 0 0 4 0 0 0 12 0 0 10 0 0 0 0 0 0 0 0 0 0 0 0 0 0 0 0 0 0 0 0 11 0 0 0 0 0 0 0 0 0 0 0 0 0 0 0 0 0 0 0 0 0 0 0 0 0 0 0 0 0 
0 5 81 102 53 87 42 60 0 0 0 0 0 0 0 0 0 0 0 0 0 0 0 17 0 0 0 0 0 0 0 0 0 0 0 42 13 22 144 15 45 79 9 48 0 43 0 0 0 0 0 0 0 0 5 0 0 0 0 0 0 0 0 0 0 0 0 0 0 0 0 0 0 0 0 0 0 0 0 0 0 0 0 0 0 0 0 0 0 0 0 0 0 0 0 0 0 0 0 0 17 0 0 0 0 0 0 0 0 0 
45 11 4 19 20 45 93 61 0 0 0 0 0 0 0 0 0 3 0 0 0 0 0 0 18 5 0 0 0 0 0 0 0 0 0 0 0 46 137 85 8 0 0 0 0 0 0 0 0 0 0 0 0 0 0 0 0 0 0 7 9 0 0 0 0 0 0 0 0 0 0 0 0 0 0 0 0 0 0 0 0 0 0 0 0 0 0 0 0 0 0 0 0 0 0 0 0 0 0 0 0 0 0 0 0 0 0 0 0 0 
34 63 70 46 92 0 56 49 0 0 0 0 0 0 0 0 0 4 0 0 0 33 6 67 43 25 22 6 24 0 0 0 0 0 33 9 0 0 0 0 0 0 0 0 0 0 0 0 20 0 0 2 0 0 20 0 0 0 0 0 0 5 0 0 0 0 0 0 0 0 0 0 0 0 0 0 0 0 3 0 0 0 0 0 0 0 0 0 0 0 0 0 0 0 0 0 0 0 0 0 0 0 0 0 0 0 0 0 0 24 
61 18 36 56 0 47 39 0 0 0 0 0 16 0 44 90 78 68 57 0 46 13 0 0 0 0 0 0 0 0 0 0 0 0 0 0 0 0 0 0 0 0 0 0 0 0 0 0 0 0 0 0 0 0 0 0 0 0 0 1 0 0 0 0 0 0 0 0 0 0 0 0 0 0 0 0 0 0 0 0 0 0 0 0 0 0 0 0 0 0 0 0 0 0 0 0 0 0 0 0 0 0 0 0 0 0 0 18 0 0 
92 91 36 14 0 53 2 0 0 0 0 0 0 0 0 0 0 0 0 0 0 0 0 0 0 0 0 0 0 0 0 0 0 0 0 0 0 0 0 0 0 0 0 0 0 0 0 0 0 0 28 0 0 0 0 0 0 0 0 0 0 53 0 0 0 0 0 0 0 0 0 0 0 0 0 0 0 0 0 0 0 0 0 0 0 0 0 0 0 0 0 0 0 0 0 1 0 0 0 0 0 0 0 0 0 0 0 7 0 0 
0 0 29 17 36 0 0 0 0 0 0 0 0 0 0 0 0 0 0 0 0 0 0 0 0 0 0 0 0 0 0 0 0 0 0 0 0 0 0 0 0 0 0 0 0 0 0 0 0 94 47 66 0 0 0 0 0 0 0 0 0 0 0 0 0 0 0 0 0 0 0 0 0 0 0 0 0 0 0 3 0 0 0 0 0 0 0 0 0 0 0 0 0 0 0 7 0 0 0 0 0 0 0 0 0 0 0 0 0 0 
59 109 46 8 0 20 0 0 0 0 0 0 0 0 0 0 0 0 0 0 0 0 0 5 5 0 0 0 0 0 0 0 0 0 0 0 0 0 0 0 0 0 0 0 0 0 0 3 9 0 82 73 0 0 0 0 5 1 0 0 0 0 0 0 0 0 0 0 0 0 0 0 0 0 0 0 0 0 38 0 0 0 0 0 0 0 0 0 0 0 0 0 0 0 0 0 8 0 1 0 0 0 0 0 0 0 28 0 0 0 
80 86 34 0 90 56 0 0 0 0 0 0 0 0 0 0 0 0 0 0 0 0 0 0 0 7 0 0 0 0 0 0 0 0 0 0 0 0 0 0 0 0 0 14 0 0 0 0 0 24 0 0 0 0 0 0 0 0 0 0 0 0 0 0 0 0 0 0 0 0 0 0 0 0 0 0 0 0 0 0 0 0 0 0 0 0 0 0 0 0 0 0 0 0 0 0 0 0 0 0 0 0 0 0 0 0 1 4 0 0 
71 84 32 37 78 50 85 0 0 0 0 0 10 0 0 0 0 0 0 0 0 0 0 0 0 0 0 11 0 0 0 0 0 0 0 0 0 0 0 0 0 0 0 0 0 0 0 0 2 26 10 0 0 0 0 0 0 0 0 0 0 0 0 0 0 0 0 0 0 0 0 0 0 0 0 0 0 0 0 0 0 5 0 0 0 0 0 0 0 0 0 0 0 0 0 0 0 0 0 1 0 0 0 0 0 0 19 5 0 0 
60 34 87 8 26 94 57 0 0 0 0 0 62 0 0 0 0 0 0 0 0 0 0 0 0 0 0 0 0 0 0 0 0 0 0 0 0 0 0 0 0 0 0 3 0 0 1 12 0 42 0 0 0 0 0 0 0 0 0 0 0 0 0 0 0 0 0 0 0 0 0 0 17 0 0 0 0 0 0 0 0 33 0 0 0 0 0 0 0 0 0 0 0 0 0 0 0 0 0 0 0 0 0 0 0 0 0 4 0 0 
0 36 56 0 78 43 53 0 0 0 0 0 0 0 0 0 0 0 0 0 0 0 0 0 0 5 0 0 0 0 0 0 0 0 0 0 0 0 0 0 0 0 0 38 0 0 0 18 0 0 0 0 0 0 0 0 0 0 0 0 0 0 0 0 0 0 0 0 0 0 0 0 0 0 0 0 0 0 21 0 0 0 73 0 0 0 0 0 0 0 0 0 0 0 0 0 0 0 0 0 0 0 0 0 0 0 0 0 0 18 
0 0 0 0 20 36 0 0 0 0 0 0 0 0 0 5 0 3 0 0 0 0 0 0 0 0 0 0 0 0 0 0 0 0 0 0 0 0 0 0 0 0 0 0 0 0 0 0 0 0 0 0 0 0 0 0 0 0 0 0 0 0 0 0 0 3 0 0 0 0 0 0 0 0 0 0 0 0 15 0 0 0 0 0 0 0 0 0 0 0 0 0 0 0 0 0 0 0 0 0 0 19 0 0 0 0 0 0 0 0 
0 0 0 0 0 1 76 0 0 0 0 0 0 0 2 0 0 0 0 0 0 0 0 0 0 0 0 0 0 0 0 0 0 0 0 0 10 0 0 0 0 0 0 0 0 0 0 0 0 0 0 0 0 0 6 0 0 6 0 0 0 0 0 0 60 0 0 0 0 0 0 0 0 0 0 0 0 0 12 41 0 0 0 0 0 0 0 0 0 0 0 0 0 0 0 10 0 0 0 0 0 1 0 0 0 0 10 0 0 0 
0 0 0 4 2 91 33 0 0 0 0 0 0 0 0 0 0 0 0 0 0 0 0 0 0 17 0 0 0 0 0 0 0 0 0 0 0 0 0 0 0 0 0 0 0 0 9 63 37 41 7 0 0 42 0 0 0 0 0 0 0 0 0 0 0 0 0 0 0 0 0 0 0 0 0 0 0 0 0 0 0 0 0 0 0 5 0 0 0 0 0 0 0 0 0 0 0 0 0 0 0 23 0 0 0 0 7 0 0 0 
0 0 0 0 9 55 68 0 0 0 0 0 10 0 0 0 0 0 0 0 0 0 0 0 0 0 0 0 0 0 0 0 0 0 0 0 0 0 0 0 0 0 0 0 33 2 11 0 0 0 0 21 0 0 0 0 0 0 0 0 0 0 0 0 0 0 0 0 0 0 0 0 0 0 0 0 0 0 0 0 0 0 0 0 0 0 0 0 0 0 0 0 0 0 0 0 0 0 0 0 0 12 0 0 0 0 26 0 17 0 
0 0 0 0 11 27 1 0 0 0 0 0 0 0 0 0 0 0 0 0 0 0 0 0 0 0 0 0 0 0 0 0 0 0 0 0 0 0 0 0 0 0 0 0 0 0 0 0 0 29 12 0 0 0 0 0 0 0 0 0 0 0 0 0 0 0 0 0 0 0 0 0 0 0 0 0 0 0 0 0 0 0 0 0 0 0 2 0 0 0 0 0 0 9 0 14 0 0 0 0 0 38 0 0 0 0 19 0 0 0 
0 0 0 0 0 10 17 0 0 0 0 0 0 0 0 0 0 0 0 0 0 0 0 0 0 0 0 0 0 0 0 0 0 0 0 0 0 0 0 0 0 0 0 0 0 0 0 0 0 0 0 0 0 0 0 0 0 0 0 1 4 0 0 2 0 0 0 0 0 0 0 0 0 0 0 0 0 0 0 0 0 0 0 0 0 0 0 0 0 0 0 0 0 0 0 0 0 0 0 0 0 21 0 0 0 0 0 0 0 0 
0 0 0 0 51 52 5 0 0 0 0 0 0 4 0 0 0 0 0 0 0 0 0 0 0 0 0 0 0 0 0 0 0 0 0 0 0 0 0 0 0 0 0 0 7 21 0 0 0 0 0 0 0 0 0 0 0 0 0 0 0 0 0 0 0 0 0 2 0 0 0 0 0 0 0 0 0 0 0 0 0 0 0 0 0 0 0 0 0 0 0 0 0 0 0 0 0 0 0 0 0 37 0 0 0 0 28 0 0 0 
0 0 0 0 63 39 0 0 0 0 0 0 0 0 0 0 0 0 0 0 0 0 0 0 0 0 0 0 0 0 0 0 0 0 0 0 1 0 0 0 0 0 20 0 0 0 0 0 0 0 0 0 0 0 0 0 0 0 0 0 6 0 0 0 0 0 0 0 0 0 0 1 7 0 0 0 0 0 0 0 0 0 0 0 0 0 0 0 0 0 0 0 0 0 0 0 0 0 0 0 0 0 0 0 0 0 9 0 0 0 
0 0 0 0 76 20 0 0 0 0 0 7 0 0 0 0 0 0 0 0 0 0 0 0 18 0 0 0 0 0 0 0 0 0 7 0 0 0 0 24 24 0 0 0 0 0 0 0 0 0 0 0 0 0 0 0 0 0 0 0 0 0 0 0 0 0 0 0 0 0 0 0 0 0 0 0 0 0 0 0 0 0 0 0 0 0 0 0 0 0 0 0 0 0 0 19 0 0 0 0 0 0 0 0 0 0 7 0 0 0 
0 0 0 0 1 0 0 0 0 0 0 0 0 0 0 0 0 30 36 0 0 0 0 0 0 0 0 0 0 0 0 0 33 0 0 0 0 0 54 0 0 0 0 0 0 0 0 0 0 0 0 0 0 0 0 0 0 0 0 0 0 0 0 0 0 0 0 0 20 0 0 0 0 0 0 0 0 0 0 0 0 0 0 0 0 0 0 0 0 0 0 0 0 0 0 16 0 0 0 0 0 18 0 0 0 0 0 0 0 0 
0 0 0 0 32 7 0 0 0 0 0 6 0 0 0 0 0 0 0 0 0 0 0 0 0 0 0 0 0 0 0 0 0 0 3 0 10 0 0 0 0 0 0 0 0 0 0 0 0 0 0 0 0 0 0 0 0 0 0 0 0 0 0 0 0 0 0 0 0 0 0 0 0 0 0 0 0 0 0 0 0 0 0 0 0 0 0 0 0 0 0 0 0 0 0 0 0 0 0 0 0 0 0 0 0 0 0 0 0 0 
0 0 0 53 14 0 0 0 0 0 0 0 0 0 0 0 0 0 0 0 0 0 0 0 0 0 0 0 0 0 0 9 0 0 0 0 0 0 0 0 0 0 0 0 0 0 0 0 0 0 0 0 0 0 0 0 0 0 0 0 0 0 0 0 0 0 0 0 0 0 0 0 0 0 0 0 0 0 0 0 0 0 0 0 0 0 0 0 0 0 0 0 0 0 0 2 0 0 0 0 0 45 0 0 0 0 0 0 8 0 
0 0 0 56 67 17 0 0 0 0 0 0 0 0 0 33 0 0 0 0 0 0 0 0 42 0 0 0 0 0 42 0 0 0 0 0 0 0 0 0 0 0 0 0 0 14 0 0 0 0 0 0 0 0 0 0 0 0 0 0 0 0 0 0 0 0 0 0 0 0 0 0 0 0 0 0 0 0 0 2 0 0 0 0 0 0 0 0 0 41 0 0 0 0 0 0 0 0 0 0 0 40 0 0 0 0 0 0 0 0 
0 0 0 111 63 2 0 0 0 0 0 0 0 0 146 74 0 0 0 0 0 9 2 6 0 0 0 0 0 19 0 0 0 0 0 0 0 0 0 9 0 0 0 0 0 3 0 0 0 0 0 0 0 0 0 0 0 0 2 0 0 0 0 0 0 0 0 0 0 0 0 0 0 0 0 0 0 0 0 0 0 0 0 0 0 0 0 0 0 0 23 0 0 0 0 24 0 0 0 0 0 28 0 0 0 0 0 0 0 0 
0 0 0 68 89 0 0 0 0 0 0 0 0 0 0 0 0 0 0 16 1 3 6 0 0 0 0 0 32 0 0 0 0 0 0 0 0 0 0 0 0 0 0 0 0 0 0 0 0 0 0 0 0 0 0 0 0 0 0 0 0 0 0 0 0 0 0 0 0 0 0 0 0 0 0 0 0 0 0 0 0 0 0 0 0 0 0 0 0 0 61 0 0 0 0 47 0 0 0 0 28 16 0 0 0 0 0 0 0 0 
0 0 0 72 59 0 0 0 0 0 0 0 0 0 0 0 0 0 0 0 0 0 0 0 0 0 0 37 0 0 0 0 0 0 0 0 0 0 0 0 0 0 0 0 0 0 4 0 0 0 0 0 0 0 0 0 0 0 0 0 41 0 0 0 0 0 0 0 0 0 0 0 0 0 0 0 0 0 0 0 0 0 0 0 0 3 0 0 0 0 0 3 0 0 0 2 0 0 0 0 0 4 0 0 0 0 0 0 0 0 
0 0 0 71 63 9 0 0 0 0 0 0 0 0 0 0 0 0 0 0 0 0 0 0 0 78 37 0 0 0 0 0 0 0 0 0 0 0 0 12 0 0 2 0 0 2 0 0 0 0 0 0 0 0 0 0 0 0 0 0 0 0 0 0 0 0 0 0 0 0 0 0 0 0 0 0 0 0 0 0 0 0 0 0 0 0 0 0 0 0 0 0 7 0 0 16 0 0 0 0 0 0 0 0 0 0 0 0 0 0 
0 0 0 6 0 0 0 0 0 0 0 0 0 0 0 0 0 0 0 0 0 0 0 12 20 0 0 0 0 0 0 0 0 0 0 0 0 0 0 0 0 0 0 0 0 5 0 0 0 0 0 0 0 0 0 0 0 0 0 0 0 0 0 0 0 0 0 0 0 0 0 0 0 0 0 0 0 0 6 0 0 0 0 0 0 0 0 0 0 0 0 0 41 0 0 0 0 0 0 0 11 13 0 0 0 0 0 0 0 0 
0 0 0 0 15 3 0 0 0 0 0 0 0 0 0 0 0 0 0 0 0 0 27 0 0 0 0 0 0 0 0 0 0 0 0 0 0 0 0 0 0 0 0 0 3 0 0 0 0 0 0 0 0 0 0 0 0 0 0 0 0 0 0 0 0 0 0 0 0 0 0 0 0 0 0 0 0 0 1 0 0 0 0 0 0 0 0 0 0 0 0 0 0 5 0 0 0 0 0 0 29 15 0 0 0 0 20 0 0 0 
0 0 0 13 0 0 0 0 0 0 0 0 0 0 0 0 0 0 0 0 0 39 0 0 0 0 0 0 0 0 0 0 0 8 0 0 0 0 0 0 0 0 0 0 0 0 0 0 0 0 0 0 0 0 0 0 37 7 0 0 0 0 0 0 0 0 0 0 0 0 0 0 0 0 0 0 0 3 10 0 0 0 0 0 0 0 0 0 0 0 0 0 0 0 2 0 0 0 0 0 12 14 0 0 0 0 0 0 0 0 
0 0 0 22 0 0 0 45 70 0 0 0 0 0 0 0 0 0 0 0 5 0 0 0 0 0 0 0 0 0 0 0 0 2 0 0 0 0 0 0 0 0 0 0 0 0 0 0 0 0 0 0 0 0 0 0 131 83 0 0 0 0 0 0 0 0 0 0 0 0 0 0 0 0 0 0 0 0 0 0 0 0 0 0 0 0 0 0 0 0 0 0 0 0 19 24 0 0 0 0 5 8 0 0 0 0 25 0 0 26 
0 0 0 0 0 0 0 0 2 19 0 0 0 0 0 0 0 0 0 0 0 0 0 0 30 0 0 0 0 0 182 0 0 0 0 0 0 0 0 0 0 0 0 0 0 0 0 0 0 0 0 0 0 0 0 16 0 0 15 0 0 0 0 0 0 0 0 0 0 0 0 0 0 0 0 0 0 0 0 0 0 0 0 0 0 0 0 0 0 0 0 0 0 0 0 11 0 0 0 25 0 0 0 0 0 0 46 0 0 28 
0 0 41 90 94 1 0 9 0 0 15 0 0 0 0 0 0 0 0 0 0 0 0 0 15 0 0 0 0 0 0 0 0 0 0 0 0 0 0 0 0 0 3 0 0 0 0 0 0 0 0 0 0 0 23 183 0 62 136 0 0 0 0 0 0 0 0 0 0 0 0 0 0 0 0 0 0 0 0 0 0 0 0 0 0 0 0 0 0 0 0 0 0 0 0 0 0 0 0 0 0 0 0 0 0 0 40 0 0 24 
0 0 41 69 0 0 0 0 12 0 27 0 0 0 0 0 0 49 0 0 0 0 0 0 12 0 0 0 95 168 0 182 0 0 0 0 0 0 5 0 0 0 0 0 0 22 0 0 0 0 0 0 0 0 0 0 0 0 0 0 0 0 0 0 0 0 0 0 0 0 0 0 0 0 0 0 0 0 0 0 0 0 0 0 0 0 0 0 0 0 0 0 0 0 0 0 0 0 0 0 0 0 0 0 0 0 13 0 0 0 
0 0 0 0 0 0 0 0 0 0 0 0 0 0 0 84 88 0 0 0 0 0 0 0 27 0 0 0 41 80 0 5 0 0 0 0 0 0 0 0 0 0 0 0 0 1 2 0 0 0 0 0 0 0 0 0 0 0 0 0 0 0 0 0 0 0 0 0 0 0 0 0 0 0 0 0 0 0 0 0 0 0 0 0 8 0 0 0 0 0 0 0 0 0 0 0 0 0 0 0 14 0 0 0 0 0 16 0 0 57 
0 0 45 5 0 0 0 0 0 0 0 0 0 0 0 0 0 0 0 14 0 0 0 0 10 0 0 0 0 0 0 0 0 0 0 0 0 0 0 0 0 0 0 0 0 0 0 0 0 0 0 5 0 0 0 0 0 0 0 5 0 0 0 0 0 0 0 0 57 0 0 0 0 0 0 0 0 0 0 0 0 0 0 0 0 0 0 0 0 0 0 0 0 0 0 0 0 0 0 0 0 0 0 0 0 0 0 0 0 0 
0 0 53 80 79 0 0 0 0 0 0 0 0 0 0 0 0 0 0 7 0 0 0 0 4 0 0 0 0 0 0 1 8 0 0 0 1 0 0 0 9 0 0 0 0 0 0 0 0 0 0 3 0 0 0 0 0 0 0 0 0 0 0 15 1 0 0 0 0 0 0 0 0 0 0 0 0 0 0 0 11 3 0 0 0 0 0 0 0 0 0 0 0 0 0 0 0 0 0 0 0 0 0 0 0 0 0 0 0 0 
15 0 0 0 0 0 0 0 0 0 0 0 0 0 0 0 7 0 0 2 0 0 0 8 0 0 0 0 0 0 0 0 0 0 0 0 0 20 0 0 0 0 0 0 0 0 0 0 0 0 0 0 0 0 0 0 0 0 0 0 0 0 0 0 0 0 0 37 28 0 0 0 0 0 0 0 0 0 0 0 0 0 0 0 0 0 0 0 0 0 0 0 0 0 0 0 0 0 0 0 0 0 0 0 0 0 0 0 0 0 
0 0 0 0 0 0 0 0 0 0 0 30 0 0 0 0 16 0 8 0 0 0 0 0 0 0 0 0 0 0 0 0 0 0 0 0 32 0 0 0 0 0 0 0 0 0 0 0 0 24 48 0 0 0 0 0 0 0 88 60 0 0 0 10 0 69 55 0 10 39 15 0 0 0 0 0 0 0 0 0 0 0 0 0 0 0 0 0 0 0 3 0 3 34 0 0 0 0 0 0 0 0 0 0 0 0 15 8 4 3 
24 0 0 14 0 0 0 0 0 0 0 0 0 0 0 0 0 0 0 0 0 0 0 0 0 0 0 0 0 0 0 0 0 0 0 2 0 0 0 12 59 56 53 114 9 0 0 96 63 16 0 0 0 0 23 40 0 43 28 16 0 0 0 0 90 57 0 0 0 0 0 0 0 0 0 0 0 0 0 0 0 0 0 0 0 0 0 0 0 0 0 0 0 0 0 0 0 0 0 0 0 0 0 0 0 0 27 0 0 0 
0 0 0 0 0 0 0 5 0 0 0 0 0 0 0 0 3 0 0 0 0 4 1 12 10 0 0 0 0 0 0 0 0 35 0 0 0 0 55 79 23 82 65 45 42 78 33 0 0 6 0 0 0 54 99 35 70 56 120 33 0 0 0 44 24 1 0 0 0 0 0 7 0 0 0 0 0 0 0 0 0 0 0 0 0 0 0 0 0 0 0 0 0 0 0 0 0 0 0 0 0 0 0 0 0 0 23 0 0 0 
0 0 0 3 0 0 0 0 17 0 0 0 0 0 0 0 9 1 0 2 0 0 0 0 0 0 0 0 28 21 48 66 2 0 0 0 0 75 54 54 45 36 17 57 69 56 60 0 0 0 0 23 105 73 20 0 0 0 0 44 0 0 0 0 0 0 0 0 0 0 0 0 0 0 0 0 0 0 0 0 0 0 0 0 0 0 0 0 0 0 0 0 0 0 0 0 0 0 0 0 0 0 0 0 0 0 0 0 0 14 
0 0 0 0 0 0 0 0 0 13 0 0 0 0 0 0 1 0 0 0 0 0 0 0 12 18 0 0 0 0 0 0 0 0 0 19 72 32 48 72 16 53 53 61 28 0 0 0 0 0 17 0 75 71 14 0 0 0 48 6 0 0 0 0 0 0 0 0 0 0 0 0 0 0 0 0 0 0 0 0 0 0 10 105 116 0 0 0 0 0 0 0 0 0 0 0 0 0 0 0 0 0 0 0 0 0 29 0 0 12 
0 0 0 0 0 0 0 0 0 0 0 14 0 0 0 0 0 0 0 0 0 0 0 82 35 0 0 0 0 0 0 0 0 0 60 17 12 55 12 45 29 47 59 1 0 0 0 0 0 71 62 54 0 41 56 0 0 0 0 50 0 0 0 0 0 0 0 0 0 0 16 41 0 0 0 0 0 0 0 0 0 0 0 63 91 0 0 0 0 0 0 0 0 0 0 0 0 0 0 0 0 0 0 0 0 0 34 0 0 8 
0 0 0 0 0 0 0 0 7 0 0 0 0 0 0 0 0 0 0 0 0 72 56 0 0 0 0 0 0 0 0 0 23 46 45 55 37 63 25 39 28 36 1 0 0 0 0 29 71 36 61 60 97 0 0 22 1 0 57 26 0 0 0 0 0 0 0 0 0 0 34 4 0 0 0 0 0 0 0 0 0 0 0 25 25 0 0 0 0 0 0 0 0 0 0 0 0 0 53 0 0 0 0 0 0 0 23 0 0 0 
44 24 56 96 106 0 0 0 0 0 0 0 0 0 0 0 0 0 0 70 70 0 0 0 0 0 0 0 6 16 11 18 43 41 46 51 26 49 38 29 0 0 0 0 0 0 55 27 51 57 54 55 48 74 17 0 0 0 0 0 0 0 0 0 0 0 0 0 0 0 39 46 0 0 0 0 0 0 0 0 0 0 0 0 0 0 0 0 0 0 0 0 0 0 15 0 0 0 0 0 0 0 0 0 0 0 18 0 0 2 
90 97 106 92 0 0 0 0 0 0 0 0 0 0 0 0 0 38 83 0 0 0 0 0 0 0 12 74 73 68 72 68 63 61 63 58 62 54 62 22 60 75 80 69 80 76 67 71 58 55 58 60 60 55 36 29 23 0 6 80 0 0 0 0 0 0 0 0 0 0 15 40 0 0 0 0 0 0 0 0 0 0 0 0 0 0 0 0 0 0 0 0 0 0 0 0 0 0 0 0 0 0 0 0 0 0 17 0 0 17 
95 80 3 0 62 0 0 0 0 0 0 0 0 0 0 8 99 5 0 0 0 0 0 0 24 76 62 61 59 57 57 55 60 51 58 56 45 53 55 61 60 55 50 61 61 56 60 60 61 63 57 58 63 67 76 69 79 102 0 0 0 0 0 70 101 48 0 0 2 0 0 0 0 0 0 0 0 0 0 0 0 0 0 0 0 0 0 0 0 0 3 51 23 36 0 0 0 0 0 0 0 0 0 0 0 0 17 20 24 35 
0 0 39 6 0 0 0 0 0 0 7 0 0 0 0 31 0 0 0 0 0 0 10 66 63 57 64 57 52 55 52 58 50 55 53 57 55 51 55 55 50 61 60 55 52 55 57 52 52 57 55 51 56 59 61 62 65 70 98 0 0 0 0 19 88 66 0 20 34 57 23 57 18 42 77 90 86 71 45 29 2 0 0 0 0 0 0 0 0 0 0 0 0 0 0 0 0 0 0 0 0 0 0 0 0 0 12 29 0 0 
30 58 0 0 15 0 0 0 0 0 0 0 0 0 0 0 0 0 0 47 32 60 62 60 58 56 54 54 53 52 54 53 49 54 50 51 50 54 52 50 52 55 54 53 54 52 54 51 53 51 51 49 46 58 61 59 65 65 72 63 0 0 0 16 24 18 9 0 0 40 0 19 8 0 0 51 72 80 82 86 89 93 100 105 113 96 95 101 112 102 80 89 93 81 0 0 0 0 0 0 0 0 0 0 0 8 0 0 0 0 
0 11 0 0 0 0 0 0 0 0 0 11 43 0 0 0 1 39 58 53 61 57 59 57 56 54 52 52 51 50 50 46 49 45 51 44 49 49 46 54 51 49 53 61 51 55 53 51 47 53 55 55 59 49 58 54 63 63 69 76 0 0 0 33 68 7 0 25 0 18 53 54 34 45 51 57 70 69 76 67 73 77 77 82 72 83 84 81 79 88 93 100 109 102 0 0 0 0 0 0 0 0 0 0 0 0 0 35 0 0 
23 0 0 0 0 0 0 0 0 0 0 0 0 29 0 44 53 57 58 63 54 61 54 53 52 51 50 49 49 49 48 47 47 49 48 48 48 50 53 54 60 58 67 56 51 59 47 53 53 56 53 50 54 52 57 57 53 66 66 50 0 0 0 48 79 54 32 27 32 14 61 66 71 61 68 66 67 66 66 59 60 57 69 75 71 52 64 72 90 79 57 22 0 0 0 0 0 0 0 0 0 0 0 0 37 0 62 91 86 86 
0 0 0 0 0 0 0 0 0 0 0 0 0 0 0 65 60 55 62 52 60 53 51 51 51 49 48 48 48 49 45 47 45 51 46 49 46 50 47 59 0 0 0 23 44 48 55 27 24 36 43 50 53 53 54 51 59 57 64 48 0 0 0 63 67 66 71 70 62 0 0 57 60 55 65 60 53 66 63 44 15 0 1 0 19 49 50 53 21 24 0 0 11 0 0 0 0 0 0 0 0 0 0 0 0 0 41 65 66 63 
0 0 0 0 0 0 0 0 0 0 0 0 0 0 0 70 59 63 55 56 52 56 51 51 50 49 48 47 48 48 45 45 50 47 50 45 49 50 57 2 4 23 10 18 0 17 18 0 0 0 34 48 48 53 50 50 59 58 68 38 0 0 0 51 71 76 69 66 66 13 78 69 54 51 67 61 72 48 27 15 0 0 0 0 23 0 31 33 32 26 23 0 0 0 0 0 0 0 0 0 0 0 0 0 0 0 0 29 49 51 
0 0 0 0 0 0 0 0 7 0 0 0 0 0 8 69 57 58 56 52 52 49 51 50 50 48 47 46 46 46 45 46 49 48 49 47 49 51 40 32 59 46 17 24 48 42 0 0 0 47 46 57 52 50 50 57 50 67 71 16 0 0 0 63 72 65 74 62 69 16 72 57 61 66 57 59 46 14 0 0 2 0 1 0 0 20 7 13 23 0 0 0 0 0 0 0 0 0 0 0 0 0 0 0 0 0 0 25 46 40 
4 5 0 0 0 22 9 94 99 123 0 0 0 0 42 62 63 59 58 50 53 49 48 47 46 46 46 46 45 45 44 46 43 48 43 49 46 48 52 54 50 58 59 56 51 56 53 61 57 56 55 51 53 54 56 55 56 59 72 18 0 0 0 57 76 67 67 67 69 14 72 58 58 57 59 48 39 0 0 0 0 0 0 0 0 0 0 0 0 0 0 0 28 21 0 0 0 0 52 49 39 59 63 60 45 65 63 49 46 51 
0 3 0 0 0 9 2 99 86 106 0 0 0 0 63 55 52 54 48 48 45 49 44 43 43 43 45 46 46 45 48 46 47 44 49 48 50 49 51 49 51 57 54 55 61 52 55 53 57 53 52 54 49 52 57 59 58 66 75 0 0 0 0 60 69 66 58 62 63 9 69 56 60 58 59 46 38 31 0 0 0 0 1 7 63 65 20 4 39 34 60 62 82 23 0 0 0 0 75 81 72 68 63 59 63 56 50 48 53 45 
