P2
5 10
255
0 255 0 255 0 
255 0 255 0 255 
0 255 0 255 0 
255 0 255 0 255 
0 255 0 255 0 
255 0 255 0 255 
0 255 0 255 0 
255 0 255 0 255 
0 255 0 255 0 
255 0 255 0 255 
